<svg xmlns="http://www.w3.org/2000/svg" width="656" height="430.509" viewBox="0 0 656 430.509">
    <defs>
        <style>
            .cls-1,.cls-4{fill:#007fff}.cls-1{opacity:.18}.cls-2{fill:#3f3d56}.cls-3{fill:#f2f2f2}.cls-5{opacity:.1}.cls-6{fill:#fff}.cls-7{fill:#ff6584}.cls-8{fill:#2f2e41}.cls-9{fill:#a0616a}
        </style>
    </defs>
    <g id="Group_53" data-name="Group 53" transform="translate(-32 -472)">
        <rect id="Rectangle_422" width="656" height="400" class="cls-1" data-name="Rectangle 422" rx="42" transform="translate(32 472)"/>
        <g id="Group_10" data-name="Group 10" transform="translate(110 561)">
            <path id="Path_172" d="M713.389 254.288c-2.233 19.134-6.874 34.5-13.243 46.747-8.476 16.324-22.973 22.9-35.924 29.783a81.9 81.9 0 0 1-11.637 5.06c-23.565 8.179-49.941 6.009-70.659 1.691a278.549 278.549 0 0 0-44.111-5.577q-6.344-.286-12.7-.284c-6.535.008-124.2 2.242-152.845-55.757-7.073-14.307-11.921-31.784-13.663-53.087-4.929-60.228 22.159-99.783 57.1-125.638 66.1-48.908 156.7-46.857 221.819 3.34C680.9 134 721.52 184.606 713.389 254.288z" class="cls-2" data-name="Path 172" transform="translate(-214.434 -121.705)"/>
            <path id="Path_173" d="M771.51 313.56c-18.336-13.708-47.056-26.672-78.794-35.568-28.9-8.1-57.084-12.01-79.372-11.012l-.116-2.592c22.554-1.01 51.032 2.933 80.188 11.105 32.034 8.979 61.065 22.1 79.647 35.988z" class="cls-3" data-name="Path 173" transform="translate(-357.41 -235.17)"/>
            <path id="Path_174" d="M748.034 290.013a86.34 86.34 0 0 1-7.472 35.251q-.619 1.393-1.289 2.76a86.668 86.668 0 0 1-164.549-38.012q0-3.008.2-5.97.1-1.506.252-2.994a86.66 86.66 0 0 1 172.854 8.964z" class="cls-4" data-name="Path 174" transform="translate(-335.838 -201.065)"/>
            <path id="Path_175" d="M740.822 424.243q-.619 1.393-1.29 2.761-3.8.412-8 .6c-2.317.1-4.7.156-7.137.156-21.28 0-46.89-3.928-73.052-11.26-29.157-8.173-55.535-19.6-74.277-32.19q-.957-.642-1.881-1.287.1-1.506.252-2.994 1.49 1.062 3.074 2.127C597.037 394.591 623.15 405.9 652.048 414c25.934 7.27 51.3 11.164 72.339 11.164q3.608 0 7.034-.153 4.989-.226 9.401-.768z" class="cls-5" data-name="Path 175" transform="translate(-336.099 -300.044)"/>
            <path id="Path_176" d="M693.952 361.008c-21.279 0-46.891-3.928-73.053-11.261-29.156-8.172-55.535-19.6-74.278-32.189-19.134-12.848-28.106-25.508-25.264-35.648s17.087-16.292 40.111-17.324l.116 2.592c-10.752.482-19.514 2.08-26.044 4.75-6.513 2.663-10.445 6.258-11.685 10.683s.251 9.539 4.431 15.2 10.847 11.589 19.782 17.589c18.52 12.436 44.634 23.745 73.532 31.845 25.935 7.269 51.3 11.164 72.339 11.165q3.606 0 7.032-.153c10.752-.482 19.515-2.08 26.044-4.75 6.513-2.663 10.445-6.257 11.685-10.682 2.227-7.946-4.5-18.27-18.951-29.071l1.554-2.078c7.434 5.558 12.938 11.037 16.357 16.284 3.666 5.625 4.856 10.862 3.538 15.565-2.842 10.14-17.087 16.292-40.111 17.324-2.315.107-4.698.159-7.135.159z" class="cls-3" data-name="Path 176" transform="translate(-305.652 -235.368)"/>
            <circle id="Ellipse_42" cx=".993" cy=".993" r=".993" class="cls-3" data-name="Ellipse 42" transform="translate(326.84 -15.322)"/>
            <circle id="Ellipse_43" cx=".993" cy=".993" r=".993" class="cls-3" data-name="Ellipse 43" transform="translate(195.103 27.052)"/>
            <circle id="Ellipse_44" cx=".993" cy=".993" r=".993" class="cls-3" data-name="Ellipse 44" transform="translate(191.462 93.913)"/>
            <circle id="Ellipse_45" cx=".662" cy=".662" r=".662" class="cls-3" data-name="Ellipse 45" transform="translate(394.363 -9.033)"/>
            <circle id="Ellipse_46" cx=".662" cy=".662" r=".662" class="cls-3" data-name="Ellipse 46" transform="translate(474.132 84.314)"/>
            <circle id="Ellipse_47" cx=".662" cy=".662" r=".662" class="cls-3" data-name="Ellipse 47" transform="translate(437.723 53.862)"/>
            <circle id="Ellipse_48" cx=".662" cy=".662" r=".662" class="cls-3" data-name="Ellipse 48" transform="translate(255.345 5.862)"/>
            <circle id="Ellipse_49" cx=".662" cy=".662" r=".662" class="cls-3" data-name="Ellipse 49" transform="translate(435.406 75.377)"/>
            <circle id="Ellipse_50" cx=".662" cy=".662" r=".662" class="cls-3" data-name="Ellipse 50" transform="translate(199.737 141.907)"/>
            <circle id="Ellipse_51" cx=".662" cy=".662" r=".662" class="cls-3" data-name="Ellipse 51" transform="translate(239.126 169.049)"/>
            <path id="Path_177" d="M672.538 39.662h-.913v-.913h-.49v.913h-.914v.49h.914v.913h.49v-.913h.913z" class="cls-3" data-name="Path 177" transform="translate(-375.488 -81.709)"/>
            <path id="Path_178" d="M896.838 551.486h-.914v-.913h-.49v.913h-.913v.49h.913v.913h.49v-.913h.914z" class="cls-3" data-name="Path 178" transform="translate(-501.151 -368.456)"/>
            <path id="Path_179" d="M1036.088 520.626h-.915v-.913h-.493v.913h-.91v.49h.91v.913h.493v-.913h.915z" class="cls-3" data-name="Path 179" transform="translate(-579.165 -351.167)"/>
            <circle id="Ellipse_52" cx="7.282" cy="7.282" r="7.282" class="cls-2" data-name="Ellipse 52" transform="translate(319.558 13.812)"/>
            <circle id="Ellipse_53" cx="7.282" cy="7.282" r="7.282" class="cls-2" data-name="Ellipse 53" transform="translate(263.619 67.102)"/>
            <circle id="Ellipse_54" cx="7.282" cy="7.282" r="7.282" class="cls-2" data-name="Ellipse 54" transform="translate(344.051 140.252)"/>
            <circle id="Ellipse_55" cx="7.282" cy="7.282" r="7.282" class="cls-2" data-name="Ellipse 55" transform="translate(319.558 78.356)"/>
            <circle id="Ellipse_56" cx="7.282" cy="7.282" r="7.282" class="cls-2" data-name="Ellipse 56" transform="translate(267.26 118.407)"/>
            <circle id="Ellipse_57" cx="7.282" cy="7.282" r="7.282" class="cls-2" data-name="Ellipse 57" transform="translate(358.615 39.299)"/>
            <circle id="Ellipse_58" cx="7.282" cy="7.282" r="7.282" class="cls-2" data-name="Ellipse 58" transform="translate(382.778 88.617)"/>
            <circle id="Ellipse_59" cx="9.599" cy="9.599" r="9.599" class="cls-6" data-name="Ellipse 59" transform="translate(317.241 44.264)"/>
            <path id="Path_180" d="M757.443 289.015a13.571 13.571 0 0 0-13.571 13.571c0 7.495 13.571 32.107 13.571 32.107s13.571-24.612 13.571-32.107a13.571 13.571 0 0 0-13.571-13.571zm0 20.191a6.289 6.289 0 1 1 6.289-6.289 6.289 6.289 0 0 1-6.289 6.289z" class="cls-7" data-name="Path 180" transform="translate(-430.603 -249.054)"/>
            <circle id="Ellipse_60" cx="9.599" cy="9.599" r="9.599" class="cls-6" data-name="Ellipse 60" transform="translate(264.943 85.307)"/>
            <path id="Path_181" d="M638.519 382.348a13.571 13.571 0 0 0-13.571 13.571c0 7.495 13.571 32.107 13.571 32.107s13.571-24.612 13.571-32.107a13.571 13.571 0 0 0-13.571-13.571zm0 20.191a6.289 6.289 0 1 1 6.289-6.289 6.289 6.289 0 0 1-6.289 6.289z" class="cls-7" data-name="Path 181" transform="translate(-363.977 -301.344)"/>
            <circle id="Ellipse_61" cx="9.599" cy="9.599" r="9.599" class="cls-6" data-name="Ellipse 61" transform="translate(380.461 55.517)"/>
            <path id="Path_182" d="M901.205 314.606a13.571 13.571 0 0 0-13.571 13.571c0 7.495 13.571 32.107 13.571 32.107s13.571-24.612 13.571-32.107a13.571 13.571 0 0 0-13.571-13.571zm0 20.191a6.289 6.289 0 1 1 6.289-6.289 6.289 6.289 0 0 1-6.289 6.289z" class="cls-7" data-name="Path 182" transform="translate(-511.145 -263.392)"/>
            <circle id="Ellipse_62" cx="9.599" cy="9.599" r="9.599" class="cls-6" data-name="Ellipse 62" transform="translate(317.241 -20.28)"/>
            <path id="Path_183" d="M757.443 142.242a13.571 13.571 0 0 0-13.571 13.571c0 7.495 13.571 32.107 13.571 32.107s13.571-24.612 13.571-32.107a13.571 13.571 0 0 0-13.571-13.571zm0 20.191a6.289 6.289 0 1 1 6.289-6.289 6.289 6.289 0 0 1-6.289 6.289z" class="cls-7" data-name="Path 183" transform="translate(-430.603 -166.825)"/>
            <circle id="Ellipse_63" cx="9.599" cy="9.599" r="9.599" class="cls-6" data-name="Ellipse 63" transform="translate(341.734 107.153)"/>
            <path id="Path_184" d="M813.141 432.025A13.571 13.571 0 0 0 799.57 445.6c0 7.495 13.571 32.107 13.571 32.107s13.571-24.612 13.571-32.107a13.571 13.571 0 0 0-13.571-13.575zm0 20.191a6.289 6.289 0 1 1 6.289-6.289 6.289 6.289 0 0 1-6.289 6.289z" class="cls-7" data-name="Path 184" transform="translate(-461.808 -329.175)"/>
            <circle id="Ellipse_64" cx="9.599" cy="9.599" r="9.599" class="cls-6" data-name="Ellipse 64" transform="translate(261.302 33.341)"/>
            <path id="Path_185" d="M630.239 264.177a13.571 13.571 0 0 0-13.571 13.571c0 7.495 13.571 32.107 13.571 32.107s13.571-24.612 13.571-32.107a13.571 13.571 0 0 0-13.571-13.571zm0 20.191a6.289 6.289 0 1 1 6.289-6.289 6.289 6.289 0 0 1-6.289 6.289z" class="cls-7" data-name="Path 185" transform="translate(-359.338 -235.139)"/>
            <circle id="Ellipse_65" cx="9.599" cy="9.599" r="9.599" class="cls-6" data-name="Ellipse 65" transform="translate(356.298 6.53)"/>
            <path id="Path_186" d="M846.259 203.209a13.571 13.571 0 0 0-13.571 13.571c0 7.495 13.571 32.107 13.571 32.107s13.571-24.612 13.571-32.107a13.571 13.571 0 0 0-13.571-13.571zm0 20.191a6.289 6.289 0 1 1 6.289-6.289 6.289 6.289 0 0 1-6.289 6.289z" class="cls-7" data-name="Path 186" transform="translate(-480.362 -200.982)"/>
            <path id="Path_187" d="M214 799.472c0 4.705-40.854 8.52-91.249 8.52s-91.251-3.814-91.251-8.52 37.561-15.265 87.957-15.265S214 794.767 214 799.472z" class="cls-2" data-name="Path 187" transform="translate(-31.5 -466.483)"/>
            <path id="Rectangle_317" d="M0 0h35.815v29.64H0z" class="cls-8" data-name="Rectangle 317" transform="translate(60.417 56.501)"/>
            <path id="Path_188" d="M265.768 692.495l3.092 11.851-8.244 1.288-3.864-12.366z" class="cls-9" data-name="Path 188" transform="translate(-143.844 -387.967)"/>
            <path id="Path_189" d="M133.111 688.394v12.624h-8.759l1.288-12.624z" class="cls-9" data-name="Path 189" transform="translate(-69.668 -385.67)"/>
            <path id="Path_190" d="M292.01 777.2s6.183-2.834 9.79 0 5.41 9.275 5.41 9.275 9.275 11.851-1.546 11.335-11.335-1.8-11.335-3.607.515-3.864-1.288-4.637-2.576-4.38-2.061-5.41 1.03-6.956 1.03-6.956z" class="cls-8" data-name="Path 190" transform="translate(-176.785 -461.852)"/>
            <path id="Path_191" d="M157.1 770.543s-8.5-5.438-10.3-1.173-4.38 9.675-4.38 9.675-7.213 11.335 1.8 11.593 10.563-1.031 11.335-3.349 0-4.122 1.546-4.122 2.319-3.349 1.546-4.895-1.547-7.729-1.547-7.729z" class="cls-8" data-name="Path 191" transform="translate(-92.108 -457.256)"/>
            <path id="Path_192" d="M193.567 228.564s-2.061 11.593 3.349 12.366 10.82 3.091 11.078 4.637-21.126 18.033-21.126 18.033l-13.139-4.122s-13.139-3.349-12.624-5.925 1.546-6.183 1.546-6.183 14.942-3.091 15.2-7.729a88.44 88.44 0 0 1 2.061-12.108z" class="cls-9" data-name="Path 192" transform="translate(-104.103 -154.61)"/>
            <path id="Path_193" d="M193.567 228.564s-2.061 11.593 3.349 12.366 10.82 3.091 11.078 4.637-21.126 18.033-21.126 18.033l-13.139-4.122s-13.139-3.349-12.624-5.925 1.546-6.183 1.546-6.183 14.942-3.091 15.2-7.729a88.44 88.44 0 0 1 2.061-12.108z" class="cls-5" data-name="Path 193" transform="translate(-104.103 -154.61)"/>
            <path id="Path_194" d="M141.748 394.1s9.331 8.911 27.852 8.062 16.975 5.591 16.975 5.591l-.773 10.305s9.79 43.023 8.5 65.694c0 0 .515 10.82 4.122 16.746s13.4 49.721 11.851 53.07-12.881 2.061-12.881 2.061-10.563-39.932-15.715-48.949-5.668-14.169-5.668-14.169L158.494 441.5l-2.319 22.156s.258 17.518.258 19.064-.258 13.912-1.288 16.488-4.895 43.8-2.576 50.752-12.108 3.092-12.108 3.092-4.38-44.826-3.092-53.586-2.061-24.474-2.061-24.474-9.79-47.918-4.38-55.647c0 0 3.607-26.278 5.41-26.02z" class="cls-8" data-name="Path 194" transform="translate(-86.291 -247.491)"/>
            <circle id="Ellipse_66" cx="14.169" cy="14.169" r="14.169" class="cls-9" data-name="Ellipse 66" transform="translate(67.952 51.155)"/>
            <path id="Path_195" d="M135.856 329.425c.263.788 3.336-.835 6.289-2.615 2.839-1.711 5.562-3.568 5.562-3.568 3.091 9.79 22.671 5.925 22.671 5.925s.049.07.139.193a35.818 35.818 0 0 0 6.817 7.02c3.864 2.834 12.881-3.864 12.881-3.864s14.02-33.576 15.813-51.362c.394-3.913.2-7.064-.871-8.922-5.925-10.3-14.262-9.007-14.262-9.007-1.383 3.62-12.531 9.007-12.531 9.007l-11.078 2.061c-11.078 2.061-14.427-9.532-14.427-9.532-3.091-.515-8.759 5.152-8.759 5.152-5.41 1.546-8.244 19.579-8.244 19.579s.538.67 1.378 1.739c.474.6 1.043 1.327 1.667 2.133l.665.86c2.857 3.725 6.466 8.623 7.368 10.725 1.546 3.607-1.546 9.017-5.152 8.759s-6.441 14.172-5.926 15.717z" class="cls-4" data-name="Path 195" transform="translate(-89.931 -174.577)"/>
            <path id="Path_196" d="M195.088 434.962s-12.108 15.2-17.518 9.79 15.715-18.034 15.715-18.034z" class="cls-9" data-name="Path 196" transform="translate(-112.838 -266.202)"/>
            <path id="Path_197" d="M137.991 434.92s10.563 15.973 4.637 16.488-13.139-10.562-13.139-10.562z" class="cls-9" data-name="Path 197" transform="translate(-86.398 -270.797)"/>
            <path id="Path_198" d="M143.392 203.294c1.359-3 3.185-5.813 4.056-8.988 1.043-3.806.637-7.833.513-11.777a36.978 36.978 0 0 1 .883-10.392 17.866 17.866 0 0 1 5.137-8.943c6.636-5.924 18.782-6.35 26.886-3.884 3.195.972 6.6 2.824 7.39 6.068.12.49.173.994.307 1.481.663 2.415 3.134 3.944 4.026 6.284 1.153 3.028-.625 6.32-.857 9.551-.271 3.773 1.583 7.337 3.411 10.648 1.087 1.968 2.217 4.065 2.109 6.311a7.973 7.973 0 0 1-1.091 3.479 13.266 13.266 0 0 1-11.144 6.388 6.991 6.991 0 0 1-4.174-.986c-1.978-1.362-2.557-4.1-2.145-6.469s1.613-4.505 2.554-6.714c.289-.678.549-1.367.789-2.064a14.171 14.171 0 1 0-9.348 1.586 19.2 19.2 0 0 1-.93 10.674 40.3 40.3 0 0 1-4.482 7.815 10.789 10.789 0 0 1-2.855 3.2 10.131 10.131 0 0 1-2.432 1.039c-3.577 1.15-7.344 2.076-11.065 1.558s-7.407-2.762-8.675-6.3c-1.114-3.103-.222-6.567 1.137-9.565z" class="cls-8" data-name="Path 198" transform="translate(-93.267 -115.593)"/>
            <ellipse id="Ellipse_67" cx="15.457" cy="8.759" class="cls-8" data-name="Ellipse 67" rx="15.457" ry="8.759" transform="translate(65.633 47.806)"/>
            <path id="Path_199" d="M214.752 341.23a35.817 35.817 0 0 0 6.817 7.02c3.864 2.834 12.881-3.864 12.881-3.864s14.02-33.576 15.813-51.362a79.568 79.568 0 0 0-3.447-8.664l2.963 11.979s-13.268 10.691-16.1 15.071-.258 19.064 0 21.383-5.153 3.092-7.729 2.834-3.091 2.061-5.41 2.061c-1.123 0-3.562 1.742-5.788 3.542z" class="cls-5" data-name="Path 199" transform="translate(-134.166 -186.446)"/>
            <path id="Path_200" d="M243.053 284.36h3.864s9.532 19.322 8.5 41.22-11.593 30.657-23.7 33.491-17.518 4.637-19.064 2.834-2.319-16.746-2.319-16.746 7.986-7.471 10.3-7.471 2.834-2.319 5.41-2.061 7.986-.515 7.729-2.834-2.834-17 0-21.383 9.28-27.05 9.28-27.05z" class="cls-4" data-name="Path 200" transform="translate(-131.691 -186.446)"/>
            <path id="Path_201" d="M139.068 325.748c.474.6 1.043 1.327 1.667 2.133l-1.5-3.1-.167.967z" class="cls-5" data-name="Path 201" transform="translate(-91.764 -209.093)"/>
            <path id="Path_202" d="M135.856 367.223c.263.788 3.336-.835 6.289-2.615a8.84 8.84 0 0 0-.106-.477c-.773-3.091 4.637-10.562 4.637-10.562l3.607-9.79-.773-13.139-9.944 1.383c2.857 3.725 6.466 8.623 7.368 10.725 1.546 3.607-1.546 9.017-5.152 8.759s-6.441 14.171-5.926 15.716z" class="cls-5" data-name="Path 202" transform="translate(-89.931 -212.375)"/>
            <path id="Path_203" d="M130.049 311.308l-5.149 5.152s-3.607 20.867-3.607 22.156-6.183 9.532-4.637 15.2 2.576 13.139 1.288 14.685-3.091 5.925 0 7.986 6.956-11.851 16.23-8.244c0 0-5.668-9.017-5.41-9.79a8.626 8.626 0 0 0 .773-5.925c-.773-3.091 4.637-10.563 4.637-10.563l3.607-9.79-.773-13.139z" class="cls-4" data-name="Path 203" transform="translate(-78.972 -201.544)"/>
        </g>
    </g>
</svg>
