<svg xmlns="http://www.w3.org/2000/svg" width="457.236" height="234.326" viewBox="0 0 457.236 234.326">
    <defs>
        <style>
            .cls-1,.cls-2{fill:#fff}.cls-2{stroke:#6c63ff;stroke-miterlimit:10;stroke-width:2px;opacity:.8}.cls-3{fill:#ff5252}
        </style>
    </defs>
    <g id="Group_445" data-name="Group 445" transform="translate(-20.834 -59.717)">
        <path id="Path_1060" d="M186.105 248.669a15.127 15.127 0 0 0-.989-3.786 1.714 1.714 0 0 0-.871-1.073 1.8 1.8 0 0 0-.864-.01l-4.438.679a1.7 1.7 0 0 0-1.013.393c-.578.608-.009 1.587-.027 2.425a2.28 2.28 0 0 1-1.767 1.962 6.677 6.677 0 0 1-2.807-.035l-6.206-.964a10.231 10.231 0 0 0 4.695-3.133c.817-.967 1.251-2.774.071-3.232a2.9 2.9 0 0 0-1.078-.087c-2.812.022-5.024-2.326-7.656-3.314a8.465 8.465 0 0 0-9.527 2.84l3.306.159a1.468 1.468 0 0 1 .881.235c.724.6-.176 1.739-.074 2.671.133 1.211 1.741 1.47 2.953 1.592s2.75 1.107 2.167 2.177c-6.092 2.1-12.292-4.1-18.69-3.339a37.982 37.982 0 0 0-4.729 1.229c-9.658 2.444-19.642-4.076-29.508-2.7a37.462 37.462 0 0 0-6.441 1.7 8.683 8.683 0 0 0-3.72 1.942 2.981 2.981 0 0 0-.423 3.84 21.613 21.613 0 0 1-7.574-.72 4.244 4.244 0 0 1 2.182 3.74 44.943 44.943 0 0 0-11.513 3.51 19.392 19.392 0 0 0 2.383 3.174l-5.036 3.235a2.874 2.874 0 0 1 1.592 4.2c1.764-.785 2.857-2.815 4.744-3.227a6.392 6.392 0 0 1 3.666.711 5.727 5.727 0 0 0 3.674.579c1.214-.356 2.109-1.93 1.338-2.933a62.794 62.794 0 0 1 15.95-2.492 2 2 0 0 1 1.208.229c.7.488.518 1.542.48 2.4s.628 1.979 1.393 1.593c-.9.78-.13 2.247.732 3.067s1.9 1.951 1.374 3.017c-.138.278-.372.5-.5.782-.391.829.23 1.8.963 2.346a8.212 8.212 0 0 1 2.14 1.7c.509.762.278 2.1-.633 2.2l-2.588-3.286a6.737 6.737 0 0 0-1.748 3.313 6.952 6.952 0 0 1 .86 9.509c-1.174 1.379-2.844 2.218-4.3 3.294s-2.806 2.608-2.8 4.42c.006 3.13-.249 6.037.923 8.939a137.7 137.7 0 0 0 7.475 15.6c.74 1.323 1.7 2.772 3.193 3q-2.84-6.914-5.113-14.043a3.219 3.219 0 0 1 2.706.882 5.61 5.61 0 0 1 .525 2.366 7.33 7.33 0 0 0 .935 2.2l9.041 16.105c.749 1.335 1.609 2.768 3.042 3.309.916.346 1.975.281 2.818.778.661.39 1.106 1.083 1.779 1.45 1.9 1.039 4.553-.954 6.333.287a17.821 17.821 0 0 1 1.3 1.324c1.644 1.424 4.34.471 6.238 1.533 1.223.685 1.857 2.053 2.509 3.294 1.634 3.107 4.278 6.151 7.78 6.4a21.689 21.689 0 0 1 3.3.114c1.075.245 2.134 1.183 1.961 2.272-.3 1.867.627 3.912.379 5.786-.451 3.414-5.294 4.914-5.71 8.333a19.343 19.343 0 0 1-.127 2.254c-.218.9-.893 1.629-1.132 2.522-.454 1.691.758 3.375 2.089 4.512s2.919 2.119 3.647 3.712c.769 1.684.391 3.647.642 5.481.546 4 4 6.972 7.563 8.886a7.9 7.9 0 0 1 2.951 2.159c.916 1.32.825 3.061 1.131 4.638.749 3.864 4 7.047 4.094 10.982.066 2.8-1.489 5.334-2.417 7.972a18.592 18.592 0 0 0 1.518 15.419 24.7 24.7 0 0 1 2.017 3.55c.877 2.269.592 4.849 1.4 7.143 1.069 3.033 4.006 5.539 3.725 8.743 1.333 2.769 4.278 4.13 7.239 4.954l5.307 1.477a6.82 6.82 0 0 0 3.113.363 2.336 2.336 0 0 0 2-2.118c-2.6-.587-5.288-1.211-7.433-2.8s-3.615-4.41-2.8-6.95c.377-1.178 1.18-2.538.417-3.512-.437-.557-1.236-.7-1.729-1.211-.769-.793-.5-2.125.048-3.082a10.407 10.407 0 0 0 1.575-2.893 3.019 3.019 0 0 0-1.415-3.141 7.5 7.5 0 0 0 2.627-1.685 2.561 2.561 0 0 0 .466-2.9c1.614.2 3.519.3 4.578-.93a4.1 4.1 0 0 0 .454-3.714 15.864 15.864 0 0 1-.917-3.773 68.757 68.757 0 0 0 11.155-.378 7.233 7.233 0 0 0-3.391-4.247c1.677-.284 3.2-2.291 3.734-3.907a10.052 10.052 0 0 0 .067-5.044 2.707 2.707 0 0 1-.05-1.322 2.575 2.575 0 0 1 1.312-1.29l8.322-4.779a4.847 4.847 0 0 0 1.331-.982 3.954 3.954 0 0 0 .3-3.839 19.28 19.28 0 0 1-1.333-3.8c-.514-3.99 3.756-6.852 5.2-10.607a15.98 15.98 0 0 0 .79-4.651c.118-1.691.126-3.656-1.172-4.746-1.245-1.045-3.19-.812-4.493-1.784-1.194-.891-1.606-2.621-2.911-3.341-1.185-.654-2.67-.238-3.988-.545-2.32-.541-3.78-3.215-6.15-3.463-1.337-.14-2.85.514-3.946-.265-.966-.686-1-2.065-1.188-3.235a9.035 9.035 0 0 0-7.292-7.316c-1.379-.221-2.879-.137-4.052-.895s-1.732-2.2-2.665-3.266c-1.5-1.712-3.871-2.32-6.089-2.842l-9.022-2.121c-1.6-.377-3.666-.576-4.525.827a6.484 6.484 0 0 0-.535 1.684 5.214 5.214 0 0 1-4.9 3.691 5.8 5.8 0 0 0-3.419-2.646 21.318 21.318 0 0 1-2.767-.658 3.886 3.886 0 0 1-1.686-5.391 4.837 4.837 0 0 0-.827-5.819 7.852 7.852 0 0 0-5.811-1.572c-.539-1.176.362-2.5 1.333-3.357s2.15-1.694 2.361-2.97c.333-2.007-2.228-3.531-4.172-2.933s-3.185 2.487-4.006 4.349a12.806 12.806 0 0 1-1.613 3.093 3.17 3.17 0 0 1-3.069 1.256c-1.6-.409-2.219-2.311-2.574-3.925a25.529 25.529 0 0 1-.854-6.576 8.6 8.6 0 0 1 2.479-5.988c2.661-2.443 6.744-2.2 10.336-1.814a2.625 2.625 0 0 1 .269-3.467 3.942 3.942 0 0 1 3.573-.878 4.924 4.924 0 0 1 2.768 1.655c1.021 1.244 1.311 2.925 2.082 4.337s2.506 2.617 3.926 1.859c1.226-.655 1.421-2.355 1.116-3.711s-.953-2.675-.843-4.061c.211-2.644 2.952-4.236 5.37-5.325s5.188-2.554 5.571-5.178a4.721 4.721 0 0 1 .287-1.5 2.952 2.952 0 0 1 1.083-1.018c7.059-4.665 14.235-9.387 22.3-11.936.42-.133.469.015.9-.089.6-.346.2-1.3-.372-1.689s-1.341-.681-1.487-1.357c-.107-.5.186-.985.262-1.487a1.857 1.857 0 0 0-2.438-1.882c-.648-.858.634-1.856 1.671-2.141a45.383 45.383 0 0 1 9.534-1.557 1.718 1.718 0 0 1 1.085.185 1.3 1.3 0 0 1 .089 1.771 10.425 10.425 0 0 1-1.459 1.325 3.983 3.983 0 0 0-1.033 4.006c1.683.856 3.513 1.738 5.378 1.436s3.519-2.4 2.643-4.069c-.816-1.558-3.267-1.909-3.689-3.617-.494-2 2.336-3.777 1.7-5.735-.279-.858-1.134-1.362-1.79-1.982a5.377 5.377 0 0 1-1.177-5.962 6.784 6.784 0 0 1-5.95-1.862c-1.423-1.436-2.558-3.7-4.579-3.637-1.854.059-3.452 2.222-5.186 1.562-.427-.162-.876-.493-1.29-.3a1.066 1.066 0 0 0-.481.8c-.441 2.107.317 4.507-.831 6.328-1.25 1.981-4.14 2.256-5.654 4.042-.822.97-1.141 2.276-1.9 3.3s-2.36 1.672-3.267.781a4.5 4.5 0 0 0-1.223-5.476 12.011 12.011 0 0 0-2.7-1.314 16.031 16.031 0 0 1-3.019-1.682 2.973 2.973 0 0 1-1.108-1.186 2.7 2.7 0 0 1 .076-1.875 7.667 7.667 0 0 1 6.1-5.057c1.208-.164 2.613-.106 3.412-1.027.423-.487.645-1.223 1.259-1.421a1.857 1.857 0 0 1 1.162.143l4.508 1.587a3.163 3.163 0 0 0 1.606.266 1.089 1.089 0 0 0 .941-1.144c-.144-.749-1.3-1.108-1.191-1.863a1.244 1.244 0 0 1 .377-.634 16.116 16.116 0 0 1 12.782-5.047c.569.934-.331 2.041-1.08 2.839s-1.35 2.223-.445 2.837a2.482 2.482 0 0 0 1.2.27 10.478 10.478 0 0 1 3.195.969q2.336 1.017 4.583 2.225a5.811 5.811 0 0 1 .116-2.951 2 2 0 0 1 2.368-1.288c.9.347 1.355 1.532 2.309 1.641 1.273.145 1.775-1.735 1.243-2.9s-1.584-2.141-1.672-3.419c-.059-.862.269-1.931-.42-2.454a1.874 1.874 0 0 0-.813-.285l-17.2-3.164c-1.021-.188-2.5-.044-2.542.993-.025.579.492 1.152.263 1.684-.244.568-1.048.516-1.633.717a2.232 2.232 0 0 0-1.276 2.345 6.526 6.526 0 0 0 1.077 2.643c-1.121-.47-2.814-.557-3.933-1.024z" class="cls-1" data-name="Path 1060" transform="translate(-58.957 -165.917)"/>
        <path id="Path_1061" d="M281.973 228.692a5.569 5.569 0 0 0-6.117 1.832 1.225 1.225 0 0 0-.284 1.29c.34.579 1.206.35 1.844.143a4.641 4.641 0 0 1 2.913-.069c.6.206 1.136.57 1.738.768a1.75 1.75 0 0 0 1.784-.261 2.324 2.324 0 0 0 .44-1.667 1.34 1.34 0 0 0-.342-1.1 1.751 1.751 0 0 0-.79-.234 2.721 2.721 0 0 1-1.592-.931" class="cls-1" data-name="Path 1061" transform="translate(-168.546 -160.537)"/>
        <path id="Path_1062" d="M302.436 225.124a1.417 1.417 0 0 0-1.369 2 5.742 5.742 0 0 0 2.289.149 1.957 1.957 0 0 0 1.6-1.467 3.684 3.684 0 0 1-2.608-.5" class="cls-1" data-name="Path 1062" transform="translate(-182.808 -158.696)"/>
        <path id="Path_1063" d="M344.148 216.185a26.335 26.335 0 0 0-5.87 1.994 4.41 4.41 0 0 1 2.817 4.43 2.308 2.308 0 0 0 .027 1.1c.216.523.84.719 1.39.853a9.16 9.16 0 0 0 3.048.389 3.1 3.1 0 0 0 2.523-1.542 10.971 10.971 0 0 1 .525-1.24c1.316-2 5.227.419 6.641-1.518.5-.683.452-1.71 1.1-2.251a2.474 2.474 0 0 1 1.132-.432 79.5 79.5 0 0 1 8.6-1.225c1.368-.119 3.151-.61 3.162-1.983a23.824 23.824 0 0 0-15.2 2.044c-1.694.849-3.935 2.633-5.567 1.508-.611-.421-.581-1.555-1.422-2.029a4.288 4.288 0 0 0-2.906-.098z" class="cls-1" data-name="Path 1063" transform="translate(-203.717 -152.639)"/>
        <path id="Path_1064" d="M388.832 219.008l2.419.465a3.134 3.134 0 0 0-3.262 3.4c2.265.757 4.734.02 7.12.121s5.162 1.8 4.755 4.158c-.123.711-.534 1.422-.32 2.112a7.858 7.858 0 0 0 .817 1.272 2.848 2.848 0 0 1-.533 2.945c-.633.843-1.484 1.516-2.04 2.413-1.382 2.229-.6 5.111.227 7.6a6.7 6.7 0 0 0 1.289 2.573c1.22 1.3 3.208 1.41 4.989 1.436 1.3.019 2.781-.045 3.6-1.049 1.07-1.311.322-3.356 1.026-4.895.64-1.4 2.27-2 3.746-2.422a56.064 56.064 0 0 0 8.02-2.617c3.176-1.461 6.144-3.737 9.635-3.925a13.222 13.222 0 0 0 2.926-.206 2.225 2.225 0 0 0 1.768-2.062c-.061-.836-.768-1.449-1.321-2.079s-.986-1.6-.479-2.265l9.15-1.709c-.648-1.768-1.154-4.1.336-5.246.538-.415 1.258-.581 1.716-1.083a2.219 2.219 0 0 0-.513-3.056 5.878 5.878 0 0 0-3.273-.992 87.815 87.815 0 0 0-12.067.107l-23.574 1.292a17.226 17.226 0 0 0-4.859.494c-1.228.457-2.1 1.3-3.506 1.59-2.592.54-5.446.172-7.792 1.628z" class="cls-1" data-name="Path 1064" transform="translate(-231.55 -152.311)"/>
        <path id="Path_1065" d="M487.147 266.941a.974.974 0 0 0-.7.16.888.888 0 0 0-.229.543 3.584 3.584 0 0 0 .521 2.566 2.513 2.513 0 0 0 2.3 1.1c1.089-.139 1.892-1.068 2.893-1.521 1.543-.7 8.1-1.787 3.563-4.236-1.562-.844-2.572-.1-3.8.457a8.654 8.654 0 0 1-4.548.931z" class="cls-1" data-name="Path 1065" transform="translate(-286.535 -181.126)"/>
        <path id="Path_1066" d="M576.887 220.617a2.588 2.588 0 0 0-1.259 1.1 1.106 1.106 0 0 0 .415 1.467 1.649 1.649 0 0 0 .617.1l2.152.064c.914.027 2.056.222 2.3 1.1.182.654-.226 1.5.267 1.963a1.387 1.387 0 0 0 .732.286 4.989 4.989 0 0 0 2.169.07c1.566-.42.743-1.376 1.237-2.227.755-1.3.624-.514 1.954-1.26.982-.551 2.251-1.551 1.432-2.956-1.424-2.446-9.912-.757-12.016.293z" class="cls-1" data-name="Path 1066" transform="translate(-336.568 -155.303)"/>
        <path id="Path_1067" d="M662.971 219.5l-1.25.167a50.342 50.342 0 0 0-8.367 1.6 13.931 13.931 0 0 0 3.665.9 11.257 11.257 0 0 1 2.053.292c1.2.357 2.407 1.279 3.565.806.718-.293.953-1.041 1.547-1.437.411-.274 1.969-.717 2.143-.993 1.408-2.235-2.274-1.48-3.356-1.335z" class="cls-1" data-name="Path 1067" transform="translate(-380.168 -155.414)"/>
        <path id="Path_1068" d="M680.368 231.237a23.436 23.436 0 0 0-4.612 3.378 2.792 2.792 0 0 0-1.134 2.043c.071 1.069 1.209 1.689 2.2 2.106l4 1.692c.485-.683.041-1.626-.46-2.3s-1.1-1.448-.875-2.256c.252-.922 1.377-1.236 2.319-1.395 1.536-.259 5.679-.238 5.181-2.713-.595-2.914-5.077-1.417-6.619-.555z" class="cls-1" data-name="Path 1068" transform="translate(-392.077 -161.471)"/>
        <path id="Path_1069" d="M685.513 586.575a3.812 3.812 0 0 0 .241 3.36 3.4 3.4 0 0 0 3.494 1.207 6.293 6.293 0 0 0 3.244-2.086 11.167 11.167 0 0 0 1.866-2.861 22.35 22.35 0 0 0 1.383-5.061l1.24-6.514c.277-1.456.266-5.919-2.409-4.464-.731.4-2.423 3.534-3.189 4.423-1.38 1.6-1.563 3.158-2.29 5.1-.909 2.433-2.738 4.46-3.58 6.896z" class="cls-1" data-name="Path 1069" transform="translate(-398.026 -351.763)"/>
        <path id="Path_1070" d="M1002.163 682.056a19.494 19.494 0 0 1-2.542-1.21 21.42 21.42 0 0 0-1.289 7.024l5.99-3.39c.9-.51 1.922-1.219 1.9-2.254a.713.713 0 0 0-.331-.648.807.807 0 0 0-.42-.049 10.14 10.14 0 0 0-2.536.815 3.1 3.1 0 0 1-2.587.014" class="cls-1" data-name="Path 1070" transform="translate(-573.366 -413.913)"/>
        <path id="Path_1071" d="M1066.518 685.506a12.922 12.922 0 0 0-1.921.689c-1.375.7-2.31 2.028-3.547 2.949a14.072 14.072 0 0 1-4.008 1.836.961.961 0 0 0 .224 1.416 2.778 2.778 0 0 0 1.582.356 8.359 8.359 0 0 0 4.258-.656 13.451 13.451 0 0 0 2-1.591 21.233 21.233 0 0 1 5.045-2.853 5.793 5.793 0 0 0 1.759-1.052c1.111-1.1 1.19-2.785-.413-3.158-1.292-.3-3.747 1.665-4.979 2.064z" class="cls-1" data-name="Path 1071" transform="translate(-606.117 -415.35)"/>
        <path id="Path_1072" d="M1103.858 662.229a5 5 0 0 0-1.529-4.095 7.79 7.79 0 0 1-.911 4.362c-.6.889-1.552 1.489-2.214 2.335s-.956 2.188-.18 2.931a2.911 2.911 0 0 0 1.725.594c1.546.182 3.335.283 4.42-.833.592-.61.88-1.513 1.6-1.961a1.946 1.946 0 0 0 .7-.5c.3-.474-.176-1.1-.708-1.269s-1.121-.09-1.656-.253-1.027-.765-.752-1.252" class="cls-1" data-name="Path 1072" transform="translate(-629.497 -401.194)"/>
        <path id="Path_1073" d="M1023.343 535.148a6.944 6.944 0 0 1-2.479.146c-1.376-.253-2.448-1.29-3.559-2.141a15.7 15.7 0 0 0-9.172-3.2c-3.019-.057-6.067.761-9.032.19a3.563 3.563 0 0 0 2.1 2.366c.984.48 2.07.722 3.058 1.193a7.3 7.3 0 0 1 3.537 3.68 10.4 10.4 0 0 0 1 2.2c.986 1.326 2.854 1.618 4.5 1.509 2.15-.141 4.4-.76 6.4.041 1.53.613 2.625 1.952 3.9 2.993s3.077 1.814 4.544 1.063a7.513 7.513 0 0 1-5.2-7.229c1.439.132 5.584.081 5.36-2.364-.183-2.073-3.721-.67-4.957-.447z" class="cls-1" data-name="Path 1073" transform="translate(-573.796 -329.405)"/>
        <path id="Path_1074" d="M956.721 571.061c.255-1.4 1.653-2.639 1.218-3.995a2.458 2.458 0 0 0-2.373-1.424c-.985-.023-1.952.27-2.937.3a14.322 14.322 0 0 0-1.923.027c-1.954.321-3.159 2.37-5 3.1a30.4 30.4 0 0 1-3.543.664c-2.644.7-4.317 3.194-6.166 5.208a22 22 0 0 1-11.168 6.513c-1.5.348-3.12.571-4.315 1.547-1.583 1.293-1.972 3.51-2.324 5.523a91.222 91.222 0 0 1-4.44 16.3l6.278.8a8.533 8.533 0 0 0 3.581-.052 10.39 10.39 0 0 0 2.355-1.255 23.516 23.516 0 0 1 9.185-3.317 9.755 9.755 0 0 1 4.911.344 4.566 4.566 0 0 1 3 3.652 3.858 3.858 0 0 1 3.855.938 6.7 6.7 0 0 1 1.84 3.674c.165.859.331 1.888 1.128 2.249.65.294 1.4-.023 2.108-.08 2.414-.193 4.417 2.622 6.79 2.137 2.545-.52 3.169-4.331 5.652-5.094 1.426-.439 3.426.095 4.108-1.232.6-1.169-.6-2.518-.475-3.827.152-1.612 2.053-2.3 3.519-2.983a10.975 10.975 0 0 0 5-14.187c-1.451-2.972-4.3-5.311-4.832-8.576-.406-2.512.585-5.441-1.017-7.418-.815-1.006-2.194-1.561-2.679-2.761a13.59 13.59 0 0 1-.347-2.411c-.164-.8-.86-1.633-1.649-1.426-2.287.6-3.017 7.666-4.242 9.383a2.84 2.84 0 0 1-5.098-2.321z" class="cls-1" data-name="Path 1074" transform="translate(-525.996 -348.46)"/>
        <path id="Path_1075" d="M911.183 547.483a3.682 3.682 0 0 0-2.384-.122c-.749.313-1.186 1.413-.585 1.958a80.717 80.717 0 0 1 14.1.274c5.372.736 10.689 2.558 16.084 2.022a81.839 81.839 0 0 0-9.383-2.177l-5.282-1.009a40.835 40.835 0 0 0-4.289-.663c-3.017-.249-5.297.548-8.261-.283z" class="cls-1" data-name="Path 1075" transform="translate(-522.739 -339.07)"/>
        <path id="Path_1076" d="M920.29 503.4c-.391-.033-.874-.061-1.076.275s.028.744-.076 1.1c-.142.491-.785.617-1.292.55a2.476 2.476 0 0 0-1.5.017 1.276 1.276 0 0 0-.493 1.448 3.728 3.728 0 0 0 .87 1.386 14.159 14.159 0 0 0 2.256 2.263c1.616 1.193 3.806 1.768 4.824 3.5a2.322 2.322 0 0 0 .644.867 1.791 1.791 0 0 0 1.652-.166l1.844-.843a2.1 2.1 0 0 0 .862-.586 1.9 1.9 0 0 0-.191-2 3.437 3.437 0 0 1-.731-1.959c.135-1.259 1.754-1.741 2.42-2.818s.234-2.485.312-3.759c.091-1.49 1.027-3.428-.48-4.542-1.28-.946-2.5-.072-3.423.973-1.943 2.203-2.859 4.594-6.422 4.294z" class="cls-1" data-name="Path 1076" transform="translate(-527.137 -311.363)"/>
        <path id="Path_1077" d="M951.035 454.487c.63 1.206 1.942 1.925 2.629 3.1.744 1.273.659 2.917 1.467 4.151.828 1.266 2.5 1.938 2.96 3.377.507 1.572-.644 3.482.274 4.855a2.038 2.038 0 0 0 2.99.275 2.193 2.193 0 0 0-.09-3.059c-.543-.5-1.323-.709-1.776-1.288a2.7 2.7 0 0 1-.46-1.12 7.334 7.334 0 0 1 .115-3.515 1.564 1.564 0 0 0 .089-.919c-.2-.593-1.008-.636-1.572-.911-1.281-.625-1.25-2.433-1.026-3.84-.149.937-3.487-.657-3.837-1.188-.694-1.055-.317-3.089-.454-4.254a3.312 3.312 0 0 0-1.309 4.336z" class="cls-1" data-name="Path 1077" transform="translate(-546.687 -284.716)"/>
        <path id="Path_1078" d="M871.168 500.748c-.616-.69-1.544-1.411-2.37-1a1.5 1.5 0 0 0-.557 1.85 4.073 4.073 0 0 0 1.344 1.6 46.909 46.909 0 0 1 5.077 4.351c2.688 2.953 4.111 6.939 7.034 9.659a3.946 3.946 0 0 0 2.215 1.2 1.722 1.722 0 0 0 1.906-1.315 2.508 2.508 0 0 0-.884-1.845c-1.135-1.235-2.378-2.372-3.45-3.662a3.077 3.077 0 0 1-.882-1.842c-.006-.695.628-1.422 1.3-1.25-.819-.209-1.426-1.573-2.627-1.83-1-.214-1.247.407-2.442-.105-2.279-.971-4.068-4.024-5.664-5.811z" class="cls-1" data-name="Path 1078" transform="translate(-500.451 -312.427)"/>
        <path id="Path_1079" d="M981.4 348.5a18.863 18.863 0 0 1-1.926-.688c-1.692-.508-3.932.736-3.706 2.488.15 1.164 1.234 1.95 1.832 2.96.888 1.5.651 3.4.185 5.075a3.966 3.966 0 0 1-.64 1.444 4.891 4.891 0 0 1-1.517 1.091 20.283 20.283 0 0 0-5.935 5.042 1.455 1.455 0 0 0-.358.676c-.081.592.514 1.023.85 1.516.747 1.1.207 2.571.281 3.9a1.1 1.1 0 0 0 .464.966c.45.229.984-.16 1.228-.6.81-1.467.2-3.822 1.719-4.53.287-.134.636-.19.828-.443.3-.4.011-.993.165-1.472.231-.719 1.214-.751 1.969-.719a11.176 11.176 0 0 0 3.838-.511 2.556 2.556 0 0 0 1.271-.736 2.764 2.764 0 0 0 .323-2.093 28.374 28.374 0 0 0-3.352-10.229 6.094 6.094 0 0 0 3.938-.377c.645-.389 1.418-1.554 1.1-2.347-.512-1.255-1.427-.2-2.557-.413z" class="cls-1" data-name="Path 1079" transform="translate(-557.119 -227.343)"/>
        <path id="Path_1080" d="M538.112 382.481a5.138 5.138 0 0 1 .036 2.583 1.767 1.767 0 0 1-2 1.261c-.647-.2-1.021-.847-1.48-1.343-2.556-2.759-8.321-1.162-9.9-4.575-.644-1.393-.207-3.062-.646-4.532a4.034 4.034 0 0 0-4.085-2.775 8.4 8.4 0 0 0-2.351.7 59.274 59.274 0 0 1-15.575 3.9 12.8 12.8 0 0 0-2.993.544c-2.194.8-3.694 2.83-4.761 4.906s-1.855 4.324-3.286 6.168a27.4 27.4 0 0 1-5.576 4.764 5.689 5.689 0 0 0-1.839 1.928 6.031 6.031 0 0 0-.369 2.865l.4 11.81a10.669 10.669 0 0 0 .8 4.452c.849 1.7 2.526 2.809 3.69 4.309a8.44 8.44 0 0 1 1.751 5.39c-.025.782-.1 1.707.507 2.2a2.227 2.227 0 0 0 1.245.358l15.976 1.308c2.81.23 5.925.608 7.76 2.749.866 1.011 1.562 2.464 2.888 2.572a10.718 10.718 0 0 0 1.692-.232c1.436-.114 2.7.976 3.493 2.176a9.654 9.654 0 0 1 1.551 6.2c-.13 1.369-.555 2.7-.646 4.072-.348 5.221 4.078 9.758 4.164 14.99.05 3.078-1.411 5.953-2.835 8.682 2.3 3.483.416 8.121 1.332 12.192.869 3.863 4.089 6.887 4.892 10.764.367 1.775.389 3.959 1.954 4.873a4.454 4.454 0 0 0 2.211.443 29.145 29.145 0 0 0 13.272-3.022c1.935-.96 3.941-2.394 4.279-4.528.273-1.721-.6-3.646.288-5.145 1.047-1.767 3.728-1.627 5.268-2.985 2.5-2.2.55-6.406 1.562-9.58.91-2.853 4.042-4.368 5.595-6.929a12.3 12.3 0 0 0 1.3-3.524 50.254 50.254 0 0 0 1.324-8.992 53.876 53.876 0 0 1 .407-5.5c1.674-10.4 11.955-17.364 15.294-27.355.319-.954.468-2.225-.38-2.765a2.431 2.431 0 0 0-1.617-.169l-7.365.928a5.069 5.069 0 0 1-2.724-.157 1.748 1.748 0 0 1-1-2.25c1.251-2.266-1.322-5.129-2.465-7.451A109.946 109.946 0 0 0 558.2 391a1.805 1.805 0 0 1-.48-1.042l2.09.07c-.705-2.532-1.87-5.3-4.329-6.228a10.779 10.779 0 0 0-4.4-.261 64.291 64.291 0 0 1-12.969-1.058z" class="cls-1" data-name="Path 1080" transform="translate(-284.918 -241.563)"/>
        <path id="Path_1081" d="M568.356 242.927c1.108 1.177 2.35 2.425 3.954 2.63 2.833.362 4.869-2.567 6.166-5.111a2.5 2.5 0 0 0 2.606 2.31 5.143 5.143 0 0 0 1.96-.766 38.614 38.614 0 0 1 18.294-4.729 1.976 1.976 0 0 1 1.509-2.172c1.3-.258 2.472.866 3.1 2.034s1.018 2.521 2.015 3.4 2.926.836 3.32-.43c.378-1.215-.888-2.252-1.94-2.968s-2.16-2.043-1.452-3.1a94.5 94.5 0 0 1 16.279-2.62 6.817 6.817 0 0 0 2.74-.472 2.13 2.13 0 0 0 1.279-2.252 6.205 6.205 0 0 1-6.476-2.443c7.629-.63 15.744-1.166 22.506 2.424.811 1.742-3.324 3.191-2.218 4.762a2 2 0 0 0 1.673.571 82.95 82.95 0 0 0 14.07-.537 18.841 18.841 0 0 1 5.117-.415c2.839.35 5.267 2.244 8.06 2.862a4.312 4.312 0 0 0 3.37-.4 2.137 2.137 0 0 0 .585-3.026c2.63-2.577 6.994-1.939 10.464-.7s6.756 3.224 10.428 3.5c2.633.2 5.3-.511 7.9-.061a49.209 49.209 0 0 1 4.755 1.457c3.022.845 6.219.667 9.357.707a65.564 65.564 0 0 1 23.365 4.643 6.947 6.947 0 0 1 2.6 1.535 2.547 2.547 0 0 1 .58 2.794l-7.688-1.123c.724 1.426 2.6 1.669 4.12 2.161s3.1 2.172 2.185 3.484c-1.649-.525-3.143 1.124-3.976 2.64s-1.848 3.333-3.576 3.426c-1.547.083-3.419-1.235-4.427-.058a30.181 30.181 0 0 1 3.557 5.687c1 2.076 1.706 4.691.359 6.559a1.7 1.7 0 0 1-.909.7c-1.1.278-1.815-1.067-2.6-1.883-.994-1.028-2.5-1.319-3.843-1.8s-2.764-1.43-2.869-2.856a5.7 5.7 0 0 1 .748-2.532 9.758 9.758 0 0 0 .741-4.375 4.97 4.97 0 0 0-1.277-3.3 2.559 2.559 0 0 0-3.284-.337c-.433.359-.78.934-1.342.956-.993.038-1.756-1.694-2.555-1.1a2.718 2.718 0 0 1-.369 1.816c-2.385 2.074-6.049 1.2-9.123 1.929a17.126 17.126 0 0 0-4.162 1.818 2.679 2.679 0 0 0-1.19 1 1.842 1.842 0 0 0 .716 2.2 5.684 5.684 0 0 0 2.36.806c3.748.71 7.552 1.809 10.511 4.216s4.9 6.387 3.964 10.086L713 269.4q.421 4.449.478 8.921a4.014 4.014 0 0 1-.234 1.716c-.527 1.164-1.955 1.556-3.207 1.813a2.512 2.512 0 0 0-1.928 3.218 10.5 10.5 0 0 0 2.569 3.705 7.114 7.114 0 0 1 2.147 3.916c.133 1.51-1.006 3.213-2.519 3.108a3.323 3.323 0 0 1-2.486-2.146 13.645 13.645 0 0 0-1.515-3.082c-2.224-2.675-7.22-1.529-9.212-4.38a4.506 4.506 0 0 0-.932 4.288 2.361 2.361 0 0 1 2.892.8 19.754 19.754 0 0 1 1.572 2.871c.738 1.278 1.912 2.411 2.016 3.883a12.727 12.727 0 0 0 .028 1.67 6.752 6.752 0 0 0 1.46 2.278 6.539 6.539 0 0 1 .372 6.086 18.765 18.765 0 0 1-3.587 5.207 62.818 62.818 0 0 1-7.811 7.867 8.2 8.2 0 0 0-2.217 2.232 2.42 2.42 0 0 0 .249 2.92c-.565.028-1.577.306-2.141.334a49.821 49.821 0 0 1-.129-6.81c-2.227-1.069-4.626 1.795-4.338 4.249s2.063 4.423 3.326 6.547a7.735 7.735 0 0 1 1.3 5.143c-.309 1.78-1.9 3.423-3.7 3.266-2.863-.25-4.061-4.36-6.9-4.831a1.158 1.158 0 0 0-.746.074c-.421.231-.494.794-.518 1.274-.116 2.353-.216 4.8.7 6.97 1.344 3.174 4.816 5.84 4.088 9.21-3.924-1.824-5.964-6.224-6.89-10.45s-1.081-8.664-2.741-12.659c-1.261 1.616-3.911.28-5.063-1.415-1.092-1.607-1.764-3.466-2.824-5.1s-2.683-3.087-4.624-3.177c-2.035-.094-3.8 1.3-5.352 2.622a12.481 12.481 0 0 0-3.333 3.713c-1.086 2.183-.8 4.756-.854 7.193-.057 2.635-.615 5.415-2.411 7.344s-5.11 2.6-7.091.862a7.992 7.992 0 0 1-1.981-3.565 174.582 174.582 0 0 1-5.362-19.144c-.333 1.478-1.631 3.384-2.871 2.513a2.571 2.571 0 0 1-.662-.852c-2.313-3.921-6.6-6.273-10.927-7.683s-8.883-2.068-13.164-3.618a33.343 33.343 0 0 1-6.829-3.4 5.37 5.37 0 0 0-.328 5.494 4.376 4.376 0 0 0 4.938 2.067c.951-.3 1.753-.964 2.7-1.29a2.1 2.1 0 0 1 2.621.743c.395.87-.2 1.922.094 2.83.451 1.383 2.537 1.49 3.266 2.748a2.531 2.531 0 0 1-.679 2.936 12.282 12.282 0 0 1-2.755 1.7c-3.069 1.707-5.252 4.62-7.935 6.887s-6.467 3.922-9.664 2.468c.762-3.859-3.834-6.692-4.68-10.533-.278-1.264-.134-2.607-.531-3.839-.575-1.784-2.158-3.01-3.456-4.362A17.12 17.12 0 0 1 578 300.3a17.494 17.494 0 0 0 0-4.748c-.362-1.547-1.643-3.045-3.23-2.975-3.626.16-8.194.43-10.1-2.661-.679-1.1-.974-2.719.007-3.564a3.447 3.447 0 0 1 2.624-.451l8.17.8c1.911.188 3.976.343 5.616-.656s2.35-3.65.832-4.826c-1.109-.859-3.1-.812-3.419-2.177-.269-1.137.99-2.427.31-3.378-.487-.681-1.583-.492-2.247.018a14.383 14.383 0 0 1-1.889 1.645c-1.3.678-2.861.033-4.264-.406s-3.283-.476-3.963.827c-.761 1.457.675 3.366-.08 4.826-1 1.93-4.379.831-5.781 2.491-1.609 1.905 1.095 4.746.552 7.179a4.469 4.469 0 0 1-4.4-.247 4.277 4.277 0 0 1-1.848-3.982c.134-1.095.7-2.212.323-3.247a3.81 3.81 0 0 0-1.93-1.766l-7.939-4.387c-.737 1.367.195 3.063 1.36 4.089s2.625 1.8 3.391 3.152a4.138 4.138 0 0 1-1.557 5.455.955.955 0 0 1-.787.137 1.1 1.1 0 0 1-.51-.686c-1.4-3.585-3.5-7.119-6.866-8.992s-8.194-1.488-10.4 1.667c-.524.749-.875 1.6-1.332 2.4-2.424 4.209-7.62 6.2-12.475 6.071a2.478 2.478 0 0 1-1.361-.32c-.785-.542-.749-1.692-.629-2.638l.51-4.014a3.189 3.189 0 0 1 .889-2.2c.9-.709 2.2-.262 3.342-.278a4.235 4.235 0 0 0 3.844-2.967 4.773 4.773 0 0 0-1.329-4.747c-.525-.493-1.23-1.112-.952-1.777a1.469 1.469 0 0 1 1.03-.694c2.057-.6 4.231-.754 6.254-1.459s3.985-2.147 4.464-4.235c.147-.64.214-1.415.789-1.732a2.365 2.365 0 0 1 .911-.186 4.434 4.434 0 0 0 3.8-4.622c.97-.677 2.328-.179 3.266.541a9.2 9.2 0 0 0 2.907 1.983c2.127.579 4.182-1.3 6.387-1.313a8.228 8.228 0 0 0 2.758.01c.884-.319 1.412-1.2 2.09-1.849s1.869-1.047 2.5-.346l-.534-3.952a7.769 7.769 0 0 0 6.323-1.143l-6.9-2.33a1.5 1.5 0 0 1-.645-.345c-.5-.54 0-1.381.4-1.995.975-1.468 1.139-3.886-.465-4.617-1.095-.5-2.351.1-3.4.686l-5.033 2.806c-.16.957 1.01 1.5 1.735 2.143a2.909 2.909 0 0 1-1.9 5.082 3.624 3.624 0 0 1 .647 3.073l-3.386.243a1.467 1.467 0 0 1-1.1-.214c-.362-.322-.313-.885-.4-1.362a2.956 2.956 0 0 0-2.48-2.165 8.726 8.726 0 0 0-3.467.32 2.069 2.069 0 0 1-1.49-.034 1.488 1.488 0 0 1-.59-.744 3.823 3.823 0 0 1 .77-3.671 20.365 20.365 0 0 1 2.887-2.655 16.826 16.826 0 0 0 5-7.76c1.864-.781 3.794-1.842 5.658-2.623a17.313 17.313 0 0 1 9.306-1.8l6.313.121a15.137 15.137 0 0 1 5.517.794 5.145 5.145 0 0 1 3.366 4.119 1.264 1.264 0 0 1-.4 1.156 1.491 1.491 0 0 1-.8.18c-1.728.054-2.47.488-4.214.549z" class="cls-1" data-name="Path 1081" transform="translate(-302.189 -159.064)"/>
        <path id="Path_1082" d="M516.331 307.063a1.847 1.847 0 0 0 .5-1.858 3.455 3.455 0 0 0-3.578.676 6.035 6.035 0 0 0-.958 1.267c-.83 1.353-1.563 2.97-1.082 4.483a1.273 1.273 0 0 0 .583.8 1.534 1.534 0 0 0 .679.106 22.767 22.767 0 0 0 2.734-.168c.557-.068 1.2-.225 1.419-.744.283-.681-.4-1.452-.2-2.162a2.365 2.365 0 0 1 .583-.835 1.1 1.1 0 0 0 .344-.927c-.081-.333-.591-.522-.774-.233" class="cls-1" data-name="Path 1082" transform="translate(-300.481 -203.415)"/>
        <path id="Path_1083" d="M529.431 295.512a7.647 7.647 0 0 0-2.477-.156 1.081 1.081 0 0 0-.528.12.881.881 0 0 0-.325.471 2.341 2.341 0 0 0 1.363 2.868 2.93 2.93 0 0 1 .845.339c.7.544.254 1.655.387 2.532.149.985 1.1 1.811.927 2.791-.138.772-.963 1.384-.83 2.157.139.81 1.167 1.053 1.986 1.118a2.5 2.5 0 0 0 1.407-.161 2.179 2.179 0 0 0 .888-1.286 8.239 8.239 0 0 0 .415-3.1 2.943 2.943 0 0 0-.35-1.37 7.643 7.643 0 0 0-.818-.936c-1.57-1.826.079-4.549-2.89-5.387z" class="cls-1" data-name="Path 1083" transform="translate(-308.843 -198.007)"/>
        <g id="Group_453" class="markers" data-name="Group 453" transform="translate(-.001 -.001)">
            <circle opacity="0" cx="50" cy="50" r="40" fill="#18B3F1" transform="translate(35.632 52.718)" />
            <circle opacity="0" cx="50" cy="50" r="40" fill="#18B3F1" transform="translate(204.632 128.718)" />
            <circle opacity="0" cx="50" cy="50" r="40" fill="#18B3F1" transform="translate(83.632 167.118)" />
            <circle opacity="0" cx="50" cy="50" r="40" fill="#18B3F1" transform="translate(285.632 52.718)" />
            <circle opacity="0" cx="50" cy="50" r="40" fill="#18B3F1" transform="translate(376.632 184.118)" />
            <path id="Path_1041" d="M22.5 2A17.487 17.487 0 0 0 5 19.5C5 32.625 22.5 52 22.5 52S40 32.625 40 19.5A17.487 17.487 0 0 0 22.5 2zm0 23.75a6.25 6.25 0 1 1 6.25-6.25 6.252 6.252 0 0 1-6.25 6.25z" class="cls-3" data-name="Path 1041" transform="translate(62.632 57.718)"/>
            <path id="Path_1113" d="M22.5 2A17.487 17.487 0 0 0 5 19.5C5 32.625 22.5 52 22.5 52S40 32.625 40 19.5A17.487 17.487 0 0 0 22.5 2zm0 23.75a6.25 6.25 0 1 1 6.25-6.25 6.252 6.252 0 0 1-6.25 6.25z" class="cls-3" data-name="Path 1113" transform="translate(110.632 170.718)"/>
            <path id="Path_1114" d="M22.5 2A17.487 17.487 0 0 0 5 19.5C5 32.625 22.5 52 22.5 52S40 32.625 40 19.5A17.487 17.487 0 0 0 22.5 2zm0 23.75a6.25 6.25 0 1 1 6.25-6.25 6.252 6.252 0 0 1-6.25 6.25z" class="cls-3" data-name="Path 1114" transform="translate(232.632 132.718)"/>
            <path id="Path_1115" d="M22.5 2A17.487 17.487 0 0 0 5 19.5C5 32.625 22.5 52 22.5 52S40 32.625 40 19.5A17.487 17.487 0 0 0 22.5 2zm0 23.75a6.25 6.25 0 1 1 6.25-6.25 6.252 6.252 0 0 1-6.25 6.25z" class="cls-3" data-name="Path 1115" transform="translate(311.632 57.718)"/>
            <path id="Path_1116" d="M22.5 2A17.487 17.487 0 0 0 5 19.5C5 32.625 22.5 52 22.5 52S40 32.625 40 19.5A17.487 17.487 0 0 0 22.5 2zm0 23.75a6.25 6.25 0 1 1 6.25-6.25 6.252 6.252 0 0 1-6.25 6.25z" class="cls-3" data-name="Path 1116" transform="translate(404.632 188.718)"/>
        </g>
    </g>
</svg>