<svg xmlns="http://www.w3.org/2000/svg" xmlns:xlink="http://www.w3.org/1999/xlink" width="500" height="372.13" viewBox="0 0 500 372.13">
    <defs>
        <style>
            .cls-1,.cls-23,.cls-3,.cls-8{fill:#007fff}.cls-1,.cls-12,.cls-21{opacity:.1}.cls-2,.cls-24{fill:none;stroke-miterlimit:10}.cls-2{stroke:#535461;stroke-width:2px}.cls-4{opacity:.25}.cls-5{fill:url(#linear-gradient)}.cls-6{fill:#f6f7f9}.cls-22,.cls-7,.cls-8{opacity:.2}.cls-9{fill:url(#linear-gradient-2)}.cls-10{fill:#cc818c}.cls-11{fill:#444053}.cls-13{opacity:.05}.cls-14{fill:#ff748f}.cls-15,.cls-17{fill:#575988}.cls-16{fill:#dce6f2}.cls-17{opacity:.5}.cls-18{fill:#67647e}.cls-19{fill:#585268}.cls-20{fill:#e4aab4}.cls-23{opacity:.4}.cls-24{stroke:#f6f7f9}.cls-25{fill:#ffd037}.cls-26{fill:#65617d}.cls-27{fill:#9d9cb5}
        </style>
        <linearGradient id="linear-gradient" x1=".5" x2=".5" y1="1" gradientUnits="objectBoundingBox">
            <stop offset="0" stop-color="gray" stop-opacity=".251"/>
            <stop offset=".54" stop-color="gray" stop-opacity=".122"/>
            <stop offset="1" stop-color="gray" stop-opacity=".102"/>
        </linearGradient>
        <linearGradient id="linear-gradient-2" x1="3.47" x2="3.47" y1="1" xlink:href="#linear-gradient"/>
    </defs>
    <g id="Group_11" data-name="Group 11" transform="translate(0 -13.619)">
        <path id="Path_36" d="M433.225 146.045c-20.815 13.165-47.814 12.308-71.47 5.465s-45.392-19.048-68.433-27.718a241.585 241.585 0 0 0-60.127-14.159c-29.377-3.038-62.185.66-82.651 21.943-22.794 23.705-21.047 66.463 3.609 88.214 12.539 11.067 28.963 16.5 43.28 25.138S225 267.919 223.791 284.6c-1.127 15.439-14.253 27.289-27.841 34.724-10.5 5.745-23.43 12.018-24.695 23.917-1.226 11.515 9.65 20.54 20.033 25.67 33.867 16.739 75.6 16.576 109.34-.423 12.037-6.065 23.1-14.13 35.728-18.856 33.143-12.411 69.668.084 104.766 4.652a231.038 231.038 0 0 0 89.11-5.864c17.384-4.638 34.832-11.727 47.041-24.936 8.8-9.526 14.277-21.579 19.437-33.478q8.242-19.043 15.838-38.352c3.043-7.729 6.031-15.607 6.819-23.878 1.423-14.981-4.574-29.79-12.736-42.438a126.639 126.639 0 0 0-187.58-28.471" class="cls-1" data-name="Path 36" transform="translate(-119.576 -83.855)"/>
        <ellipse id="Ellipse_3" cx="66.828" cy="13.066" class="cls-1" data-name="Ellipse 3" rx="66.828" ry="13.066" transform="translate(0 359.617)"/>
        <ellipse id="Ellipse_4" cx="140.085" cy="13.066" class="cls-1" data-name="Ellipse 4" rx="140.085" ry="13.066" transform="translate(125.271 332.327)"/>
        <path id="Path_37" d="M836.32 484.2s19.639-34.787 49.232-44.8a60.541 60.541 0 0 0 30.657-22.932 102.023 102.023 0 0 0 9.044-16.271" class="cls-2" data-name="Path 37" transform="translate(-475.876 -231.841)"/>
        <path id="Path_38" d="M1035.038 372.058c-3.373 3.269-19.068 6.651-19.068 6.651s3.85-15.582 7.222-18.856a8.5 8.5 0 0 1 11.845 12.2z" class="cls-3" data-name="Path 38" transform="translate(-567.081 -210.138)"/>
        <path id="Path_39" d="M1016.429 427.036c-4.6.911-19.619-4.78-19.619-4.78s11.7-10.989 16.311-11.9a8.5 8.5 0 1 1 3.308 16.685z" class="cls-3" data-name="Path 39" transform="translate(-557.354 -236.911)"/>
        <path id="Path_40" d="M956.024 489.43c-4.431-1.536-14.524-14.03-14.524-14.03s15.651-3.584 20.087-2.048a8.507 8.507 0 0 1-5.563 16.074z" class="cls-3" data-name="Path 40" transform="translate(-529.274 -268.786)"/>
        <path id="Path_41" d="M893.55 524.737c-4.633-.763-16.69-11.368-16.69-11.368s14.824-6.174 19.457-5.416a8.5 8.5 0 0 1-2.767 16.778z" class="cls-3" data-name="Path 41" transform="translate(-496.457 -286.512)"/>
        <path id="Path_42" d="M970.23 401.237c0 4.7 8.493 18.319 8.493 18.319s8.512-13.618 8.512-18.314a8.5 8.5 0 1 0-17 0z" class="cls-3" data-name="Path 42" transform="translate(-543.86 -228.053)"/>
        <path id="Path_43" d="M899.882 441.231c1.4 4.48 13.588 14.937 13.588 14.937s4.047-15.538 2.644-20.018a8.511 8.511 0 1 0-16.247 5.081z" class="cls-3" data-name="Path 43" transform="translate(-507.94 -247.059)"/>
        <path id="Path_44" d="M837.936 493.487c.64 4.657 10.88 17.025 10.88 17.025s6.617-14.627 5.992-19.284a8.5 8.5 0 1 0-16.857 2.265z" class="cls-3" data-name="Path 44" transform="translate(-476.665 -274.31)"/>
        <path id="Path_45" d="M1035.038 372.058c-3.373 3.269-19.068 6.651-19.068 6.651s3.85-15.582 7.222-18.856a8.5 8.5 0 0 1 11.845 12.2z" class="cls-4" data-name="Path 45" transform="translate(-567.081 -210.138)"/>
        <path id="Path_46" d="M1016.429 427.036c-4.6.911-19.619-4.78-19.619-4.78s11.7-10.989 16.311-11.9a8.5 8.5 0 1 1 3.308 16.685z" class="cls-4" data-name="Path 46" transform="translate(-557.354 -236.911)"/>
        <path id="Path_47" d="M956.024 489.43c-4.431-1.536-14.524-14.03-14.524-14.03s15.651-3.584 20.087-2.048a8.507 8.507 0 0 1-5.563 16.074z" class="cls-4" data-name="Path 47" transform="translate(-529.274 -268.786)"/>
        <path id="Path_48" d="M893.55 524.737c-4.633-.763-16.69-11.368-16.69-11.368s14.824-6.174 19.457-5.416a8.5 8.5 0 0 1-2.767 16.778z" class="cls-4" data-name="Path 48" transform="translate(-496.457 -286.512)"/>
        <path id="Path_49" d="M970.23 401.237c0 4.7 8.493 18.319 8.493 18.319s8.512-13.618 8.512-18.314a8.5 8.5 0 1 0-17 0z" class="cls-4" data-name="Path 49" transform="translate(-543.86 -228.053)"/>
        <path id="Path_50" d="M899.882 441.231c1.4 4.48 13.588 14.937 13.588 14.937s4.047-15.538 2.644-20.018a8.511 8.511 0 1 0-16.247 5.081z" class="cls-4" data-name="Path 50" transform="translate(-507.94 -247.059)"/>
        <path id="Path_51" d="M837.936 493.487c.64 4.657 10.88 17.025 10.88 17.025s6.617-14.627 5.992-19.284a8.5 8.5 0 1 0-16.857 2.265z" class="cls-4" data-name="Path 51" transform="translate(-476.665 -274.31)"/>
        <path id="Path_52" d="M838.61 453.065s3.86-39.76 26.832-60.905a60.257 60.257 0 0 0 18.708-33.389 101.857 101.857 0 0 0 1.679-18.541" class="cls-2" data-name="Path 52" transform="translate(-477.039 -201.395)"/>
        <path id="Path_53" d="M946.951 301.268c-1.753 4.357-14.73 13.785-14.73 13.785s-2.8-15.809-1.039-20.185a8.5 8.5 0 0 1 15.754 6.356z" class="cls-3" data-name="Path 53" transform="translate(-523.741 -175.839)"/>
        <path id="Path_54" d="M950.05 356.721c-3.84 2.7-19.87 3.584-19.87 3.584s6.243-14.77 10.088-17.492a8.5 8.5 0 1 1 9.783 13.908z" class="cls-3" data-name="Path 54" transform="translate(-523.527 -201.92)"/>
        <path id="Path_55" d="M916.074 438.434c-4.677.394-18.964-6.937-18.964-6.937s12.859-9.615 17.542-10.009a8.5 8.5 0 0 1 1.423 16.946z" class="cls-3" data-name="Path 55" transform="translate(-506.738 -242.633)"/>
        <path id="Path_56" d="M874.515 495.74c-4.544 1.177-19.865-3.633-19.865-3.633s11.048-11.653 15.6-12.83a8.5 8.5 0 0 1 4.268 16.463z" class="cls-3" data-name="Path 56" transform="translate(-485.182 -271.847)"/>
        <path id="Path_57" d="M895.1 355.773c1.9 4.293 15.188 13.293 15.188 13.293s2.265-15.892.364-20.185a8.506 8.506 0 1 0-15.552 6.892z" class="cls-3" data-name="Path 57" transform="translate(-505.344 -203.217)"/>
        <path id="Path_58" d="M847.011 420.874c3.1 3.525 18.477 8.148 18.477 8.148s-2.6-15.843-5.7-19.373a8.512 8.512 0 1 0-12.8 11.225z" class="cls-3" data-name="Path 58" transform="translate(-480.222 -235.166)"/>
        <path id="Path_59" d="M811.562 493.75c2.462 4 16.832 11.156 16.832 11.156s.118-16.055-2.339-20.057a8.5 8.5 0 0 0-14.494 8.9z" class="cls-3" data-name="Path 59" transform="translate(-462.668 -272.756)"/>
        <path id="Path_60" d="M281.84 0v333.694h249.8V0z" class="cls-5" data-name="Path 60" transform="translate(-143.084 13.619)"/>
        <path id="Rectangle_297" d="M0 0h245.423v327.98H0z" class="cls-6" data-name="Rectangle 297" transform="translate(140.947 16.286)"/>
        <g id="Group_2" class="cls-7" data-name="Group 2" transform="translate(184.749 36.506)">
            <path id="Rectangle_298" d="M0 0h157.814v6.179H0z" class="cls-3" data-name="Rectangle 298"/>
        </g>
        <path id="Rectangle_299" d="M0 0h20.968v6.179H0z" class="cls-3" data-name="Rectangle 299" transform="translate(321.595 36.506)"/>
        <g id="Group_3" class="cls-7" data-name="Group 3" transform="translate(164.342 162.771)">
            <path id="Rectangle_300" d="M0 0h198.622v71.136H0z" class="cls-8" data-name="Rectangle 300" transform="translate(.005)"/>
            <path id="Path_61" d="M636.627 388.86h-5.908v.492h5.908zm-11.816 0H618.9v.492h5.908zm-11.816 0h-5.908v.492H613zm-11.816 0h-5.908v.492h5.908zm-11.816 0h-5.908v.492h5.908zm-11.816 0h-5.908v.492h5.908zm-11.816 0h-5.908v.492h5.908zm-11.816 0h-5.908v.492h5.908zm-11.816 0h-5.908v.492h5.909zm-11.816 0h-5.908v.492h5.908zm-11.816 0h-5.908v.492h5.908zm-11.816 0h-5.908v.492h5.908zm-11.816 0h-5.908v.492h5.908zm-11.816 0h-5.908v.492h5.908zm-11.816 0H465.3v.492h5.908zm-11.816 0h-5.908v.492h5.908zm-11.816 0h-5.908v.492h5.908zm-9.083 2.245H438v5.908h.492zm0 11.816H438v5.908h.492zm0 11.816H438v5.908h.492zm0 11.816H438v5.908h.492zm0 11.816H438v5.908h.492zm0 11.816H438v5.908h.492zm7.414 9.32H440V460h5.908zm11.816 0h-5.908V460h5.908zm11.816 0h-5.904V460h5.908zm11.816 0h-5.908V460h5.908zm11.816 0h-5.908V460h5.908zm11.816 0h-5.908V460h5.908zm11.816 0h-5.908V460h5.91zm11.816 0h-5.908V460h5.908zm11.816 0h-5.908V460h5.908zm11.816 0h-5.906V460h5.908zm11.816 0h-5.908V460h5.908zm11.816 0h-5.908V460h5.908zm11.816 0h-5.908V460h5.914zm11.816 0h-5.91V460h5.908zm11.816 0h-5.908V460h5.908zm11.816 0h-5.908V460h5.908zm11.816 0h-5.908V460h5.908zm1.664-9.659h-.492v5.908h.492zm0-11.816h-.492v5.908h.492zm0-11.816h-.492v5.908h.492zm0-11.816h-.492v5.902h.492zm0-11.816h-.492v5.908h.492zm0-11.816h-.492v5.908h.492z" class="cls-3" data-name="Path 61" transform="translate(-438 -388.855)"/>
        </g>
        <path id="Path_62" d="M118.02 406.312s2.1 5.332 1.344 6.641c0 0 .379 3.939 5.46 6.641s10.831 9.167 10.831 9.167a6.893 6.893 0 0 0 4.529 3.131c.049.62.084.985.084.985l.266.113c-.059.217-.118.443-.177.674a38.754 38.754 0 0 0-.4 1.7c-.842 3.835-1.349 8.591.35 11.264a9.311 9.311 0 0 1 .62 1.127c2.294 4.864.724 10.969.724 10.969s2.009 13.844 2.885 16.089c.625 1.59.049 3.811-.34 4.968a5.543 5.543 0 0 0-.286 1.723v4.923s-.985 4.116-.492 5.238-.876 4.244-.876 4.244-3.264 13.593-1.886 15.838 1.255 7.232 1.255 7.232 2.634 19.457 3.643 20.185a11.99 11.99 0 0 1 2.132 2.5s-1.792 4.406-.714 6.223a1.247 1.247 0 0 0 .089.133 26.369 26.369 0 0 0-.881 2.654 12.34 12.34 0 0 0-.226 1.123 14.28 14.28 0 0 0-.192 2.5l-.079.069.084.074a4.139 4.139 0 0 0 .162 1.1c.374 1.123 3.2 1.123 3.2 1.123a60.3 60.3 0 0 1 7.311 2.56 5 5 0 0 0 3.8.527c5.179 1.187 11.816-.871 13.839-1.275s2.8-2.993.31-3.5a5.3 5.3 0 0 1-.926-.281 7.572 7.572 0 0 1-3.116-2.486 63.055 63.055 0 0 0-5.288-4.524 15.44 15.44 0 0 1-3.313-3.333 3.446 3.446 0 0 0-1.871-.926 2.009 2.009 0 0 0-.418-2.506 2.033 2.033 0 0 0-.576-2.526l-.93-.719.217-.251a2.028 2.028 0 0 0 .187-2.388 8.671 8.671 0 0 1-.9-3.968c-.256-4.864-1.507-6.735-1.507-6.735l.753-22.2a31.292 31.292 0 0 1 0-3.614c.123-1.374 2.462-.492 2.821-.842s.438-2.151 1.442-2.654a2.806 2.806 0 0 0 .911-1.536 8.906 8.906 0 0 0 .256-4.332 2.545 2.545 0 0 1 .463-1.969c1.132-1.477.753-6.607.753-6.607l1.738-10.693c2.757 9.073 6.267 20 7.429 20.8a3.572 3.572 0 0 1 1.753 3.24c-1.63 2-.985 10.6-.985 10.6s0 23.819 1.177 25.443a60.941 60.941 0 0 1 3.446 6.607s-6.7 5.908-1.477 8.926l.222 2.521a.778.778 0 0 0-.084.108 4.88 4.88 0 0 0-.985 2.063l-.034.039c-.094.8.256 1.58 1.728 1.91 3.52.778 15.818.719 15.818.719l6.893 1.088s11.816 1.122 13.145-2.526-1.034-3.446-1.034-3.446h-.094l-4.923-.394s-6.243-2.4-8.537-4.057a49.14 49.14 0 0 1-5.11-4.554 1.994 1.994 0 0 0-1.3.241l-.212-.212-.34-.34 1.295-1.969c1.295-2.245-3.786-6.489-3.786-6.489s1.359-5.238.857-5.484-.832-5-.832-5 1.236-17.231.734-18.831a2.527 2.527 0 0 1 .6-2.147 5.337 5.337 0 0 0 .985-3.343 3.942 3.942 0 0 1 .822-2.865c1.507-1.625 0-8.606 0-8.606l-1.251-9.231V460.03a23.209 23.209 0 0 0-1.541-8.256 23.513 23.513 0 0 1-1.27-5.686l.418.123a1.744 1.744 0 0 1-.443-.364c-.025-.236-.054-.492-.074-.714-.4-4.618-2.846-9.1-4.564-11.747-.394-1.546.044-7.99.044-7.99 1.969-3.368.094-8.232.094-8.232s-1.969-23.011-3.2-26.192-1.787-22.918 1.132-22.731 21.741-9.354 21.741-9.354-.468-.748 5.745-3.274 15.262-10.383 15.262-10.383l12.52-14.967a.316.316 0 0 1-.138 0l.256-.084a10.6 10.6 0 0 0 6.568-5.642c2.166-4.756-2.171-11.19-5.012-14.08L235.818 309c-.724.6-.458 3.22-1.639 6.031a64.4 64.4 0 0 0-2.462 7.68l-.128.492-.118-.217-6.582 5.214-6.213 5.051s-13.746 6.641-15.439 8.325-2.26 1.216-3.761 1.59-1.7 1.4-2.166 1.31-1.319 1.31-1.969 1.122-2.068.561-3.013.748-7.631 3.023-7.631 3.023c-4.145-2.058-15.346-1.216-15.346-1.216s-3.673-2.151-4.707 0a3.555 3.555 0 0 1-3.2 2.058l-4.465-1.9a1.273 1.273 0 0 1 .034-.359v-.074c.034-.281.079-.546.123-.8a14.834 14.834 0 0 0 5.125-24.183l-.389-.374a6.511 6.511 0 0 0 1.285-.8.684.684 0 0 0 .276-.35.389.389 0 0 0-.039-.3.891.891 0 0 0-.492-.546c-1.359-.734-2.86-.492-4.037-1.669a2.639 2.639 0 0 1-.615-.95 1.846 1.846 0 0 1 0-1.187c.33-.876 1.393-1.477 1.329-2.422h-.044v-.162a8.37 8.37 0 0 1-3.515.6l.222-.985h.084l.118-.522-.084.025.034-.167-3.308.886a.832.832 0 0 1-.743-.044 1.246 1.246 0 0 1-.256-.517 1.615 1.615 0 0 0-1.93-.719 8.032 8.032 0 0 0-1.969 1.078c-2.142 1.3-4.756 1.477-7.247 1.792s-5.14.852-6.893 2.644c-2.324 2.393-2.294 6.159-3.747 9.157a8.1 8.1 0 0 0-.665 1.511 5.908 5.908 0 0 0 .039 2.388 17.529 17.529 0 0 0 1.969 6.671l-.133-.158a8.893 8.893 0 0 0 .492.768c.881 1.241 2.122 2.25 3.062 3.446-.059-.113-.133-.217-.2-.33a6.72 6.72 0 0 1 1.231 2.043c.325.926.394 1.969.783 2.846a3.077 3.077 0 0 0 .561.935 2.846 2.846 0 0 0 2.383.817 20.455 20.455 0 0 1-1.477 3.072l-.074.128a2.342 2.342 0 0 0-.738.084c-1.093.2-4.835 3.417-4.835 3.417l-6.681 5.908c-10.073 7.877-7.813 20.111-7.813 20.111v6.2a26.185 26.185 0 0 0 0 13.293zm20.235-54.77zm-5.524 54.864s3.486-2.806 2.26-4.49a6.042 6.042 0 0 1-.586-2.954l4.539 10.083s2.732 4.4 1.319 6.361v.034l-5.416-6.3s-.23-2.734-2.116-2.734z" class="cls-9" data-name="Path 62" transform="translate(-110.862 -185.54)"/>
        <path id="Path_63" d="M347.23 327.978l2.954 5.765a11.633 11.633 0 0 0 2.762-.576 10.481 10.481 0 0 0 6.484-5.608c2.649-5.859-4.554-14.277-6.6-15.38s-1.118 2.23-2.649 5.908a63.115 63.115 0 0 0-2.408 7.631 159.97 159.97 0 0 0-.543 2.26z" class="cls-10" data-name="Path 63" transform="translate(-227.576 -187.046)"/>
        <path id="Path_64" d="M155.69 386.32l4.741 7.065s22.4 10.688 18.127-1.856c-1.886-5.529-2.112-9.581-1.772-12.377a.436.436 0 0 0 0-.079 9.952 9.952 0 0 1 1.763-5.022s-21.839-11.176-18.59-3.53a10.556 10.556 0 0 1 .807 5.032 17.187 17.187 0 0 1-2.353 6.976 22.965 22.965 0 0 1-2.723 3.791z" class="cls-10" data-name="Path 64" transform="translate(-130.335 -215.416)"/>
        <path id="Path_65" d="M166.066 621.335s-3.225 13.5-1.861 15.754 1.236 7.188 1.236 7.188 2.6 19.333 3.6 20.077a12 12 0 0 1 2.107 2.462s-1.772 4.377-.709 6.184a1.477 1.477 0 0 0 .709.63c1.659.7 7.793-2.408 11.289-4.313a2 2 0 0 0 .359-3.245 2.038 2.038 0 0 0-.571-2.511l-.916-.714.212-.251a2.038 2.038 0 0 0 .187-2.373 8.566 8.566 0 0 1-.9-3.939c-.246-4.83-1.477-6.691-1.477-6.691l.734-22.081a32.168 32.168 0 0 1 0-3.594c.123-1.364 2.417-.463 2.791-.837s.428-2.137 1.423-2.634a2.817 2.817 0 0 0 .9-1.526 8.965 8.965 0 0 0 .251-4.3 2.536 2.536 0 0 1 .458-1.969c1.113-1.477.743-6.568.743-6.568l1.713-10.624c2.723 9.014 6.188 19.875 7.336 20.677a3.606 3.606 0 0 1 1.733 3.22c-1.61 1.969-.985 10.541-.985 10.541s0 23.666 1.162 25.281a63.348 63.348 0 0 1 3.446 6.563s-6.641 5.908-1.418 8.891l.054.034c5.332 2.954 16.365-5.327 16.365-5.327l-1.157-1.152-.335-.34 1.28-1.969c1.28-2.23-3.737-6.444-3.737-6.444s1.339-5.209.847-5.455-.847-4.958-.847-4.958 1.216-17.1.724-18.708a2.526 2.526 0 0 1 .586-2.132 5.3 5.3 0 0 0 .95-3.323 3.928 3.928 0 0 1 .817-2.846c1.477-1.615 0-8.552 0-8.552l-1.241-9.172V585.7a23.2 23.2 0 0 0-1.477-8.2 24.773 24.773 0 0 1-1.4-6.6c-.4-4.7-2.954-9.266-4.628-11.865-.9-1.374-1.571-2.2-1.571-2.2L165.2 555.28s-.65 1.763-1.275 4.224c-.138.532-.276 1.1-.4 1.689-.827 3.811-1.329 8.532.35 11.19a9.561 9.561 0 0 1 .61 1.122c2.27 4.83.719 10.9.719 10.9s1.969 13.755 2.846 15.986c.615 1.58.049 3.786-.335 4.923a5.5 5.5 0 0 0-.281 1.713v4.879s-.985 4.091-.492 5.2-.876 4.229-.876 4.229z" class="cls-11" data-name="Path 65" transform="translate(-133.922 -310.571)"/>
        <path id="Path_66" d="M164.625 579.21a10.241 10.241 0 0 1 .6 1.1l2.235-.128c-.217-1.147 1.3-11.929 1.3-11.929l-4.489-.253c-.827 3.83-1.329 8.552.354 11.21z" class="cls-12" data-name="Path 66" transform="translate(-134.303 -317.029)"/>
        <path id="Path_67" d="M163.857 578.461a9.558 9.558 0 0 1 .61 1.122l2.235-.128c-.217-1.147 1.3-11.929 1.3-11.929l-4.495-.256c-.816 3.806-1.319 8.537.35 11.191z" class="cls-11" data-name="Path 67" transform="translate(-133.919 -316.658)"/>
        <path id="Path_68" d="M163.857 578.461a9.558 9.558 0 0 1 .61 1.122l2.235-.128c-.217-1.147 1.3-11.929 1.3-11.929l-4.495-.256c-.816 3.806-1.319 8.537.35 11.191z" class="cls-13" data-name="Path 68" transform="translate(-133.919 -316.658)"/>
        <path id="Path_69" d="M178.36 789.414a1.476 1.476 0 0 0 .709.63c1.659.7 7.793-2.407 11.289-4.313a1.969 1.969 0 0 0 .926-1.1c-1.969-.364-3.294 1.851-3.294 1.851a2.954 2.954 0 0 0-4.086.985c-1.708 2.511-5.361 1.452-5.361 1.452s-.075.194-.183.495z" class="cls-12" data-name="Path 69" transform="translate(-141.844 -426.986)"/>
        <path id="Path_70" d="M176.1 797.415c.374 1.113 3.161 1.113 3.161 1.113a58.9 58.9 0 0 1 7.222 2.545 4.889 4.889 0 0 0 3.747.522c5.11 1.182 11.683-.867 13.662-1.265s2.757-2.954.31-3.446a5.065 5.065 0 0 1-.916-.281 7.443 7.443 0 0 1-3.047-2.462 62.929 62.929 0 0 0-5.219-4.519 15.187 15.187 0 0 1-3.274-3.313c-2.91-2.57-4.987.985-4.987.985a2.954 2.954 0 0 0-4.086.985c-1.708 2.506-5.361 1.447-5.361 1.447s-.655 1.679-.96 2.885c-.079.305-.158.689-.226 1.118a9.671 9.671 0 0 0-.026 3.686z" class="cls-14" data-name="Path 70" transform="translate(-140.61 -427.386)"/>
        <circle id="Ellipse_8" cx=".34" cy=".34" r=".34" class="cls-15" data-name="Ellipse 8" transform="translate(43.669 361.507)"/>
        <circle id="Ellipse_9" cx=".34" cy=".34" r=".34" class="cls-15" data-name="Ellipse 9" transform="translate(46.579 364.235)"/>
        <circle id="Ellipse_10" cx=".34" cy=".34" r=".34" class="cls-15" data-name="Ellipse 10" transform="translate(49.537 366.681)"/>
        <circle id="Ellipse_11" cx=".34" cy=".34" r=".34" class="cls-15" data-name="Ellipse 11" transform="translate(48.006 365.588)"/>
        <circle id="Ellipse_12" cx=".34" cy=".34" r=".34" class="cls-15" data-name="Ellipse 12" transform="translate(45.062 362.782)"/>
        <path id="Path_71" d="M176.1 806.022c.374 1.113 3.161 1.113 3.161 1.113a58.9 58.9 0 0 1 7.222 2.545 4.889 4.889 0 0 0 3.747.522c5.11 1.182 11.683-.867 13.662-1.265s2.757-2.954.31-3.446a5.065 5.065 0 0 1-.916-.281 23.949 23.949 0 0 1-6.705 1.27c-5.051.217-9.049 0-9.049 0l-5.11-1.644a8.629 8.629 0 0 0-3.161-1.142 8.2 8.2 0 0 1-3.136-1.364 9.7 9.7 0 0 0-.025 3.692z" class="cls-16" data-name="Path 71" transform="translate(-140.61 -435.993)"/>
        <path id="Path_72" d="M188.758 811.573a4.288 4.288 0 0 0 .847-.084l-.074-.364a5.415 5.415 0 0 1-3.062-.428c-.458-.177-.911-.394-1.354-.6a22.077 22.077 0 0 0-1.615-.7l-.492-.177c-.276-.094-.561-.187-.827-.3-.158-.064-.305-.138-.458-.212a5.106 5.106 0 0 0-1.147-.433 5.471 5.471 0 0 0-.625-.084 5.206 5.206 0 0 1-.566-.069 5 5 0 0 1-1.073-.4 5.377 5.377 0 0 0-1.152-.428l-.276-.044a1.31 1.31 0 0 1-.8-.3l-.276.251a1.62 1.62 0 0 0 1.014.409l.261.044a5.58 5.58 0 0 1 1.073.4 5.132 5.132 0 0 0 1.152.428 5.3 5.3 0 0 0 .611.074 5.319 5.319 0 0 1 .581.079 4.632 4.632 0 0 1 1.063.409 9.874 9.874 0 0 0 1.325.527l.492.172c.537.2 1.068.448 1.585.689s.906.428 1.378.61a6.605 6.605 0 0 0 2.415.531z" class="cls-17" data-name="Path 72" transform="translate(-140.55 -438.339)"/>
        <path id="Path_73" d="M186.008 686.96a9.1 9.1 0 0 0-6.971-3.687 25.989 25.989 0 0 1-6.287-.492 15.737 15.737 0 0 0 4.771 1.891 83.6 83.6 0 0 1 8.487 2.288z" class="cls-12" data-name="Path 73" transform="translate(-138.996 -375.3)"/>
        <path id="Path_74" d="M190.355 691.081s-2.324-1.61-3.653-1.674-2.462-.187-2.462-.187a7.16 7.16 0 0 0 2.043.985c1.098.334 4.072.876 4.072.876z" class="cls-12" data-name="Path 74" transform="translate(-144.83 -378.57)"/>
        <path id="Path_75" d="M192.01 695.3s-3.5.276-3.53 1.206" class="cls-12" data-name="Path 75" transform="translate(-146.982 -381.656)"/>
        <path id="Path_76" d="M255.851 582.4c-.182.034-3.313-3.249-3.53-4.554a3.176 3.176 0 0 0-1.364-2s-2.014.807-.217 3.279a9.944 9.944 0 0 0 5.111 3.275z" class="cls-12" data-name="Path 76" transform="translate(-178.212 -321.014)"/>
        <path id="Path_77" d="M164.04 370.521c.714 1.684 1.339 1.812 1.206 3.446a12.333 12.333 0 0 0 2.836 2.23c2.215 1.315 4.628 3.889 7.385 3.889a14.652 14.652 0 0 0 5.416-1.019 9.951 9.951 0 0 1 1.763-5.022s-21.855-11.17-18.606-3.524z" class="cls-12" data-name="Path 77" transform="translate(-134.407 -215.415)"/>
        <path id="Path_78" d="M157.58 345.97a14.77 14.77 0 1 0 14.77-14.77 14.77 14.77 0 0 0-14.77 14.77z" class="cls-10" data-name="Path 78" transform="translate(-131.295 -196.811)"/>
        <path id="Path_79" d="M155.69 397.978l4.741 7.065s22.4 10.688 18.127-1.856c-1.886-5.529-2.112-9.581-1.772-12.377h-.034a11.713 11.713 0 0 0-.448 2.846c-.069 1.93-.118 4.367-4.923 5.174a13.366 13.366 0 0 1-13.012-4.628 22.968 22.968 0 0 1-2.678 3.776z" class="cls-12" data-name="Path 79" transform="translate(-130.335 -227.074)"/>
        <path id="Path_80" d="M347.23 342.043l2.954 5.765a11.635 11.635 0 0 0 2.762-.576l.256-.31c-1.206.463-5.3-7.252-5.3-7.252l-.128.1a177.896 177.896 0 0 0-.544 2.273z" class="cls-12" data-name="Path 80" transform="translate(-227.576 -201.111)"/>
        <path id="Path_81" d="M165.13 559.494c9.566 4.15 42.665.61 42.665.61a4.2 4.2 0 0 1-.167-1.083c-.9-1.374-1.571-2.2-1.571-2.2l-39.652-1.551s-.65 1.762-1.275 4.224z" class="cls-12" data-name="Path 81" transform="translate(-135.128 -310.566)"/>
        <path id="Path_82" d="M158.808 365.588l4.431 1.891a3.505 3.505 0 0 0 3.161-2.048c1.024-2.137 4.648 0 4.648 0s11.062-.837 15.149 1.211c0 0 6.6-2.792 7.533-2.954s2.324-.93 2.954-.743 1.477-1.211 1.969-1.118.65-.93 2.142-1.3 2.043.094 3.717-1.58 15.262-8.271 15.262-8.271l6.095-5.041 6.5-5.2s4.091 7.715 5.3 7.247l-12.358 14.868s-8.926 7.808-15.06 10.339-5.667 3.249-5.667 3.249-18.59 9.482-21.475 9.3-2.324 19.422-1.109 22.583 3.171 26 3.171 26 1.856 4.835-.094 8.182c0 0-.463 6.893 0 8.084 0 0-33.306 3.564-42.758-.65 0 0-1.393-15.429 0-17.379s-1.3-6.321-1.3-6.321l-5.947-13.293-14.5-14.592s-2.23-12.175 7.715-19.983l6.587-5.854s3.692-3.2 4.771-3.4.684 0 .684 0a13.314 13.314 0 0 0 13.135 4.79c4.785-.807 4.84-3.249 4.923-5.174a11.943 11.943 0 0 1 .423-2.851z" class="cls-18" data-name="Path 82" transform="translate(-112.397 -201.497)"/>
        <path id="Path_83" d="M161.55 493.16s20.45.84 24.537 7.252c0 0-5.3-2.511-10.038-1.767s-14.499-5.485-14.499-5.485z" class="cls-12" data-name="Path 83" transform="translate(-133.31 -279.034)"/>
        <path id="Path_84" d="M193.23 533.867s-9.664.65-11.712-1.393-2.048-3.254-2.048-3.254z" class="cls-12" data-name="Path 84" transform="translate(-142.408 -297.341)"/>
        <path id="Path_85" d="M155.757 453.14s8.182 9.664-1.767 13.849z" class="cls-12" data-name="Path 85" transform="translate(-129.472 -258.717)"/>
        <path id="Path_86" d="M251.34 415.19s-2.954 6.07-4.46 6.474z" class="cls-12" data-name="Path 86" transform="translate(-176.631 -239.451)"/>
        <path id="Path_87" d="M267.227 409.9s-7.434 6.7-8.827 7.345c0 0 7.715-7.345 8.827-7.345z" class="cls-12" data-name="Path 87" transform="translate(-182.479 -236.765)"/>
        <path id="Path_88" d="M216.11 396.88s7.153 10.688 2.506 17.192c0 0 2.604-7.715-2.506-17.192z" class="cls-12" data-name="Path 88" transform="translate(-161.009 -230.155)"/>
        <path id="Path_89" d="M179.47 555.187l2.186 2.058.305.286 2.535 2.393c.182.138.359.276.537.4 10.314 7.385 12.382-3.835 12.382-3.835s4.554 2.954 5.2.556-10.58-5.854-12.269-5.667a1.978 1.978 0 0 1-.448 0 7.292 7.292 0 0 1-2.309-.817l-.492-.271c-.94-.527-1.669-1.049-1.669-1.049z" class="cls-10" data-name="Path 89" transform="translate(-142.408 -307.505)"/>
        <path id="Path_90" d="M156.83 345.94a14.77 14.77 0 0 0 7.217 12.7 8.427 8.427 0 0 0 .542-1.073c.532-1.241.852-2.56 1.388-3.8a11.722 11.722 0 0 1 2.486-3.619 1.546 1.546 0 0 1 .655-.453 1.8 1.8 0 0 1 1.359.374 6.2 6.2 0 0 0 2.058.906 2.215 2.215 0 0 0 2.068-.625 3.119 3.119 0 0 0 .33-2.58 31.435 31.435 0 0 1-.985-5.77 5.656 5.656 0 0 1 2.462-5.032c1.477-.857 3.363-.64 5.027-1.1a6 6 0 0 0 .758-.261 14.77 14.77 0 0 0-25.359 10.339z" class="cls-12" data-name="Path 90" transform="translate(-130.914 -196.781)"/>
        <path id="Path_91" d="M176.453 327.364c.271.143.561.4.492.694a.664.664 0 0 1-.271.345 6.369 6.369 0 0 1-2.339 1.2c-1.664.453-3.53.241-5.032 1.093a5.723 5.723 0 0 0-2.462 5.031 30.554 30.554 0 0 0 .985 5.77 3.1 3.1 0 0 1-.325 2.58 2.206 2.206 0 0 1-2.068.625 6.158 6.158 0 0 1-2.063-.9 1.792 1.792 0 0 0-1.354-.379 1.688 1.688 0 0 0-.66.453 11.815 11.815 0 0 0-2.456 3.624c-.542 1.231-.862 2.55-1.388 3.791a6.144 6.144 0 0 1-2.486 3.092 3.118 3.118 0 0 1-3.722-.394c-.906-.995-.842-2.393-1.27-3.609-.738-2.107-2.8-3.446-4.091-5.248-1.443-2.048-1.861-4.623-2.235-7.094a5.844 5.844 0 0 1-.039-2.373 8.665 8.665 0 0 1 .655-1.506c1.433-2.954 1.408-6.715 3.7-9.093 1.718-1.782 4.332-2.329 6.794-2.629s5.041-.492 7.153-1.777a7.648 7.648 0 0 1 1.94-1.073 1.554 1.554 0 0 1 1.9.714 1.275 1.275 0 0 0 .256.517.8.8 0 0 0 .729.039l3.274-.876-.374 1.649a8.138 8.138 0 0 0 3.446-.6c.064.93-.985 1.536-1.315 2.407a2.23 2.23 0 0 0 .64 2.265c1.165 1.16 2.646.944 3.986 1.662z" class="cls-19" data-name="Path 91" transform="translate(-124.178 -190.878)"/>
        <path id="Path_92" d="M237.31 781.427l.133 1.477.054.034c5.332 2.954 16.365-5.327 16.365-5.327l-1.162-1.151a2.043 2.043 0 0 0-.492 1.556l-2.25.123-2.7 2.91s-7.286.847-9.261.374z" class="cls-12" data-name="Path 92" transform="translate(-171.772 -422.86)"/>
        <path id="Path_93" d="M237.426 789.5c3.471.773 15.621.714 15.621.714l6.814 1.083s11.678 1.113 12.978-2.511-1.024-3.407-1.024-3.407h-.089l-4.864-.394s-6.164-2.388-8.429-4.032a49.135 49.135 0 0 1-5.051-4.524s-2.028-.394-1.994 1.969l-2.25.123-2.7 2.915s-7.286.842-9.261.369h-.677l.315 3.594-.089.108c-.457.542-2.396 3.285.7 3.993z" class="cls-14" data-name="Path 93" transform="translate(-170.958 -422.829)"/>
        <circle id="Ellipse_13" cx=".34" cy=".34" r=".34" class="cls-15" data-name="Ellipse 13" transform="translate(78.708 357.288)"/>
        <circle id="Ellipse_14" cx=".34" cy=".34" r=".34" class="cls-15" data-name="Ellipse 14" transform="translate(87.446 361.079)"/>
        <circle id="Ellipse_15" cx=".34" cy=".34" r=".34" class="cls-15" data-name="Ellipse 15" transform="translate(91.946 362.442)"/>
        <circle id="Ellipse_16" cx=".34" cy=".34" r=".34" class="cls-15" data-name="Ellipse 16" transform="translate(85.152 360.355)"/>
        <circle id="Ellipse_17" cx=".34" cy=".34" r=".34" class="cls-15" data-name="Ellipse 17" transform="translate(89.706 361.763)"/>
        <circle id="Ellipse_18" cx=".34" cy=".34" r=".34" class="cls-15" data-name="Ellipse 18" transform="translate(82.833 359.277)"/>
        <circle id="Ellipse_19" cx=".34" cy=".34" r=".34" class="cls-15" data-name="Ellipse 19" transform="translate(80.544 358.282)"/>
        <path id="Path_94" d="M237.426 798.748c3.471.773 15.621.714 15.621.714l6.814 1.083s11.678 1.113 12.978-2.511-1.024-3.407-1.024-3.407h-.089c-.748.96-2.24 2.058-5.174 2.112l-8.4.34-8.7-.62s-8.148-.246-9.477-.522a19.539 19.539 0 0 1-3.249-1.2c-.457.563-2.396 3.307.7 4.011z" class="cls-16" data-name="Path 94" transform="translate(-170.958 -432.082)"/>
        <path id="Path_95" d="M259.2 801.736a5.34 5.34 0 0 0 1.379-.172l-.1-.359a6.758 6.758 0 0 1-3.446-.158c-.414-.1-.822-.226-1.226-.35a19.116 19.116 0 0 0-2.27-.571 18.887 18.887 0 0 0-3.761-.108h-.266a57.99 57.99 0 0 1-11.161-.492 4.227 4.227 0 0 1-2.383-.955l-.266.256a4.483 4.483 0 0 0 2.59 1.063 57.608 57.608 0 0 0 11.235.492h.266a18.476 18.476 0 0 1 3.687.108 18.1 18.1 0 0 1 2.22.561c.414.123.827.241 1.241.35a9.113 9.113 0 0 0 2.261.335z" class="cls-17" data-name="Path 95" transform="translate(-170.955 -434.084)"/>
        <path id="Path_96" d="M179.47 555.182l2.186 2.058 5.416-6.961c-.94-.527-1.669-1.049-1.669-1.049z" class="cls-12" data-name="Path 96" transform="translate(-142.408 -307.5)"/>
        <path id="Path_97" d="M124.141 445.4l-4.273 5.947v6.228a25.827 25.827 0 0 0 0 13.2l-.217 5.76s2.073 5.3 1.329 6.6c0 0 .374 3.9 5.391 6.6s10.688 9.133 10.688 9.133 2.142 4.091 7.9 3.161l5.484 2.324 6.321-8.084-8.552-4.648s-2.954-4-4.741-3.811l-7.247-8.483s-.182-2.7-2.043-2.7c0 0 3.446-2.787 2.23-4.46s-.187-9.108-.187-9.108z" class="cls-18" data-name="Path 97" transform="translate(-111.705 -254.788)"/>
        <path id="Path_98" d="M134.267 500.308s-9.763-.182-10.969 2.324 7.996-3.718 10.969-2.324z" class="cls-12" data-name="Path 98" transform="translate(-113.836 -282.558)"/>
        <path id="Path_99" d="M184.45 558.4a2.677 2.677 0 0 0 .039.492 3.284 3.284 0 0 0 3.072 2.791h.177a3.279 3.279 0 0 0 3.279-3.284 3.2 3.2 0 0 0-.182-1.068c1.551-1.246 1.635-3.486 1.6-4.6a7.29 7.29 0 0 1-2.309-.817 15.363 15.363 0 0 1-1.62 3.3 3.274 3.274 0 0 0-4.052 3.19z" class="cls-12" data-name="Path 99" transform="translate(-144.936 -308.861)"/>
        <path id="Path_100" d="M193.413 550.43s2.2.492 2.2.9.492 4.032-1.925 5.519-2.166-2.078-2.166-2.078 2.078-3.194 1.891-4.341z" class="cls-15" data-name="Path 100" transform="translate(-148.523 -308.109)"/>
        <circle id="Ellipse_20" cx="3.284" cy="3.284" r="3.284" class="cls-20" data-name="Ellipse 20" transform="translate(39.145 246.255)"/>
        <circle id="Ellipse_21" cx="2.821" cy="2.821" r="2.821" class="cls-16" data-name="Ellipse 21" transform="translate(39.607 246.717)"/>
        <path id="Path_101" d="M200 567.67a16.254 16.254 0 0 1-15.863 2.107v2.791s5.947 4.086 11.323 1.61 4.54-6.508 4.54-6.508z" class="cls-12" data-name="Path 101" transform="translate(-144.779 -316.862)"/>
        <path id="Path_102" d="M200 566.16a16.268 16.268 0 0 1-15.863 2.107v2.787s5.947 4.091 11.323 1.615 4.54-6.509 4.54-6.509z" class="cls-12" data-name="Path 102" transform="translate(-144.779 -316.095)"/>
        <path id="Path_103" d="M200 566.16a16.268 16.268 0 0 1-15.863 2.107v2.787s5.947 4.091 11.323 1.615 4.54-6.509 4.54-6.509z" class="cls-11" data-name="Path 103" transform="translate(-144.779 -316.095)"/>
        <path id="Path_104" d="M199.643 566.16a16.268 16.268 0 0 1-15.863 2.107v2.787s5.947 4.091 11.323 1.615 4.54-6.509 4.54-6.509z" class="cls-13" data-name="Path 104" transform="translate(-144.596 -316.095)"/>
        <path id="Path_105" d="M249.13 776.41s-9.3 1.708-10.659 2.078.374 1.024.374 1.024 8.483-1.522 10.285-3.102z" class="cls-12" data-name="Path 105" transform="translate(-172.097 -422.834)"/>
        <path id="Path_106" d="M253.211 761.552c-.153 0-6.316-1.738-7.651-4.712" class="cls-12" data-name="Path 106" transform="translate(-175.96 -412.899)"/>
        <path id="Path_107" d="M238.22 694.156s-2.5 3.284-4.111 3.2 2.644-3.323 4.111-3.2z" class="cls-12" data-name="Path 107" transform="translate(-169.964 -381.074)"/>
        <path id="Path_108" d="M237.314 705.24s-1.054 2.324-2.6 1.58" class="cls-12" data-name="Path 108" transform="translate(-170.452 -386.703)"/>
        <path id="Path_109" d="M221.105 601.564l-6.592 17.384s-.93-11.185 1.034-14.533a5.814 5.814 0 0 1 5.558-2.851z" class="cls-13" data-name="Path 109" transform="translate(-160.087 -334.056)"/>
        <g id="Group_4" class="cls-21" data-name="Group 4" transform="translate(21.293 129.239)">
            <path id="Path_110" d="M195.17 321.277l.059-.251 1.058-.286-.118.522a8.453 8.453 0 0 1-.999.015z" data-name="Path 110" transform="translate(-171.671 -320.74)"/>
            <path id="Path_111" d="M200.217 326.548l-.108-.1a2.22 2.22 0 0 1-.64-2.265 3.146 3.146 0 0 1 .527-.837 8.233 8.233 0 0 0 1.526-.453c.064.931-.985 1.536-1.31 2.408a1.881 1.881 0 0 0 .005 1.247z" data-name="Path 111" transform="translate(-173.809 -321.831)"/>
            <path id="Path_112" d="M161.74 361.453a6.139 6.139 0 0 0 2.462-3.092c.527-1.236.852-2.555 1.388-3.791a11.733 11.733 0 0 1 2.462-3.619 1.591 1.591 0 0 1 .66-.453 1.782 1.782 0 0 1 1.359.374 6.09 6.09 0 0 0 2.058.9 2.2 2.2 0 0 0 2.068-.62 3.111 3.111 0 0 0 .325-2.585 31.784 31.784 0 0 1-.985-5.77c0-1.955.738-4.062 2.437-5.027 1.5-.857 3.368-.645 5.032-1.1a6.361 6.361 0 0 0 2.339-1.2l.128-.118a3.413 3.413 0 0 1 .409.192c.266.143.556.4.492.694a.719.719 0 0 1-.276.345 6.371 6.371 0 0 1-2.339 1.2c-1.664.453-3.53.236-5.032 1.093a5.648 5.648 0 0 0-2.437 5.032 32.216 32.216 0 0 0 .985 5.77 3.1 3.1 0 0 1-.325 2.58 2.206 2.206 0 0 1-2.068.625 6.189 6.189 0 0 1-2.058-.9 1.807 1.807 0 0 0-1.359-.379 1.64 1.64 0 0 0-.66.453 11.816 11.816 0 0 0-2.462 3.624c-.537 1.231-.862 2.55-1.388 3.791a6.129 6.129 0 0 1-2.462 3.087 3.11 3.11 0 0 1-3.727-.394 2.979 2.979 0 0 1-.556-.93 3.19 3.19 0 0 0 3.53.218z" data-name="Path 112" transform="translate(-152.908 -328.162)"/>
            <path id="Path_113" d="M150.955 374.46c-.93-1.172-2.151-2.176-3.023-3.412a8.2 8.2 0 0 1-.492-.758c1.137 1.433 2.678 2.59 3.515 4.17z" data-name="Path 113" transform="translate(-147.44 -345.895)"/>
        </g>
        <g id="Group_5" class="cls-21" data-name="Group 5" transform="translate(140.947 57.424)">
            <path id="Path_114" d="M415.3 186.407l-129.01 25.724v-72.539l115.1-22.952z" class="cls-22" data-name="Path 114" transform="translate(-286.29 -116.64)"/>
        </g>
        <g id="Group_6" class="cls-7" data-name="Group 6" transform="translate(164.342 70.496)">
            <path id="Rectangle_301" d="M0 0h198.622v71.136H0z" class="cls-8" data-name="Rectangle 301" transform="translate(.005)"/>
            <path id="Path_115" d="M636.627 201.43h-5.908v.492h5.908zm-11.816 0H618.9v.492h5.908zm-11.816 0h-5.908v.492H613zm-11.816 0h-5.908v.492h5.908zm-11.816 0h-5.908v.492h5.908zm-11.816 0h-5.908v.492h5.908zm-11.816 0h-5.908v.492h5.908zm-11.816 0h-5.908v.492h5.908zm-11.816 0h-5.908v.492h5.909zm-11.816 0h-5.908v.492h5.908zm-11.816 0h-5.908v.492h5.908zm-11.816 0h-5.908v.492h5.908zm-11.816 0h-5.908v.492h5.908zm-11.816 0h-5.908v.492h5.908zm-11.816 0H465.3v.492h5.908zm-11.816 0h-5.908v.492h5.908zm-11.816 0h-5.908v.492h5.908zm-9.083 2.25H438v5.908h.492zm0 11.816H438v5.904h.492zm0 11.816H438v5.908h.492zm0 11.816H438v5.908h.492zm0 11.816H438v5.908h.492zm0 11.816H438v5.908h.492zm7.414 9.32H440v.492h5.908zm11.816 0h-5.908v.492h5.908zm11.816 0h-5.904v.492h5.908zm11.816 0h-5.908v.492h5.908zm11.816 0h-5.908v.492h5.908zm11.816 0h-5.908v.492h5.908zm11.816 0h-5.908v.492h5.91zm11.816 0h-5.908v.492h5.908zm11.816 0h-5.908v.492h5.908zm11.816 0h-5.906v.492h5.908zm11.816 0h-5.908v.492h5.908zm11.816 0h-5.908v.492h5.908zm11.816 0h-5.908v.492h5.914zm11.816 0h-5.91v.492h5.908zm11.816 0h-5.908v.492h5.908zm11.816 0h-5.908v.492h5.908zm11.816 0h-5.908v.492h5.908zm1.664-9.659h-.492v5.908h.492zm0-11.816h-.492v5.908h.492zm0-11.816h-.492v5.911h.492zm0-11.816h-.492v5.908h.492zm0-11.816h-.492v5.908h.492zm0-11.816h-.492v5.908h.492z" class="cls-3" data-name="Path 115" transform="translate(-438 -201.425)"/>
        </g>
        <g id="Group_7" class="cls-7" data-name="Group 7" transform="translate(164.342 253.846)">
            <path id="Rectangle_302" d="M0 0h198.622v71.136H0z" class="cls-8" data-name="Rectangle 302" transform="translate(.005)"/>
            <path id="Path_116" d="M636.627 573.85h-5.908v.492h5.908zm-11.816 0H618.9v.492h5.908zm-11.816 0h-5.908v.492H613zm-11.816 0h-5.908v.492h5.908zm-11.816 0h-5.908v.492h5.908zm-11.816 0h-5.908v.492h5.908zm-11.816 0h-5.908v.492h5.908zm-11.816 0h-5.908v.492h5.908zm-11.816 0h-5.908v.492h5.909zm-11.816 0h-5.908v.492h5.908zm-11.816 0h-5.908v.492h5.908zm-11.816 0h-5.908v.492h5.908zm-11.816 0h-5.908v.492h5.908zm-11.816 0h-5.908v.492h5.908zm-11.816 0H465.3v.492h5.908zm-11.816 0h-5.908v.492h5.908zm-11.816 0h-5.908v.492h5.908zm-9.083 2.245H438V582h.492zm0 11.816H438v5.908h.492zm0 11.816H438v5.908h.492zm0 11.816H438v5.908h.492zm0 11.816H438v5.908h.492zm0 11.816H438v5.908h.492zm7.414 9.32H440v.492h5.908zm11.816 0h-5.908v.492h5.908zm11.816 0h-5.904v.492h5.908zm11.816 0h-5.908v.492h5.908zm11.816 0h-5.908v.492h5.908zm11.816 0h-5.908v.492h5.908zm11.816 0h-5.908v.492h5.91zm11.816 0h-5.908v.492h5.908zm11.816 0h-5.908v.492h5.908zm11.816 0h-5.906v.492h5.908zm11.816 0h-5.908v.492h5.908zm11.816 0h-5.908v.492h5.908zm11.816 0h-5.908v.492h5.914zm11.816 0h-5.91v.492h5.908zm11.816 0h-5.908v.492h5.908zm11.816 0h-5.908v.492h5.908zm11.816 0h-5.908v.492h5.908zm1.664-9.659h-.492v5.908h.492zm0-11.816h-.492v5.908h.492zm0-11.816h-.492v5.908h.492zm0-11.816h-.492v5.908h.492zm0-11.816h-.492v5.908h.492zm0-11.816h-.492v5.908h.492z" class="cls-3" data-name="Path 116" transform="translate(-438 -573.845)"/>
        </g>
        <path id="Rectangle_303" d="M0 0h198.622v71.135H0z" class="cls-6" data-name="Rectangle 303" transform="rotate(-11.28 489.24 -222.554)"/>
        <path id="Rectangle_304" d="M0 0h198.622v71.135H0z" class="cls-23" data-name="Rectangle 304" transform="rotate(-11.28 489.24 -222.554)"/>
        <path id="Path_117" d="M368.588 237.347a5.785 5.785 0 0 0-.719 3.633 4.923 4.923 0 0 0 3.766-5.74 5.794 5.794 0 0 0-3.047 2.107z" class="cls-6" data-name="Path 117" transform="translate(-238.029 -148.094)"/>
        <path id="Path_118" d="M524.862 207.779a5.78 5.78 0 0 0 3.092 2.038 4.923 4.923 0 0 0-3.889-5.657 5.785 5.785 0 0 0 .797 3.619z" class="cls-6" data-name="Path 118" transform="translate(-317.334 -132.315)"/>
        <path id="Path_119" d="M468 207.943a3.968 3.968 0 0 0 .364 2.516 3.377 3.377 0 0 0 1.122-4.579 3.974 3.974 0 0 0-1.486 2.063z" class="cls-6" data-name="Path 119" transform="translate(-288.856 -133.189)"/>
        <path id="Path_120" d="M395.022 275.563a3.988 3.988 0 0 0 .364 2.521 3.382 3.382 0 0 0 1.122-4.583 3.973 3.973 0 0 0-1.486 2.062z" class="cls-6" data-name="Path 120" transform="translate(-251.806 -167.518)"/>
        <path id="Path_121" d="M432.68 287.71a3.983 3.983 0 0 0 1.9 1.694 3.382 3.382 0 0 0-2.083-4.234 3.969 3.969 0 0 0 .183 2.54z" class="cls-6" data-name="Path 121" transform="translate(-270.799 -173.442)"/>
        <path id="Path_122" d="M419.071 236.129a5.78 5.78 0 0 0 1.777 3.254 4.923 4.923 0 0 0-.788-6.824 5.79 5.79 0 0 0-.989 3.57z" class="cls-6" data-name="Path 122" transform="translate(-264.044 -146.734)"/>
        <path id="Path_123" d="M466.171 239.886a5.784 5.784 0 0 0-.64 3.648 4.923 4.923 0 0 0 3.643-5.824 5.775 5.775 0 0 0-3.003 2.176z" class="cls-6" data-name="Path 123" transform="translate(-287.601 -149.348)"/>
        <ellipse id="Ellipse_22" cx="19.796" cy="3.348" class="cls-6" data-name="Ellipse 22" rx="19.796" ry="3.348" transform="rotate(-11.28 701.573 -999.815)"/>
        <path id="Path_124" d="M564.371 274.423a5.72 5.72 0 0 0 1.29-3.161 2.556 2.556 0 0 0-1.861-2.59c-1.275-.217-2.383.862-3.175 1.886s-1.713 2.191-3.008 2.265a5.149 5.149 0 0 0 .62-5.046 2.009 2.009 0 0 0-.625-.876c-.8-.576-1.935-.034-2.614.679-2.156 2.265-2.176 5.819-1.58 8.891a14.818 14.818 0 0 1-.724-3.392 3.533 3.533 0 0 0-1.876-2.747 3.845 3.845 0 0 0-2.033-.069 4 4 0 0 0-2.954 1.526 3.2 3.2 0 0 0 .9 3.85 12.459 12.459 0 0 0 3.791 1.969 7.384 7.384 0 0 1 2.777 1.763 2.059 2.059 0 0 1 .251.364l7.075-1.413a20.072 20.072 0 0 0 3.752-3.9z" class="cls-6" data-name="Path 124" transform="translate(-328.229 -164.044)"/>
        <path id="Path_125" d="M296.035 310.432s-5.622-10.713-3.308-19.89a18.344 18.344 0 0 0-.8-11.57A30.837 30.837 0 0 0 289.28 274" class="cls-24" data-name="Path 125" transform="translate(-198.156 -167.772)"/>
        <path id="Path_126" d="M286.892 260.074c.281 1.393-1.442 5.942-1.442 5.942s-3.333-3.54-3.609-4.923a2.575 2.575 0 1 1 5.051-.985z" class="cls-6" data-name="Path 126" transform="translate(-194.345 -159.615)"/>
        <path id="Path_127" d="M298.681 272.644c-.522 1.324-4.431 4.209-4.431 4.209s-.871-4.785-.345-6.11a2.575 2.575 0 1 1 4.786 1.9z" class="cls-6" data-name="Path 127" transform="translate(-200.419 -165.293)"/>
        <path id="Path_128" d="M302.617 298.432c-1.122.876-5.957 1.388-5.957 1.388s1.664-4.569 2.782-5.445a2.576 2.576 0 1 1 3.175 4.057z" class="cls-6" data-name="Path 128" transform="translate(-201.903 -177.838)"/>
        <path id="Path_129" d="M302.132 319.8c-.955 1.054-5.632 2.378-5.632 2.378s.862-4.785 1.822-5.839a2.575 2.575 0 1 1 3.811 3.446z" class="cls-6" data-name="Path 129" transform="translate(-201.822 -188.768)"/>
        <path id="Path_130" d="M282.939 282.67c1.191.773 6.056.852 6.056.852s-2.063-4.4-3.259-5.174a2.575 2.575 0 0 0-2.8 4.323z" class="cls-6" data-name="Path 130" transform="translate(-194.365 -169.785)"/>
        <path id="Path_131" d="M281.51 307.126c1.369.379 6.031-.985 6.031-.985s-3.284-3.584-4.657-3.968a2.577 2.577 0 0 0-1.374 4.968z" class="cls-6" data-name="Path 131" transform="translate(-193.252 -182.027)"/>
        <path id="Path_132" d="M284.6 331.463c1.29.61 6.12.034 6.12.034s-2.634-4.086-3.939-4.692a2.575 2.575 0 1 0-2.2 4.658z" class="cls-6" data-name="Path 132" transform="translate(-195.023 -194.455)"/>
        <path id="Path_133" d="M339.054 298.73s1.58 1.393.241 4.234-2.437 5.233-1.516 6.656c0 0 1.851-5.15 4.086-5.662s.217-2.958-2.811-5.228z" class="cls-6" data-name="Path 133" transform="translate(-222.606 -180.327)"/>
        <path id="Path_134" d="M339.293 298.73a2.271 2.271 0 0 1 .359.468c2.708 2.142 4.362 4.318 2.26 4.8-1.969.453-3.614 4.431-4 5.44.034.064.069.128.108.187s1.851-5.15 4.086-5.662.215-2.963-2.813-5.233z" class="cls-12" data-name="Path 134" transform="translate(-222.844 -180.327)"/>
        <path id="Path_135" d="M345.95 301.633c.118.576.143 1.059.064 1.073s-.236-.438-.354-1.019 0-.32.1-.335.076-.281.19.281z" class="cls-6" data-name="Path 135" transform="translate(-226.754 -181.619)"/>
        <path id="Path_136" d="M347.26 302.663c-.453.379-.862.635-.916.571s.271-.418.724-.8.29-.133.345-.074.295-.071-.153.303z" class="cls-6" data-name="Path 136" transform="translate(-227.123 -182.103)"/>
        <path id="Path_137" d="M325.271 301.42s-.926 1.891 1.4 4 4.259 3.9 3.939 5.563c0 0-3.683-4.047-5.947-3.663s-1.317-2.661.608-5.9z" class="cls-6" data-name="Path 137" transform="translate(-215.448 -181.692)"/>
        <path id="Path_138" d="M325.28 301.42a1.969 1.969 0 0 0-.153.566c-1.684 3.018-2.373 5.657-.251 5.3 1.969-.335 5.041 2.713 5.785 3.486a1.542 1.542 0 0 1-.03.217s-3.683-4.047-5.947-3.663-1.329-2.667.596-5.906z" class="cls-12" data-name="Path 138" transform="translate(-215.458 -181.692)"/>
        <path id="Path_139" d="M323.318 306.177c.113.576.276 1.034.354 1.014s.049-.492-.064-1.073-.143-.29-.222-.271-.181-.247-.068.33z" class="cls-6" data-name="Path 139" transform="translate(-215.411 -183.894)"/>
        <path id="Path_140" d="M321.64 307.962c.566.177 1.039.256 1.063.177s-.414-.281-.985-.458-.32 0-.345.064-.284.055.267.217z" class="cls-6" data-name="Path 140" transform="translate(-214.408 -184.832)"/>
        <ellipse id="Ellipse_23" cx="14.002" cy="2.368" class="cls-6" data-name="Ellipse 23" rx="14.002" ry="2.368" transform="rotate(-11.28 770.412 -353.193)"/>
        <ellipse id="Ellipse_24" cx="9.94" cy="1.679" class="cls-6" data-name="Ellipse 24" rx="9.94" ry="1.679" transform="rotate(-11.28 712.962 -467.418)"/>
        <ellipse id="Ellipse_25" cx="6.814" cy="1.152" class="cls-6" data-name="Ellipse 25" rx="6.814" ry="1.152" transform="rotate(-11.28 696.477 -748.54)"/>
        <ellipse id="Ellipse_26" cx="5.386" cy=".911" class="cls-6" data-name="Ellipse 26" rx="5.386" ry=".911" transform="rotate(-11.28 651.68 -898.702)"/>
        <ellipse id="Ellipse_27" cx="9.94" cy="1.679" class="cls-6" data-name="Ellipse 27" rx="9.94" ry="1.679" transform="rotate(-11.28 749.654 -599.426)"/>
        <ellipse id="Ellipse_28" cx="9.94" cy="1.679" class="cls-6" data-name="Ellipse 28" rx="9.94" ry="1.679" transform="rotate(-11.28 737.885 -805.568)"/>
        <path id="Rectangle_305" d="M0 0h21.908v5.032H0z" class="cls-6" data-name="Rectangle 305" transform="rotate(-11.28 441.287 -1081.398)"/>
        <path id="Path_141" d="M627.93 455.413l-.635-.63a.684.684 0 0 1 0-.985l5.534-5.534a.684.684 0 0 1 .985 0l5.529 5.529a.684.684 0 0 1 0 .985l-.65.635a.684.684 0 0 1-.985 0l-3.264-3.446v8.182a.679.679 0 0 1-.679.684h-.911a.684.684 0 0 1-.684-.684v-8.158l-3.269 3.446a.675.675 0 0 1-.97-.025z" class="cls-6" data-name="Path 141" transform="translate(-369.653 -256.136)"/>
        <path id="Path_142" d="M626.627 436.787a11.225 11.225 0 1 1-11.22 11.223 11.225 11.225 0 0 1 11.22-11.223m0-1.477a12.7 12.7 0 1 0 12.7 12.7 12.7 12.7 0 0 0-12.7-12.7z" class="cls-6" data-name="Path 142" transform="translate(-362.969 -249.665)"/>
        <path id="Path_143" d="M627.93 640.413l-.635-.63a.684.684 0 0 1 0-.985l5.534-5.534a.684.684 0 0 1 .985 0l5.529 5.529a.684.684 0 0 1 0 .985l-.65.635a.689.689 0 0 1-.985 0l-3.279-3.446v8.182a.684.684 0 0 1-.684.684h-.891a.679.679 0 0 1-.679-.684v-8.182l-3.269 3.446a.674.674 0 0 1-.975 0z" class="cls-6" data-name="Path 143" transform="translate(-369.653 -350.056)"/>
        <path id="Path_144" d="M626.627 621.777A11.225 11.225 0 1 1 615.407 633a11.225 11.225 0 0 1 11.22-11.222m0-1.477a12.7 12.7 0 1 0 12.7 12.7 12.7 12.7 0 0 0-12.7-12.7z" class="cls-6" data-name="Path 144" transform="translate(-362.969 -343.581)"/>
        <path id="Path_145" d="M1025.8 692.73s3.515 4.593-1.62 11.525-9.354 12.8-7.655 17.113c0 0 7.744-12.879 14.051-13.056s2.162-7.838-4.776-15.582z" class="cls-3" data-name="Path 145" transform="translate(-567.169 -380.352)"/>
        <path id="Path_146" d="M1026 692.73a5.657 5.657 0 0 1 .719 1.438c6.154 7.227 9.428 13.972 3.515 14.144-5.509.158-12.116 10-13.7 12.49a4.481 4.481 0 0 0 .187.566s7.744-12.879 14.051-13.056 2.167-7.838-4.772-15.582z" class="cls-12" data-name="Path 146" transform="translate(-567.37 -380.352)"/>
        <path id="Path_147" d="M1048.162 703.551c0 1.615-.182 2.924-.409 2.924s-.4-1.31-.4-2.924.226-.857.448-.857.361-.762.361.857z" class="cls-25" data-name="Path 147" transform="translate(-583.012 -385.319)"/>
        <path id="Path_148" d="M1050.719 707.4c-1.423.773-2.658 1.241-2.767 1.044s.985-.985 2.378-1.757.862-.207.985 0 .822-.048-.596.713z" class="cls-25" data-name="Path 148" transform="translate(-583.313 -387.235)"/>
        <path id="Path_149" d="M989.945 692.73s-3.51 4.593 1.625 11.525 9.354 12.8 7.656 17.113c0 0-7.744-12.879-14.051-13.056s-2.157-7.838 4.77-15.582z" class="cls-3" data-name="Path 149" transform="translate(-549.868 -380.352)"/>
        <path id="Path_150" d="M989.945 692.73a5.766 5.766 0 0 0-.714 1.438c-6.154 7.227-9.428 13.972-3.515 14.144 5.5.158 12.116 10 13.7 12.49a5.456 5.456 0 0 1-.187.566s-7.744-12.879-14.051-13.056-2.16-7.838 4.767-15.582z" class="cls-12" data-name="Path 150" transform="translate(-549.868 -380.352)"/>
        <path id="Path_151" d="M984.81 703.551c0 1.615.182 2.924.4 2.924s.409-1.31.409-2.924-.226-.857-.453-.857-.356-.762-.356.857z" class="cls-25" data-name="Path 151" transform="translate(-551.262 -385.319)"/>
        <path id="Path_152" d="M979.356 707.4c1.418.773 2.659 1.241 2.762 1.044s-.955-.985-2.373-1.757-.861-.207-.985 0-.822-.048.596.713z" class="cls-25" data-name="Path 152" transform="translate(-548.048 -387.235)"/>
        <ellipse id="Ellipse_29" cx="36.727" cy="5.637" class="cls-1" data-name="Ellipse 29" rx="36.727" ry="5.637" transform="translate(412.63 364.884)"/>
        <path id="Path_153" d="M1016.323 736.106l-.177 1.433-.246 2.028-.1.842-.246 2.028-.108.847-.261 2.014-2.811 23.041c-.251 2.058-3.609 3.658-7.665 3.658H990.1c-4.057 0-7.414-1.6-7.666-3.658l-2.8-23.041-.251-2.023-.1-.847-.251-2.028-.1-.842-.246-2.028-.177-1.433c-.138-1.162 1.679-2.147 3.973-2.147h29.869c2.293.025 4.115 1.009 3.972 2.156z" class="cls-26" data-name="Path 153" transform="translate(-548.061 -401.278)"/>
        <path id="Path_154" d="M912.146 683.01l-.246 2.023h-36.964l-.246-2.023z" class="cls-27" data-name="Path 154" transform="translate(-444.061 -346.749)"/>
        <path id="Path_155" d="M912.157 688.84l-.246 2.028h-36.26l-.251-2.028z" class="cls-27" data-name="Path 155" transform="translate(-444.421 -349.709)"/>
        <path id="Path_156" d="M912.168 694.67l-.246 2.028h-35.556l-.246-2.028z" class="cls-27" data-name="Path 156" transform="translate(-444.787 -352.669)"/>
    </g>
</svg>
