<svg xmlns="http://www.w3.org/2000/svg" xmlns:xlink="http://www.w3.org/1999/xlink" width="359.609" height="182.112" viewBox="0 0 359.609 182.112">
    <defs>
        <style>
            .cls-1{fill:#444176}.cls-2,.cls-4{opacity:.1}.cls-3{fill:#565387}.cls-5{fill:#ced2df}.cls-6{fill:#88455e}.cls-7{fill:#ec8c9c}.cls-8{fill:#ebf1f6}.cls-9{fill:url(#linear-gradient)}.cls-10{fill:url(#linear-gradient-2)}.cls-11{fill:#ffbdc6}.cls-12{fill:#7679b4}.cls-13{fill:#a66477}.cls-14{fill:#f2f1f2}.cls-15{fill:#565388}.cls-16{fill:#493545}.cls-17{opacity:.05}.cls-18{fill:#3e3d77}.cls-19{fill:#c77485}.cls-20{fill:#ffaac4}.cls-21{fill:#6c63ff}.cls-22{fill:#ffd037}
        </style>
        <linearGradient id="linear-gradient" x1=".495" x2=".495" y1="1.014" gradientUnits="objectBoundingBox">
            <stop offset="0" stop-color="gray" stop-opacity=".251"/>
            <stop offset=".54" stop-color="gray" stop-opacity=".122"/>
            <stop offset="1" stop-color="gray" stop-opacity=".102"/>
        </linearGradient>
        <linearGradient id="linear-gradient-2" x1=".5" x2=".5" y1="1" xlink:href="#linear-gradient"/>
    </defs>
    <g id="Group_108" data-name="Group 108" transform="translate(.02 -78.908)">
        <path id="Path_658" d="M517.268 615.049l-6.4 6.132c-1.465 6.269-5.066 7.331-5.066 7.331-9.728 1.732-5.332-7.444-5.332-7.444l6.171-10.441.76-1.289s4.4-1.332 7.331-.533a2.509 2.509 0 0 1 1 .541c1.838 1.593 1.536 5.703 1.536 5.703z" class="cls-1" data-name="Path 658" transform="translate(-352.812 -368.846)"/>
        <path id="Path_659" d="M627.585 607.865c-4.533 1.332-7.73-3.464-7.444-4.666S616 592.55 616 592.55l.345-2.492.321-2.308 7.444.533.7 1.473 4.365 9.188s2.944 7.589-1.59 8.921z" class="cls-1" data-name="Path 659" transform="translate(-423.679 -356.197)"/>
        <path id="Path_660" d="M526.926 610.356c-.7 1.2-6.386.6-9.156.219l.76-1.289s4.4-1.332 7.331-.533a2.508 2.508 0 0 1 1 .541l.065 1.062z" class="cls-2" data-name="Path 660" transform="translate(-363.935 -368.816)"/>
        <path id="Path_661" d="M625.342 589.736c-3.812 2.539-7.871.619-8.482.3l.321-2.308 7.444.533z" class="cls-2" data-name="Path 661" transform="translate(-424.202 -356.184)"/>
        <path id="Path_662" d="M559.456 478.74c-1.332 2.131 0 12 0 12-4.4 4-9.6 1.066-9.6 1.066l-.784-24.123s-8.663-19.86-14.794-19.327-16.26 21.992-16.26 21.992 2.8 18.391 2.265 19.982 0 9.329 0 9.329c-.932 1.6-10.661 0-10.661 0L506.83 465l3.714-7.734a137.107 137.107 0 0 1 7.934-20.217c1.077-2.261 1.8-3.64 1.8-3.64l7.092-1.477 23.018-4.772 8.271 30.106c1.6 2.931 2.531 9.6 2.531 9.6s-.402 9.743-1.734 11.874z" class="cls-3" data-name="Path 662" transform="translate(-357.282 -258.525)"/>
        <g id="Group_102" class="cls-4" data-name="Group 102" transform="translate(149.533 168.619)">
            <path id="Path_663" d="M596.671 524.684l-.784-24.123s-8.663-19.86-14.794-19.327a3.341 3.341 0 0 0-.8.18c5.979 1.986 13.466 19.147 13.466 19.147l.784 24.123a9.4 9.4 0 0 0 5.3.968 9.43 9.43 0 0 1-3.172-.968z" data-name="Path 663" transform="translate(-551.493 -460.026)"/>
            <path id="Path_664" d="M511.719 499.642l-2.8-34.654 3.73-7.746a137.11 137.11 0 0 1 7.934-20.217c1.077-2.261 1.8-3.64 1.8-3.64l7.092-1.477 21.012-4.368-.114-.419-23.03 4.788-7.091 1.477s-.721 1.379-1.8 3.64a136.925 136.925 0 0 0-7.934 20.217l-3.73 7.73 2.8 34.655a50.057 50.057 0 0 0 8.463.682 62.953 62.953 0 0 1-6.332-.668z" data-name="Path 664" transform="translate(-506.79 -427.12)"/>
        </g>
        <path id="Path_665" d="M467.7 338.21s-7.6.392-6.531 8.4l2.131.266 3.2-3.464 1.6-2.931v-.666z" class="cls-5" data-name="Path 665" transform="translate(-329.449 -204.426)"/>
        <path id="Path_666" d="M467.7 338.21s-7.6.392-6.531 8.4l2.131.266 3.2-3.464 1.6-2.931v-.666z" class="cls-2" data-name="Path 666" transform="translate(-329.449 -204.426)"/>
        <path id="Path_667" d="M693.108 345.69s6.269 3.33 4.666 7.2l-2 .784-2.664-1.465-.392-3.463.266-2.4z" class="cls-5" data-name="Path 667" transform="translate(-470.34 -208.975)"/>
        <path id="Path_668" d="M693.108 345.69s6.269 3.33 4.666 7.2l-2 .784-2.664-1.465-.392-3.463.266-2.4z" class="cls-2" data-name="Path 668" transform="translate(-470.34 -208.975)"/>
        <rect id="Rectangle_467" width="21.858" height="16.526" class="cls-6" data-name="Rectangle 467" rx="8.263" transform="translate(168.923 102.327)"/>
        <path id="Path_669" d="M459.959 295.991l-4.666 7.444-.392-1.324-6.339-20.656a3.177 3.177 0 0 1 .1-2.143c1.6-3.894 7.252-16.847 9.3-10.794 2.4 7.052-4.133 14.661-4.133 14.661a23.477 23.477 0 0 0 5.575 12.2c.343.404.555.612.555.612z" class="cls-7" data-name="Path 669" transform="translate(-321.757 -161.074)"/>
        <path id="Path_670" d="M691.16 312.467s7.33-6.931 7.052-9.728c0 0-6.931-11.194-3.464-13.713 2.743-2.006 6.907 8.1 8.522 12.4a4.192 4.192 0 0 1-.278 3.526l-8.761 15.511z" class="cls-7" data-name="Path 670" transform="translate(-469.392 -174.353)"/>
        <path id="Path_671" d="M565.13 299.916s1.332 8.529-2.531 11.73 11.064 3.181 11.064 3.181l5.337-4.932s-6.132-5.732-4.267-9.995z" class="cls-7" data-name="Path 671" transform="translate(-390.812 -181.125)"/>
        <path id="Path_672" d="M552.289 323.943s5.732 4.267 11.46-.533l9.329 19.327-.533 23.59s-19.327 9.995-27.324 3.867-1.332-9.329-1.332-9.329l-1.865-18.125 2-11.73s3.6-5.6 3.867-5.6 4.398-1.467 4.398-1.467z" class="cls-2" data-name="Path 672" transform="translate(-378.237 -195.424)"/>
        <path id="Path_673" d="M552.295 323.263s5.732 4.274 11.464-.533l9.329 19.327-.533 23.59s-19.327 9.995-27.324 3.867-1.332-9.329-1.332-9.329l-1.865-18.125 2-11.73s3.6-5.6 3.867-5.6 4.394-1.467 4.394-1.467z" class="cls-8" data-name="Path 673" transform="translate(-378.243 -195.011)"/>
        <path id="Path_674" d="M503.988 319a24.732 24.732 0 0 1-11.335 2.942 4.176 4.176 0 0 0-3.013 1.152c-1.681 1.614-4.623 4.169-6.445 4.169-.392 0-11.73 2.265-11.73 2.265l-3-3s-4.466 8.729-6.6 8.33l3.867 5.066s7.331 3.2 16.926-.666h5.6l2.931 9.062s-1.465 12.263-2.664 14.927.392 7.863.392 7.863l10.528-.392s.533-5.2 1.332-5.877-2.8-23.59-2.8-23.59-2.4-12.929 6.4-17.592z" class="cls-2" data-name="Path 674" transform="translate(-329.937 -192.742)"/>
        <path id="Path_675" d="M545.446 439.38a34.8 34.8 0 0 0-.827 4.807l-8.059.306c1.077-2.261 1.8-3.64 1.8-3.64z" class="cls-2" data-name="Path 675" transform="translate(-375.363 -265.957)"/>
        <path id="Path_676" d="M470.018 340.145l-4.666 7.444-.392-1.324a34.455 34.455 0 0 0 4.517-6.735 7.9 7.9 0 0 0 .541.615z" class="cls-2" data-name="Path 676" transform="translate(-331.816 -205.228)"/>
        <path id="Path_677" d="M503.556 319s-5.7 3.1-11.6 2.942a4.176 4.176 0 0 0-3.013 1.152c-1.681 1.614-4.623 4.169-6.445 4.169-.392 0-11.73 2.265-11.73 2.265l-3.009-3s-4.466 8.729-6.6 8.33l3.867 5.066s7.331 3.2 16.926-.666h5.6l2.931 9.058s-1.465 12.263-2.664 14.927.392 7.863.392 7.863l10.528-.392s.533-5.2 1.332-5.877-2.8-23.59-2.8-23.59-2.4-12.929 6.4-17.592z" class="cls-5" data-name="Path 677" transform="translate(-329.505 -192.742)"/>
        <path id="Path_678" d="M595.778 316.94a25.936 25.936 0 0 0 12.7 4.623 3.859 3.859 0 0 1 2.174.842 21.048 21.048 0 0 1 4.588 5.485c2.931 4.8 10.128 4.267 10.128 4.267s7-2.2 7.4-3.918c0 0 .2 9.4 4.6 7.131l-5.787 6.668a4.083 4.083 0 0 1-2.919 1.407 42.907 42.907 0 0 1-9.141-.505c-4.8-.932-8.263-3.2-10.794-1.2 0 0-3.33 10.394-1.066 14.128s6.269 9.995 4.4 11.6-4.133 1.465-7.863-2.4-4.133-10.394-4.133-10.394l.932-16.792s-3.6-12.663-7.052-15.194z" class="cls-2" data-name="Path 678" transform="translate(-410.262 -191.489)"/>
        <path id="Path_679" d="M638.695 335.4l-5.8 6.7a4.079 4.079 0 0 1-1.4 1.042 4.063 4.063 0 0 1-1.512.357 42.4 42.4 0 0 1-9.141-.505c-4.49-.874-7.812-2.911-10.3-1.536a3.645 3.645 0 0 0-.5.333s-3.33 10.394-1.066 14.128 6.269 9.995 4.4 11.6a4.312 4.312 0 0 1-1.042.678c-1.677.756-3.757.1-6.821-3.076-3.73-3.867-4.133-10.394-4.133-10.394l.932-16.792s-3.6-12.663-7.052-15.194l1.524-5.466a27.67 27.67 0 0 0 12.773 4.49 3.859 3.859 0 0 1 2.174.842 21.065 21.065 0 0 1 4.588 5.485c2.931 4.8 10.128 4.267 10.128 4.267a38.9 38.9 0 0 0 5.042-2.006 7.687 7.687 0 0 0 2.351-1.567 1.176 1.176 0 0 0 .255-.47s.205 9.351 4.6 7.084z" class="cls-2" data-name="Path 679" transform="translate(-411.065 -191.69)"/>
        <path id="Path_680" d="M638 335.341l-5.8 6.7a4.078 4.078 0 0 1-1.128.909 4.067 4.067 0 0 1-1.779.49 42.4 42.4 0 0 1-9.141-.505c-4.329-.842-7.577-2.77-10.026-1.669a3.626 3.626 0 0 0-.784.466s-3.33 10.394-1.066 14.128 6.269 9.995 4.4 11.6a4.623 4.623 0 0 1-.784.545c-1.724.952-3.855.392-7.088-2.942-3.73-3.867-4.133-10.394-4.133-10.394l.932-16.792s-3.6-12.663-7.052-15.194l1.6-5.732.192.133a27.669 27.669 0 0 0 12.773 4.49 3.859 3.859 0 0 1 2.174.842 21.064 21.064 0 0 1 4.588 5.485c2.931 4.8 10.128 4.267 10.128 4.267a38.9 38.9 0 0 0 5.042-2.006c1.211-.619 2.2-1.3 2.351-1.916v.337c.115 1.617.701 8.76 4.601 6.758z" class="cls-5" data-name="Path 680" transform="translate(-410.633 -191.495)"/>
        <path id="Path_681" d="M579.645 300.45h-9.795a23.967 23.967 0 0 1 .184 4.7 10.069 10.069 0 0 0 10.351.744c-.94-1.738-1.512-3.712-.74-5.444z" class="cls-2" data-name="Path 681" transform="translate(-395.61 -181.46)"/>
        <circle id="Ellipse_151" cx="9.728" cy="9.728" r="9.728" class="cls-7" data-name="Ellipse 151" transform="translate(170.455 105.861)"/>
        <path id="Path_682" d="M568.032 266.178a10.384 10.384 0 0 1 3.24-.3c.972.2 1.8.866 2.77 1.07 1.873.392 3.612-.987 5.027-2.272l3.056-2.782a6.237 6.237 0 0 0 1.724-2.108 2.115 2.115 0 0 0-.517-2.492c-1.117-.784-3.04 0-3.847-1.113a5.812 5.812 0 0 1-.5-1.775 3.119 3.119 0 0 0-3-1.869 13.277 13.277 0 0 0-3.675.784 21.158 21.158 0 0 1-7.836.748 5.007 5.007 0 0 0-2.143.074 3 3 0 0 0-1.74 2.065c-.6 2.131.427 5.567 1.461 7.475s3.915 2.75 5.98 2.495z" class="cls-2" data-name="Path 682" transform="translate(-389.871 -152.32)"/>
        <path id="Path_683" d="M568.032 265.5a10.385 10.385 0 0 1 3.24-.3c.972.2 1.8.866 2.77 1.07 1.873.392 3.612-.987 5.027-2.272l3.056-2.782a6.237 6.237 0 0 0 1.724-2.108 2.115 2.115 0 0 0-.517-2.492c-1.117-.784-3.04 0-3.847-1.113a5.812 5.812 0 0 1-.5-1.775 3.119 3.119 0 0 0-3-1.869 13.276 13.276 0 0 0-3.675.784 21.157 21.157 0 0 1-7.836.748 5.007 5.007 0 0 0-2.143.074 3 3 0 0 0-1.74 2.065c-.6 2.131.427 5.567 1.461 7.475s3.915 2.728 5.98 2.495z" class="cls-6" data-name="Path 683" transform="translate(-389.871 -151.907)"/>
        <path id="Path_684" d="M536.55 394a5.493 5.493 0 0 1 3.2 1.6 5.744 5.744 0 0 0 2.931 1.732" class="cls-2" data-name="Path 684" transform="translate(-375.357 -238.357)"/>
        <path id="Path_685" d="M487.442 349.09s1.74 3.883.666 4.275-.666 3.2-.666 3.2" class="cls-2" data-name="Path 685" transform="translate(-345.444 -211.043)"/>
        <g id="Group_103" class="cls-4" data-name="Group 103" transform="translate(142.476 126.321)">
            <path id="Path_686" d="M488.9 334.125s11.327-2.265 11.719-2.265c1.826 0 4.764-2.555 6.445-4.169a4.115 4.115 0 0 1 1.826-1.015h-.145a4.177 4.177 0 0 0-3.013 1.152c-1.681 1.614-4.623 4.169-6.445 4.169-.317 0-7.566 1.438-10.508 2.022z" data-name="Path 686" transform="translate(-488.78 -323.731)"/>
            <path id="Path_687" d="M555.932 319.658v-.5a28.283 28.283 0 0 1-8.682 2.778 26.831 26.831 0 0 0 8.682-2.278z" data-name="Path 687" transform="translate(-524.342 -319.16)"/>
            <path id="Path_688" d="M523.406 402.373s-1.6-5.2-.392-7.863 2.664-14.927 2.664-14.927l-2.923-9.062h-5.615l-.341.133h4.6l2.919 9.066s-1.465 12.263-2.664 14.927.392 7.863.392 7.863l10.528-.392v-.082z" data-name="Path 688" transform="translate(-505.822 -350.397)"/>
        </g>
        <g id="Group_104" class="cls-4" data-name="Group 104" transform="translate(190.17 143.854)">
            <path id="Path_689" d="M622.515 421.74a4.621 4.621 0 0 1-.784.545c-1.724.952-3.855.392-7.088-2.942-2.962-3.068-3.824-7.836-4.055-9.642l-.078 1.379s.392 6.531 4.133 10.394c3.232 3.346 5.364 3.894 7.088 2.942a4.621 4.621 0 0 0 .784-.545c.56-.482.592-1.387.3-2.515a1.234 1.234 0 0 1-.3.384z" data-name="Path 689" transform="translate(-610.51 -391.76)"/>
            <path id="Path_690" d="M656.409 364.1l-3.773 4.361a4.077 4.077 0 0 1-1.128.909 4.067 4.067 0 0 1-1.779.49 42.4 42.4 0 0 1-9.141-.505c-4.329-.842-7.577-2.77-10.026-1.669a3.623 3.623 0 0 0-.784.466s-2.151 6.715-1.822 11.288a44.075 44.075 0 0 1 1.822-9.156 3.624 3.624 0 0 1 .784-.466c2.453-1.1 5.7.827 10.026 1.669a42.893 42.893 0 0 0 9.141.505 4.067 4.067 0 0 0 1.779-.49 4.077 4.077 0 0 0 1.128-.9l5.8-6.7a2.284 2.284 0 0 1-2.029.192z" data-name="Path 690" transform="translate(-621.1 -363.91)"/>
        </g>
        <path id="Path_691" d="M265.74 486.89a.3.3 0 0 0 .357.047 1.214 1.214 0 0 1-.357-.047z" class="cls-9" data-name="Path 691" transform="translate(-210.65 -294.853)"/>
        <path id="Path_692" d="M220.118 290.669c-.705-.2-1.712-.537-2.923-.96a15.327 15.327 0 0 0 2.707-5.454l-.1.039c.035-.121.071-.239.1-.364-2.323.944-4.894-.654-6.531-2.707s-2.743-4.6-4.537-6.488a20.763 20.763 0 0 0-2.406-2.073 3.326 3.326 0 0 0-1.743-.854c-1.046-.031-1.865 1-2.872 1.3a3.918 3.918 0 0 1-2-.074c-2.6-.6-5.093-1.7-7.746-1.986a9.078 9.078 0 0 0-4.2.474c-1.332.505-1.939 1.512-3.017 2.319-1.175.866-3.471.846-4.839 1a34.675 34.675 0 0 1-5 .208 11.7 11.7 0 0 0-2.876.106c-1.986.435-3.581 2.014-5.07 3.526a2.613 2.613 0 0 0-.838 1.313 1.658 1.658 0 0 0 0 .435 2.825 2.825 0 0 0 .2 1.156 15.281 15.281 0 0 0 1.924 3.828 11.054 11.054 0 0 1 1.661 2.719 5.278 5.278 0 0 1 .255 1.567 11.4 11.4 0 0 1-.176 1.685 21.156 21.156 0 0 1-1.289 4.486 8.15 8.15 0 0 0-.752 2.351 3.747 3.747 0 0 0 0 .5c-.1 2.586 2.511 4.447 3.017 7.017a4.19 4.19 0 0 1 .074.646 4.378 4.378 0 0 1-2.316 3.793c.118.047.239.086.36.125a3.27 3.27 0 0 1-.36.2 7.32 7.32 0 0 0 .752.243 17.474 17.474 0 0 0-3.8 4.7c-4.533 8.439-35.234 24.969-35.234 24.969l.454.259-.368.239c-2.656 1.767-8.89 6.919-3.256 13.435 0 0 4.4-6.943 7.483-9.9.137-.133.274-.255.392-.368a.9.9 0 0 1 .118.713l20.185-11.343s7.174-5.023 9.176-6.155a16.514 16.514 0 0 1 4.549-1.959l-.235.1a9.214 9.214 0 0 1 2.316-.329c3.573.055 7.444 2.672 8.717 13.035 1.708 13.877.917 16.381.368 16.722a1.009 1.009 0 0 1-.2-.035.342.342 0 0 0 .055.039 1.05 1.05 0 0 1-.219-.039.314.314 0 0 0 .3.071.278.278 0 0 0 .223-.027 2.309 2.309 0 0 0 .27 0 2.88 2.88 0 0 1-.027.392c-.027 0-.161.074 0 .082a25.866 25.866 0 0 0 0 2.523c-1.775.1-3.55.2-5.093.3l.137-.733.063-.329c1.363-.11 2.656-.509 2.809-1.614.333-2.429-3-3.726-5.838-3.887s-19.848.972-19.848.972-2.551 3.3 5.54 4.31l.748.392a89.931 89.931 0 0 1 9.529 6.77l.286.227-.925.752c5 1.132 9.842 20.252 12.51 28.993s8.506 8.424 13.345 7.127c4.533-1.215 5.093-14.379 5.168-16.032v-.168l8.063 9.959.611.756q.353.184.7.345c6.1 2.9 12.847-2.664 10.931-9.011-1.939-6.4-4.948-15.86-6.954-19.86-1.681-3.35-3.851-8.913-5.168-12.4a4.187 4.187 0 0 0 .5-.239s-.031-.157-.082-.443l.082-.043a120.126 120.126 0 0 1-2.045-17.239v-.623c1.457-.333 2.382-.462 2.382-.462l.027-.313-.168.035.811-9.282s2.978-6.335.7-8.972a5.54 5.54 0 0 1-1.336-2.743c-.392-2.425 0-6.472 5.309-9.834 8.173-5.184 11.362-9.4 11.362-9.4s.121-3.038-4.882-4.511zm-16.232 6.441v-4.29c1.516-.074 3.064.1 4.588 0a11.61 11.61 0 0 0 2.214-.372l.368.255a40.353 40.353 0 0 1-7.17 4.408zm-23.175 67.248c.6.415 1.2.846 1.794 1.281.368 2.116.693 3.608.717 3.714a29.333 29.333 0 0 0-2.511-4.995z" class="cls-10" data-name="Path 692" transform="translate(-125.1 -163.533)"/>
        <path id="Path_693" d="M271.155 500.32l-.353 1.916-.27 1.465-.494 2.68-4.788 3.35s-.431-.368-1.144-.952a83.92 83.92 0 0 0-9.113-6.661 10.186 10.186 0 0 0-2.5-1.156z" class="cls-11" data-name="Path 693" transform="translate(-202.591 -303.021)"/>
        <path id="Path_694" d="M271.149 500.32l-.353 1.916a14.887 14.887 0 0 1-3.158-.161l-11.17.161a34.563 34.563 0 0 1-1.485-.121 10.187 10.187 0 0 0-2.5-1.156z" class="cls-2" data-name="Path 694" transform="translate(-202.585 -303.021)"/>
        <path id="Path_695" d="M261.623 495.784s5.587.956 5.9-1.438-2.872-3.655-5.579-3.836-18.994.964-18.994.964-2.872 3.828 7.5 4.466z" class="cls-12" data-name="Path 695" transform="translate(-196.569 -297.043)"/>
        <path id="Path_696" d="M271.155 500.32l-.353 1.916-.27 1.465-.494 2.68-4.788 3.35s-.431-.368-1.144-.952a83.92 83.92 0 0 0-9.113-6.661 10.186 10.186 0 0 0-2.5-1.156z" class="cls-2" data-name="Path 696" transform="translate(-202.591 -303.021)"/>
        <path id="Path_697" d="M271.149 500.32l-.353 1.916a14.887 14.887 0 0 1-3.158-.161l-11.17.161a34.563 34.563 0 0 1-1.485-.121 10.187 10.187 0 0 0-2.5-1.156z" class="cls-2" data-name="Path 697" transform="translate(-202.585 -303.021)"/>
        <path id="Path_698" d="M261.623 495.784s5.587.956 5.9-1.438-2.872-3.655-5.579-3.836-18.994.964-18.994.964-2.872 3.828 7.5 4.466z" class="cls-2" data-name="Path 698" transform="translate(-196.569 -297.043)"/>
        <path id="Rectangle_468" d="M0 0h29.201v34.627H0z" class="cls-13" data-name="Rectangle 468" transform="translate(48.057 120.064)"/>
        <path id="Rectangle_469" d="M0 0h29.201v34.627H0z" class="cls-2" data-name="Rectangle 469" transform="translate(48.057 120.064)"/>
        <path id="Path_699" d="M143.165 450.036a4.678 4.678 0 0 0-1.779 1.258c-2.95 2.915-7.158 9.752-7.158 9.752-5.391-6.418.576-11.491 3.134-13.235.619-.423 1.034-.65 1.034-.65z" class="cls-11" data-name="Path 699" transform="translate(-129.335 -270.689)"/>
        <path id="Path_700" d="M275.29 331.09s1.438 10.054 6.382 12.447-6.382 6.86-6.382 6.86l-15.48-5.744s8.776-2.872 7.021-11.331z" class="cls-11" data-name="Path 700" transform="translate(-207.043 -200.095)"/>
        <path id="Path_701" d="M228.025 485.45l-.353 1.916-.27 1.465-.494 2.68-4.788 3.35s-.431-.368-1.144-.952a83.921 83.921 0 0 0-9.113-6.661 10.186 10.186 0 0 0-2.5-1.156z" class="cls-11" data-name="Path 701" transform="translate(-176.36 -293.977)"/>
        <path id="Path_702" d="M228.019 485.45l-.353 1.916a14.887 14.887 0 0 1-3.158-.161l-11.17.161a34.563 34.563 0 0 1-1.485-.121 10.185 10.185 0 0 0-2.5-1.156z" class="cls-2" data-name="Path 702" transform="translate(-176.354 -293.977)"/>
        <path id="Path_703" d="M218.447 480.922s5.587.956 5.9-1.438-2.872-3.671-5.587-3.828-18.99.956-18.99.956-2.872 3.828 7.5 4.466z" class="cls-12" data-name="Path 703" transform="translate(-170.307 -288.012)"/>
        <path id="Path_704" d="M245.4 493.914l-.494 2.68-4.788 3.35s-.431-.368-1.144-.952l6.326-5.192z" class="cls-2" data-name="Path 704" transform="translate(-194.368 -299.056)"/>
        <path id="Path_705" d="M276.025 519.424q-.329-.161-.666-.341l-.584-.744-7.711-9.8v.172c-.051 1.626-.607 14.594-4.941 15.789-4.627 1.277-10.214 1.595-12.765-7.021s-7.182-27.445-11.969-28.562l7.1-5.826s4.7 5.485 6.621 10.767c-.071-.337-3.319-15.5-.639-18.183h23.3s3.589 10.242 6.065 15.319c1.92 3.941 4.8 13.258 6.661 19.562a7.494 7.494 0 0 1-10.472 8.868z" class="cls-12" data-name="Path 705" transform="translate(-193.408 -288.035)"/>
        <path id="Path_706" d="M293.98 448.332c-3.593 2.127-19.39 1.262-24.538.917l-1.4-.1c-.153 0 .023-.086.023-.086l.145-1.45 3.828-9.732L292.546 426a17.744 17.744 0 0 0-.521 5.364 125.022 125.022 0 0 0 1.955 16.968z" class="cls-2" data-name="Path 706" transform="translate(-212.013 -257.82)"/>
        <path id="Path_707" d="M293.718 447.135c-3.593 2.127-19.39 1.262-24.538.917l-1.4-.1h-.231l.255-.067 1.262-.333 2.711-10.853 20.507-11.887a17.745 17.745 0 0 0-.521 5.364 125.106 125.106 0 0 0 1.955 16.959z" class="cls-14" data-name="Path 707" transform="translate(-211.751 -257.096)"/>
        <path id="Path_708" d="M292.128 430.1c-4.169.96-13.345 3.785-16.871 10.579-2.351 4.537-4.31 6.484-5.708 7.3l-1.4-.1.023-.086 1.262-.333 2.711-10.853 20.507-11.887a17.747 17.747 0 0 0-.524 5.38z" class="cls-2" data-name="Path 708" transform="translate(-212.116 -257.041)"/>
        <path id="Path_709" d="M146.6 447.17l4.788 2.872a4.677 4.677 0 0 0-1.779 1.258c-.392-1.175-2.907-2.79-4.043-3.479a16.102 16.102 0 0 1 1.034-.651z" class="cls-2" data-name="Path 709" transform="translate(-137.562 -270.695)"/>
        <path id="Path_710" d="M265.477 484.273a.286.286 0 0 1-.337-.043 1.151 1.151 0 0 0 .337.043z" class="cls-2" data-name="Path 710" transform="translate(-210.285 -293.235)"/>
        <path id="Path_711" d="M203.438 323.363a9.492 9.492 0 0 1-7.342-2.711s-12.765 3.671-17.075 11.969S145.35 357.2 145.35 357.2s5.093 2.872 4.627 4.31l19.308-11.17s6.86-4.948 8.776-6.065 12.447-7.977 14.681 10.692 0 16.456 0 16.456 3.193 1.117 7.836-7.836 18.99-11.01 18.99-11.01l.784-9.4s2.848-6.237.666-8.839a5.524 5.524 0 0 1-1.277-2.7c-.364-2.39 0-6.375 5.093-9.685 7.836-5.093 10.853-9.254 10.853-9.254s.161-3.033-4.627-4.466-24.26-9.263-24.26-9.263l-.639 2.711 15.319 10.853s-7.66 6.222-13.713 6.065c-.019-.027 1.097 4.601-4.329 4.764z" class="cls-15" data-name="Path 711" transform="translate(-137.429 -180.56)"/>
        <path id="Path_712" d="M286.362 336.178a31.36 31.36 0 0 1-.882-3.918l-8.459 2.249a9.324 9.324 0 0 1-.192 4.878 9.1 9.1 0 0 0 9.532-3.213z" class="cls-2" data-name="Path 712" transform="translate(-217.395 -200.807)"/>
        <circle id="Ellipse_152" cx="9.098" cy="9.098" r="9.098" class="cls-11" data-name="Ellipse 152" transform="translate(52.845 120.22)"/>
        <path id="Path_713" d="M257.136 273.875c2.523.286 4.925 1.371 7.409 1.959a3.659 3.659 0 0 0 1.916.074c.964-.3 1.747-1.309 2.743-1.277a2.883 2.883 0 0 1 1.669.842 20.02 20.02 0 0 1 2.3 2.041c1.712 1.861 2.778 4.369 4.341 6.39s4.028 3.6 6.249 2.668c-1.508 5.877-6.461 10.371-11.813 10.735-2.135.145-4.31-.3-6.39.329a5.594 5.594 0 0 1-1.614.392c-1.175 0-2.147-1.093-2.891-2.155-1.74-2.5-3.134-5.336-5.093-7.613a4.164 4.164 0 0 0-2.323-1.606 4.3 4.3 0 0 0-2.57.721 12.2 12.2 0 0 0-3.761 2.609 5.216 5.216 0 0 0-1.269 4.588 11.2 11.2 0 0 1 .784 2.566c0 1.45-1.262 2.511-1.516 3.918a15.125 15.125 0 0 0-.063 1.787 7.288 7.288 0 0 1-2.7 4.737 3.407 3.407 0 0 0-1.234 1.712c-.1.5 0 1.027-.067 1.532a2.781 2.781 0 0 1-2.555 2.057 7.405 7.405 0 0 1-3.832-.455 4.4 4.4 0 0 0 2.143-4.7c-.494-2.59-3.1-4.447-2.876-7.088a8.2 8.2 0 0 1 .721-2.331 21.334 21.334 0 0 0 1.23-4.419 7.487 7.487 0 0 0-.074-3.526 11.132 11.132 0 0 0-1.591-2.68 15.208 15.208 0 0 1-1.841-3.773 2.645 2.645 0 0 1-.176-1.246 2.582 2.582 0 0 1 .784-1.293c1.426-1.493 2.954-3.048 4.85-3.479a10.878 10.878 0 0 1 2.743-.106 32.224 32.224 0 0 0 4.784-.2c1.309-.153 3.526-.133 4.631-.987 1.03-.784 1.614-1.783 2.888-2.284a8.451 8.451 0 0 1 4.064-.439z" class="cls-2" data-name="Path 713" transform="translate(-190.358 -165.248)"/>
        <path id="Path_714" d="M308.48 513.76s5.266 10.371 3.671 13.564" class="cls-2" data-name="Path 714" transform="translate(-236.645 -311.196)"/>
        <path id="Path_715" d="M320.781 566.022l-7.711-9.795v.172s-.447-3.166 1.023-2.1c3.217 2.327 8.365 6.143 8.475 6.8s-1.042 3.301-1.787 4.923z" class="cls-2" data-name="Path 715" transform="translate(-239.398 -335.719)"/>
        <g id="Group_105" class="cls-4" data-name="Group 105" transform="translate(8.082 118.383)">
            <path id="Path_716" d="M302.744 348.8s.65 2.7-1.454 4.043a3.614 3.614 0 0 0 3.283-4.173 10.209 10.209 0 0 1-1.83.129z" data-name="Path 716" transform="translate(-240.354 -329.17)"/>
            <path id="Path_717" d="M147.519 390.622s29.361-16.275 33.671-24.574c3.091-5.955 10.539-9.525 14.5-11.068-2.888.968-12.6 4.678-16.256 11.707-4.31 8.3-33.671 24.574-33.671 24.574z" data-name="Path 717" transform="translate(-145.76 -333.008)"/>
            <path id="Path_718" d="M308.243 317.264a34.969 34.969 0 0 0 9.771-5.434L302.7 300.977l.349-1.489-1.465-.588-.639 2.711 15.319 10.853a36.966 36.966 0 0 1-8.021 4.8z" data-name="Path 718" transform="translate(-240.141 -298.9)"/>
            <path id="Path_719" d="M319.83 436.8a37.959 37.959 0 0 1 6.006-1.516l.027-.31a40.644 40.644 0 0 0-6.033 1.826z" data-name="Path 719" transform="translate(-251.63 -381.658)"/>
            <path id="Path_720" d="M252.339 436.788h-.139a.286.286 0 0 1-.337-.043 1.174 1.174 0 0 0 .337.043c.525-.306 1.313-2.688-.337-16.479-1.763-14.724-8.682-13.568-12.471-11.875 3.871-1.066 9.2-.145 10.716 12.514 1.649 13.791.862 16.177.337 16.479a3.526 3.526 0 0 0 1.9-.639z" data-name="Path 720" transform="translate(-202.706 -364.932)"/>
            <path id="Path_721" d="M267.077 483.873a1.175 1.175 0 0 1-.337-.043.286.286 0 0 0 .337.043z" data-name="Path 721" transform="translate(-219.34 -411.375)"/>
        </g>
        <path id="Path_722" d="M257.136 273.085c2.523.286 4.925 1.371 7.409 1.959a3.66 3.66 0 0 0 1.916.074c.964-.3 1.747-1.309 2.743-1.277a2.883 2.883 0 0 1 1.669.842 20.026 20.026 0 0 1 2.3 2.041c1.712 1.861 2.778 4.369 4.341 6.39s4.028 3.6 6.249 2.668c-1.508 5.877-6.461 10.371-11.813 10.735-2.135.145-4.31-.3-6.39.329a5.593 5.593 0 0 1-1.614.392c-1.175 0-2.147-1.093-2.891-2.155-1.74-2.5-3.134-5.336-5.093-7.613a4.164 4.164 0 0 0-2.323-1.606 4.3 4.3 0 0 0-2.57.721 12.2 12.2 0 0 0-3.761 2.609 5.216 5.216 0 0 0-1.269 4.588 11.206 11.206 0 0 1 .784 2.566c0 1.45-1.262 2.511-1.516 3.918a15.122 15.122 0 0 0-.063 1.787 7.288 7.288 0 0 1-2.7 4.737 3.407 3.407 0 0 0-1.234 1.712c-.1.5 0 1.026-.067 1.532a2.781 2.781 0 0 1-2.555 2.057 7.405 7.405 0 0 1-3.832-.454 4.4 4.4 0 0 0 2.143-4.7c-.494-2.59-3.1-4.447-2.876-7.088a8.2 8.2 0 0 1 .721-2.331 21.333 21.333 0 0 0 1.23-4.419 7.488 7.488 0 0 0-.074-3.526 11.133 11.133 0 0 0-1.591-2.68 15.208 15.208 0 0 1-1.841-3.773 2.644 2.644 0 0 1-.176-1.246 2.582 2.582 0 0 1 .784-1.293c1.426-1.493 2.954-3.048 4.85-3.479a10.875 10.875 0 0 1 2.743-.106 32.216 32.216 0 0 0 4.784-.2c1.309-.153 3.526-.133 4.631-.987 1.03-.784 1.614-1.783 2.888-2.284a8.451 8.451 0 0 1 4.064-.44z" class="cls-13" data-name="Path 722" transform="translate(-190.358 -164.768)"/>
        <path id="Path_724" d="M775.946 525.114s-2.233-3.526-5.587-.317-5.744 13.881-5.744 13.881-1.277 8.62 3.032 6.382c0 0 5.093-7.182 6.543-7.5s3.032-4.31 3.032-4.31z" class="cls-16" data-name="Path 724" transform="translate(-513.96 -317.088)"/>
        <path id="Path_725" d="M842.059 548.534s-3.032-1.438-3.989-.317-4.149 12.287-4.149 12.287-.956 7.342 2.233 7.021 8.776-11.817 8.776-11.817z" class="cls-16" data-name="Path 725" transform="translate(-556.138 -331.892)"/>
        <path id="Path_726" d="M842.059 548.534s-3.032-1.438-3.989-.317-4.149 12.287-4.149 12.287-.956 7.342 2.233 7.021 8.776-11.817 8.776-11.817z" class="cls-17" data-name="Path 726" transform="translate(-556.138 -331.892)"/>
        <path id="Path_727" d="M862.916 464.121l6.86 10.692s-.478 2.394-4.627 1.916l-14.2 8.937s-1.234 10.88 2.711 9.893c.639-.161 5.093-4.788 8.3-4.467l18.834-7.342s4.466-2.555 2.073-11.01-10.308-28.061-10.308-28.061l-12.51 7z" class="cls-18" data-name="Path 727" transform="translate(-566.463 -269.181)"/>
        <path id="Path_728" d="M862.916 464.121l6.86 10.692s-.478 2.394-4.627 1.916l-14.2 8.937s-1.234 10.88 2.711 9.893c.639-.161 5.093-4.788 8.3-4.467l18.834-7.342s4.466-2.555 2.073-11.01-10.308-28.061-10.308-28.061l-12.51 7z" class="cls-17" data-name="Path 728" transform="translate(-566.463 -269.181)"/>
        <path id="Path_729" d="M829.233 462.049c.956 6.065-4.466 6.543-4.466 6.543s-24.417.478-27.289-.161-6.7 1.117-6.7 1.117c-4.948-3.033-.956-10.531-.956-10.531s10.214-.317 12.608-.784 14.52-1.128 14.52-1.128-.956-5.9-7.342-20.9c-4.337-10.187-1.175-16.181 1.32-18.975a10.507 10.507 0 0 1 2.19-1.928l19.629.956a25.457 25.457 0 0 0 .11 2.966 31.587 31.587 0 0 0 2.605 9.795c-1.117 0-8.3 6.7-8.3 6.7s1.111 20.269 2.071 26.33z" class="cls-18" data-name="Path 729" transform="translate(-528.47 -251.312)"/>
        <path id="Path_730" d="M791.254 459.674s10.214-.317 12.608-.784 14.52-1.117 14.52-1.117-.956-5.9-7.342-20.9c-4.337-10.187-1.175-16.181 1.32-18.975a10.511 10.511 0 0 1 2.19-1.928l18.187.885v-.568l-19.629-.956a10.51 10.51 0 0 0-2.19 1.928c-2.484 2.8-5.658 8.788-1.32 18.975 6.4 14.986 7.35 20.891 7.35 20.891s-12.146.639-14.52 1.117-12.608.784-12.608.784-3.988 7.5.956 10.547c0 0 .149-.071.392-.172-3.287-3.384.086-9.727.086-9.727z" class="cls-2" data-name="Path 730" transform="translate(-528.473 -251.33)"/>
        <path id="Rectangle_470" d="M0 0h9.893v25.052H0z" class="cls-16" data-name="Rectangle 470" transform="translate(282.09 105.418)"/>
        <path id="Rectangle_471" d="M0 0h9.893v25.052H0z" class="cls-2" data-name="Rectangle 471" transform="translate(282.09 105.418)"/>
        <path id="Path_731" d="M877.838 249.855c.341.094.725.106.956.576a3.526 3.526 0 0 1 .231 1.175l.623 7.742a4.31 4.31 0 0 0 .29 1.481c.263.525.7.588 1.038.925.686.682.885 2.39.7 3.781a24.837 24.837 0 0 1-1.034 3.84 36.167 36.167 0 0 1-1.634 5.348c-.748 1.52-2.108 2.351-2.985 1.074s-.76-3.855-.925-5.967c-.274-3.526-1.649-6.567-1.743-10.116-.078-2.872.693-5.552 1.175-8.275.345-1.869.364-4.137.866-5.818.416 1.997 1.215 3.897 2.442 4.234z" class="cls-16" data-name="Path 731" transform="translate(-580.198 -148.112)"/>
        <path id="Path_732" d="M877.838 249.855c.341.094.725.106.956.576a3.526 3.526 0 0 1 .231 1.175l.623 7.742a4.31 4.31 0 0 0 .29 1.481c.263.525.7.588 1.038.925.686.682.885 2.39.7 3.781a24.837 24.837 0 0 1-1.034 3.84 36.167 36.167 0 0 1-1.634 5.348c-.748 1.52-2.108 2.351-2.985 1.074s-.76-3.855-.925-5.967c-.274-3.526-1.649-6.567-1.743-10.116-.078-2.872.693-5.552 1.175-8.275.345-1.869.364-4.137.866-5.818.416 1.997 1.215 3.897 2.442 4.234z" class="cls-2" data-name="Path 732" transform="translate(-580.198 -148.112)"/>
        <path id="Path_733" d="M760.974 209.978l-3.828 3.193s-.454-.533-1.132-1.395c-2.66-3.4-8.776-11.918-4.455-13.443s7.738 6.786 8.945 10.218c.306.87.47 1.427.47 1.427z" class="cls-19" data-name="Path 733" transform="translate(-505.214 -119.24)"/>
        <path id="Path_734" d="M943 209.01c-1.595 2.394-3.828 0-3.828 0s-.286-.427-.69-1.117c-1.312-2.221-3.887-7.146-2.182-9.1 1.959-2.229 6.813 5.379 6.962 8.949a2.124 2.124 0 0 1-.262 1.268z" class="cls-19" data-name="Path 734" transform="translate(-618.145 -119.389)"/>
        <path id="Path_735" d="M854.08 287.273s3.193 10.214 2.233 13.243 6.864 6.555 6.864 6.555h8.937s3.193-6.543 2.394-8.459-7.66-3.35-7.66-3.35-3.989 0-3.828-10.692z" class="cls-19" data-name="Path 735" transform="translate(-568.48 -171.802)"/>
        <path id="Path_736" d="M770.22 226.126l-3.828 3.193s-.455-.533-1.132-1.395c1.391-.247 3.55-2.276 4.494-3.224.302.87.466 1.426.466 1.426z" class="cls-2" data-name="Path 736" transform="translate(-514.459 -135.389)"/>
        <path id="Path_737" d="M947.267 223.507c-1.595 2.394-3.828 0-3.828 0s-.286-.427-.69-1.117l.051-.161c1.034.74 4.251.11 4.729 0a2.123 2.123 0 0 1-.262 1.278z" class="cls-2" data-name="Path 737" transform="translate(-622.409 -133.886)"/>
        <path id="Path_738" d="M867.941 419.206c-4.937 2.253-20.977-1.759-21.941-2a10.508 10.508 0 0 1 2.19-1.928l19.629.956a25.462 25.462 0 0 0 .122 2.972z" class="cls-2" data-name="Path 738" transform="translate(-563.566 -251.3)"/>
        <path id="Path_739" d="M801.674 258.651s-3.828 1.277-9.254-3.671c0 0-12.146-11.969-12.929-14.841l-9.4-16.455s-3.989 4.31-5.587 3.671l10.531 18.352s1.916 3.526 3.671 4.466c0 0 13.086 16.757 13.243 20.107s5.9 12.322 5.9 12.322 1.916 14.52-1.438 17.075c0 0 18.669 4.788 22.658 1.595 0 0-1.755-18.023 0-19.946 0 0 5.426-6.382 1.755-13.4 0 0-.784-3.828 1.277-5.744s11.331-16.119 11.331-16.119 2.233-3.193 2.233-5.266c0 0 4.149-14.042 3.526-17.713 0 0-3.671.784-4.788 0 0 0-5.426 16.456-6.065 17.075s-5.093 13.564-11.009 15-6.86 2.073-6.86 2.073 11.487 7.182 5.9 10.371-14.695-8.952-14.695-8.952z" class="cls-20" data-name="Path 739" transform="translate(-513.997 -134.403)"/>
        <path id="Path_740" d="M863.658 290.7a30.478 30.478 0 0 1-.231-4.533l-8.937 2.711a12.05 12.05 0 0 1 .56 1.834c1.023.451 2.4 1.516 3.589 1.516a8.138 8.138 0 0 0 5.019-1.528z" class="cls-2" data-name="Path 740" transform="translate(-568.729 -172.775)"/>
        <circle id="Ellipse_153" cx="8.298" cy="8.298" r="8.298" class="cls-19" data-name="Ellipse 153" transform="translate(281.451 102.386)"/>
        <path id="Path_741" d="M828.56 246.446c-1.826.141-3.863 1.4-3.761 3.232.055 1.007.744 1.857 1.046 2.821.725 2.331-.889 4.67-2.308 6.661s-2.743 4.627-1.528 6.735a16.6 16.6 0 0 0 1.12 1.461c1.5 2.026 1.481 4.76 2.147 7.193a12.62 12.62 0 0 0 14.826 9.011 7.891 7.891 0 0 1-1.665-5.336c.09-1.395.541-2.852 0-4.141-.7-1.657-2.742-2.312-3.8-3.761a6.011 6.011 0 0 1-.474-5.187c.509-1.728 1.391-3.33 1.814-5.093a15.344 15.344 0 0 1 .392-1.524c.737-2.092 2.938-3.307 5.093-3.828s4.419-.552 6.523-1.238 4.149-2.292 4.392-4.5c-1.771.709-3.413-1.14-5.121-1.99-2.813-1.395-6.022-.082-8.921.239-3.298.369-6.435-1.001-9.775-.755z" class="cls-2" data-name="Path 741" transform="translate(-548.685 -148.546)"/>
        <path id="Path_742" d="M828.151 245.636c-1.826.141-3.863 1.4-3.761 3.232.055 1.007.744 1.857 1.046 2.821.725 2.331-.889 4.67-2.308 6.661s-2.743 4.627-1.528 6.735a16.605 16.605 0 0 0 1.121 1.461c1.5 2.026 1.481 4.76 2.147 7.193a12.62 12.62 0 0 0 14.826 9.011 7.89 7.89 0 0 1-1.665-5.336c.09-1.395.541-2.852 0-4.141-.7-1.657-2.743-2.312-3.8-3.761a6.011 6.011 0 0 1-.474-5.187c.509-1.728 1.391-3.33 1.814-5.093a15.329 15.329 0 0 1 .392-1.524c.737-2.092 2.938-3.307 5.093-3.828s4.419-.552 6.523-1.238 4.149-2.292 4.392-4.5c-1.771.709-3.413-1.14-5.121-1.99-2.813-1.395-6.022-.082-8.921.239-3.292.365-6.415-1.018-9.776-.755z" class="cls-16" data-name="Path 742" transform="translate(-548.435 -148.054)"/>
        <path id="Path_743" d="M885.65 326.3s3.322 2.966 3.977 4.275" class="cls-2" data-name="Path 743" transform="translate(-587.681 -197.182)"/>
        <path id="Path_744" d="M884.428 371.51a35.733 35.733 0 0 0-6.065.478c-1.916.478-6.543 0-6.543 0" class="cls-2" data-name="Path 744" transform="translate(-579.269 -224.679)"/>
        <g id="Group_106" class="cls-4" data-name="Group 106" transform="translate(250.499 88.665)">
            <path id="Path_745" d="M887.684 320.581a3.989 3.989 0 0 1-1.148.439 4.388 4.388 0 0 0 3.064-.439c5.587-3.193-5.9-10.371-5.9-10.371h-1.92s11.491 7.182 5.904 10.371z" data-name="Path 745" transform="translate(-835.826 -276.061)"/>
            <path id="Path_746" d="M952.046 223.34a1.675 1.675 0 0 0-.039-.29 18.754 18.754 0 0 1-1.986.3 8.8 8.8 0 0 0 2.025-.01z" data-name="Path 746" transform="translate(-877.33 -223.05)"/>
            <path id="Path_747" d="M798.318 306.337c3.35-2.555 1.438-17.075 1.438-17.075s-5.744-8.937-5.9-12.287-13.243-20.107-13.243-20.107c-1.755-.956-3.671-4.466-3.671-4.466s-10.853-17.713-12.447-18.352l10.526 18.35s1.916 3.526 3.671 4.466c0 0 13.086 16.757 13.243 20.107s5.9 12.3 5.9 12.3 1.916 14.52-1.438 17.075c0 0 11.476 2.942 18.356 2.676-6.895-.243-16.435-2.687-16.435-2.687z" data-name="Path 747" transform="translate(-764.49 -229.74)"/>
            <path id="Path_748" d="M858.957 314l-.094-.121a2.526 2.526 0 0 1-.333.074c.149.021.29.037.427.047z" data-name="Path 748" transform="translate(-821.685 -278.293)"/>
        </g>
        <g id="Group_107" class="cls-4" data-name="Group 107" transform="translate(304.912 88.645)">
            <path id="Path_749" d="M926.124 223l-.1.02c-.168 4.9-3.569 16.416-3.569 16.416 0 2.073-2.233 5.266-2.233 5.266s-9.254 14.2-11.331 16.119-1.277 5.744-1.277 5.744l.02.039a5.794 5.794 0 0 1 1.414-4.51c2.073-1.916 11.331-16.119 11.331-16.119s2.233-3.193 2.233-5.266c.001.024 4.15-14.018 3.512-17.709z" data-name="Path 749" transform="translate(-905.86 -223)"/>
            <path id="Path_750" d="M903.37 354.48c.239 1.356.078-.078.161 1.277 0 0 3.918-4.6 2.848-10.277a13.971 13.971 0 0 1-3.009 9z" data-name="Path 750" transform="translate(-903.37 -297.493)"/>
        </g>
        <circle id="Ellipse_155" cx="1.07" cy="1.07" r="1.07" class="cls-21" data-name="Ellipse 155" transform="translate(35.241 258.713)"/>
        <path id="Path_809" d="M1034.294 654.249c0 1.512-.168 2.743-.392 2.743s-.392-1.226-.392-2.743.212-.784.419-.784.365-.725.365.784z" class="cls-22" data-name="Path 809" transform="translate(-677.61 -396.057)"/>
        <path id="Path_810" d="M1036.842 658.744c-1.328.725-2.484 1.175-2.582.976s.893-.921 2.221-1.642.8-.2.905 0 .78-.059-.544.666z" class="cls-22" data-name="Path 810" transform="translate(-678.061 -398.746)"/>
        <path id="Path_813" d="M960.09 654.249c0 1.512.168 2.743.392 2.743s.392-1.226.392-2.743-.212-.784-.419-.784-.365-.725-.365.784z" class="cls-22" data-name="Path 813" transform="translate(-632.956 -396.057)"/>
        <path id="Path_814" d="M953.483 658.744c1.328.725 2.484 1.175 2.582.976s-.893-.921-2.221-1.642-.8-.2-.905 0-.784-.059.544.666z" class="cls-22" data-name="Path 814" transform="translate(-628.445 -398.746)"/>
    </g>
</svg>
