<svg xmlns="http://www.w3.org/2000/svg" id="Group_9" width="500" height="359.634" data-name="Group 9" viewBox="0 0 500 359.634">
    <defs>
        <style>
            .cls-1{fill:none;stroke:#3f3d56;stroke-miterlimit:10}.cls-2{fill:#f2f2f2}.cls-3,.cls-4{fill:#007fff}.cls-3{opacity:.3}.cls-5{fill:#2f2e41}.cls-6{fill:#a0616a}.cls-7{opacity:.1}.cls-8{fill:#3f3d56}
        </style>
    </defs>
    <path id="Line_2" d="M0 0h80.426" class="cls-1" data-name="Line 2" transform="translate(0 359.134)"/>
    <rect id="Rectangle_306" width="357.074" height="241.764" class="cls-2" data-name="Rectangle 306" rx="19.398" transform="translate(117.733 61.896)"/>
    <rect id="Rectangle_307" width="357.074" height="241.764" class="cls-1" data-name="Rectangle 307" rx="19.398" transform="translate(106.831 46.634)"/>
    <path id="Line_3" d="M0 0h357.074" class="cls-1" data-name="Line 3" transform="translate(106.831 69.813)"/>
    <rect id="Rectangle_308" width="97.384" height="15.019" class="cls-3" data-name="Rectangle 308" rx="7.093" transform="translate(320.252 124.154)"/>
    <rect id="Rectangle_309" width="134.69" height="12.112" class="cls-3" data-name="Rectangle 309" rx="6.056" transform="translate(301.599 165.82)"/>
    <rect id="Rectangle_310" width="134.69" height="12.112" class="cls-3" data-name="Rectangle 310" rx="6.056" transform="translate(301.599 198.766)"/>
    <rect id="Rectangle_311" width="134.69" height="12.112" class="cls-3" data-name="Rectangle 311" rx="6.056" transform="translate(301.599 231.712)"/>
    <rect id="Rectangle_312" width="97.384" height="15.019" class="cls-1" data-name="Rectangle 312" rx="7.093" transform="translate(325.097 119.309)"/>
    <rect id="Rectangle_313" width="134.69" height="12.112" class="cls-1" data-name="Rectangle 313" rx="6.056" transform="translate(306.444 160.975)"/>
    <rect id="Rectangle_314" width="134.69" height="12.112" class="cls-1" data-name="Rectangle 314" rx="6.056" transform="translate(306.444 193.921)"/>
    <rect id="Rectangle_315" width="134.69" height="12.112" class="cls-1" data-name="Rectangle 315" rx="6.056" transform="translate(306.444 226.867)"/>
    <circle id="Ellipse_30" cx="7.267" cy="7.267" r="7.267" class="cls-3" data-name="Ellipse 30" transform="translate(126.696 53.902)"/>
    <circle id="Ellipse_31" cx="7.267" cy="7.267" r="7.267" class="cls-3" data-name="Ellipse 31" transform="translate(147.045 53.902)"/>
    <circle id="Ellipse_32" cx="7.267" cy="7.267" r="7.267" class="cls-3" data-name="Ellipse 32" transform="translate(167.393 53.902)"/>
    <circle id="Ellipse_33" cx="7.267" cy="7.267" r="7.267" class="cls-1" data-name="Ellipse 33" transform="translate(129.603 50.995)"/>
    <circle id="Ellipse_34" cx="7.267" cy="7.267" r="7.267" class="cls-1" data-name="Ellipse 34" transform="translate(149.952 50.995)"/>
    <circle id="Ellipse_35" cx="7.267" cy="7.267" r="7.267" class="cls-1" data-name="Ellipse 35" transform="translate(170.3 50.995)"/>
    <path id="Path_157" d="M518.088 602.163a72.243 72.243 0 0 1-1.13-18.586s-6.152-27.028-10.993-29.55c-.074.1-2.423 3.175-2.721 12.706a39.185 39.185 0 0 1-3.73 16.035s1.109 12.068.475 19.393z" class="cls-4" data-name="Path 157" transform="translate(-298.44 -323.94)"/>
    <path id="Path_158" d="M499.172 298.379H387.517A11.517 11.517 0 0 0 376 309.9v148.958a11.517 11.517 0 0 0 11.517 11.517h39.174c-1.308-5.426-2.935-13.9-1.287-19.793.077-.275.159-.546.25-.809a30.763 30.763 0 0 0 1.11-11.8 24.521 24.521 0 0 0 0-10.287c-1.21-5.647-2.057-11.194-2.057-11.194a72.343 72.343 0 0 1-.085-12.037c.013-.1.028-.2.042-.293l-.321-.074s1.715-7.765 2.32-12.707c.143-1.167.331-2.645.534-4.222a10.148 10.148 0 0 1-1.644-.417c-5.446-1.916-7.16-19.262-7.16-19.262v-5.5s-1.815-8.421 4.538-12.152a73.884 73.884 0 0 1 8.734-4.645c.047-.033.092-.064.14-.1a5.359 5.359 0 0 0 1.594-2.051q.013-.208.006-.413c-.1-1.97-1.475-3.762-2.776-5.326l-3.33-4a3.91 3.91 0 0 1-.858-1.388 3.2 3.2 0 0 1-.091-.874v-.326q.027-1.492.081-2.982c.031-.868.25-1.964 1.1-2.142.442-.093 1.028.069 1.261-.318a.759.759 0 0 0 .057-.514c0 .013 0 .026-.007.039l-.009-.048a10.868 10.868 0 0 1-.315-2.125 2.829 2.829 0 0 1 .137-.954c.493-1.441 2.189-2.033 3.688-2.3s3.181-.506 4.122-1.7a13.068 13.068 0 0 1 .818-1.15 3.213 3.213 0 0 1 1.534-.774 8.478 8.478 0 0 1 5.575.495 4.912 4.912 0 0 0 2.249.726c.826-.052 1.532-.634 2.347-.775a3.339 3.339 0 0 1 3.226 1.927 4.773 4.773 0 0 1 .6 2.434 3.349 3.349 0 0 1-.855 2.3c-.567.6-1.413 1.015-1.648 1.807-.1.322-.074.67-.158 1-.011.041-.028.079-.042.118.016.02.033.039.048.06a10.286 10.286 0 0 1-5.006 16c0 .1-.008.2-.007.307a4.444 4.444 0 0 0 1.376 3.423l8.986 3.685s5.41-.656 7.362 7.417a13.968 13.968 0 0 1 .334 4.1 12.223 12.223 0 0 0 1.481 6.134c2.219 4.437 1.714 14.623-2.824 15.632-4.3.955-5.971.554-6.136.509l-.01.178c.071 1.911.751 18.4 3.221 20.39.683.552.552.924-.008 1.175s0 .106.015.3c.074 1.206.455 5.8 2.109 8.409 1.917 3.025 1.715 20.474 1.715 20.474l1.31 10.287s-.806 6.354 0 7.462c.458.629 1.013 10.37 1.407 18.687h33.687a11.517 11.517 0 0 0 11.517-11.517V309.9a11.517 11.517 0 0 0-11.518-11.517z" class="cls-4" data-name="Path 158" transform="translate(-234.769 -192.152)"/>
    <rect id="Rectangle_316" width="134.69" height="171.996" class="cls-1" data-name="Rectangle 316" rx="23.772" transform="translate(129.603 93.146)"/>
    <path id="Path_159" d="M179.232 400.161s-4.517-1.336-5.486.118 1.321 11.99 1.321 11.99l9.954.6-3.474-8.773z" class="cls-5" data-name="Path 159" transform="translate(-130.383 -244.332)"/>
    <path id="Path_160" d="M105.358 579.347s9.058 19.885 2.082 19.26-9.682-19.26-9.682-19.26z" class="cls-6" data-name="Path 160" transform="translate(-91.334 -336.992)"/>
    <path id="Path_161" d="M234.452 573.113S230.479 594.6 237.1 592.3s4.731-21.031 4.731-21.031z" class="cls-6" data-name="Path 161" transform="translate(-161.191 -332.83)"/>
    <path id="Path_162" d="M160.522 386.589s-.1 9.995 3.748 10.515-2.186 5.83-2.186 5.83l-6.871 1.353-9.891-.729-4.373-5.622s7.7-3.644 4.373-14.992z" class="cls-6" data-name="Path 162" transform="translate(-113.6 -235.746)"/>
    <path id="Path_163" d="M160.522 386.589s-.1 9.995 3.748 10.515-2.186 5.83-2.186 5.83l-6.871 1.353-9.891-.729-4.373-5.622s7.7-3.644 4.373-14.992z" class="cls-7" data-name="Path 163" transform="translate(-113.6 -235.746)"/>
    <path id="Path_164" d="M170.317 564.93s4.893 10.515 1.041 43.518c0 0 1.145 11.66.208 13.846s-8.641 31.857-8.641 31.857-9.89 2.186-11.244-4.373c0 0 1.353-9.37 1.249-10.827s2.186-17.386 2.186-17.386l-4.685-30.816-3.54 27.8s0 8.016-1.145 9.786 0 37.375 0 37.375 3.227 5.414-1.666 5.518-9.266-.1-9.682-3.54-.625-6.871-1.666-8.953-2.395-25.923-2.082-34.252-6.871-51.118-4.581-55.594 44.248-3.959 44.248-3.959z" class="cls-5" data-name="Path 164" transform="translate(-105.697 -329.551)"/>
    <circle id="Ellipse_36" cx="12.493" cy="12.493" r="12.493" class="cls-6" data-name="Ellipse 36" transform="translate(29.119 129.605)"/>
    <path id="Path_165" d="M137.734 410.551s7.6 5.622 18.636 1.145c0 0 3.644-1.77 3.331-4.477s7.6 21.759 7.6 21.759l8.016 42.581-.416 17.386s-3.54-1.77-14.575 2.186-29.046-4.477-29.046-4.477l.625-44.663.625-26.027 1.666-5.726s.831-1.561 3.538.313z" class="cls-2" data-name="Path 165" transform="translate(-108.615 -248.152)"/>
    <path id="Path_166" d="M182.063 399.883s1.839-.3 3.609 2.512 5.934 4.581 5.934 4.581 10.1.625 11.556 6.038 5.1 12.805 6.871 26.444 5.31 35.4 5.83 37.167-.729 7.184.729 8.849-10.307 1.666-10.307 1.666-1.041-8.537-1.77-8.537-.521 5.726.208 9.89-5.31 0-5.31 0-4.685-19.052-9.162-36.23-7.079-26.652-6.246-30.5 3.123-14.888 1.458-15.929-3.4-5.951-3.4-5.951z" class="cls-5" data-name="Path 166" transform="translate(-134.794 -244.473)"/>
    <path id="Path_167" d="M119.362 399.874a113.4 113.4 0 0 0-9.591 6.373c-6.871 4.893-11.556 8.641-11.556 8.641s-2.707 2.082-4.373 14.471-5.414 44.455-3.956 48.515 1.978 6.455 1.458 8.849 10.931 2.29 11.14 1.77-.312-9.995.208-10.2 3.331 5.622 3.852 10.515 6.559 8.745 7.912 8.745 8.329-28.214 8.433-47.474-2.29-35.5-4.06-37.792.533-12.413.533-12.413z" class="cls-5" data-name="Path 167" transform="translate(-87.107 -244.473)"/>
    <path id="Path_168" d="M179.012 738.581s.833-2.29 3.748-1.562 4.893-1.874 4.893-1.874 1.562-.208.521 1.77-1.874 3.332-1.874 3.332 6.247 14.263 2.186 17.7a8.706 8.706 0 0 1-8.745 1.353s-4.581-3.227-4.373-11.764c0 0-.208-2.707-2.707-7.079s-4.373-11.036-1.353-12.285a16.354 16.354 0 0 1 3.8-1.3s-1.413 6.462 2.237 8.72z" class="cls-8" data-name="Path 168" transform="translate(-128.447 -413.043)"/>
    <path id="Path_169" d="M145.671 778.4s-2.5-4.685 1.666-5.206 8.641-.833 8.433 1.353-.729 5.518-.729 5.518l.729 2.395s.208 5.934.937 6.663 4.685 6.975-3.748 6.975-10.931-.937-10.2-2.915.937-11.764.937-11.764z" class="cls-8" data-name="Path 169" transform="translate(-114.469 -436.728)"/>
    <path id="Path_170" d="M144.018 341.757s5.83 1.562 8.849 2.186 2.707-1.145 2.707-1.145 3.956.521 3.748.1 1.666-2.6-.521-5.1-1.562-4.373-1.562-4.373h-1.874l-.521-.729h-2.914s-2.186-.833-7.912 0-13.534 1.041-14.159 4.477-3.852 7.7-2.707 9.682 7.7 10.1 8.329 13.534 3.541 4.2 3.436 2.047-3.02-9.647-.521-9.96 6.767-6.659 5.622-10.719z" class="cls-5" data-name="Path 170" transform="translate(-106.362 -209.653)"/>
    <path id="Path_171" d="M1008.281 86.584a11.135 11.135 0 0 0-9.6 6.711c-2.4 5.8.69 12.616 5.329 16.846s10.6 6.648 16.012 9.827c7.272 4.269 13.807 10.2 17.445 17.8s4.026 17.03-.251 24.3c-3.97 6.745-11.188 10.782-18.073 14.506" class="cls-1" data-name="Path 171" transform="translate(-555.335 -82.971)"/>
    <ellipse id="Ellipse_37" cx="8.479" cy="4.118" class="cls-4" data-name="Ellipse 37" rx="8.479" ry="4.118" transform="translate(450.581)"/>
    <ellipse id="Ellipse_38" cx="8.479" cy="4.118" class="cls-4" data-name="Ellipse 38" rx="8.479" ry="4.118" transform="translate(457.364 27.132)"/>
    <ellipse id="Ellipse_39" cx="8.479" cy="4.118" class="cls-4" data-name="Ellipse 39" rx="8.479" ry="4.118" transform="translate(441.86 31.492)"/>
    <ellipse id="Ellipse_40" cx="8.479" cy="4.118" class="cls-4" data-name="Ellipse 40" rx="8.479" ry="4.118" transform="translate(466.085 54.264)"/>
    <ellipse id="Ellipse_41" cx="8.479" cy="4.118" class="cls-4" data-name="Ellipse 41" rx="8.479" ry="4.118" transform="translate(483.043 54.264)"/>
</svg>
