<svg xmlns="http://www.w3.org/2000/svg" xmlns:xlink="http://www.w3.org/1999/xlink" width="228.221" height="363.301" viewBox="0 0 228.221 363.301">
    <defs>
        <style>
            .cls-1,.cls-10{fill:#007fff}.cls-1{opacity:.3}.cls-2{opacity:.5}.cls-3{fill:url(#linear-gradient)}.cls-4{fill:#fff}.cls-5{clip-path:url(#clip-path)}.cls-6{fill:none;stroke:#fff;stroke-miterlimit:10;stroke-width:4px}.cls-7{fill:url(#linear-gradient-2)}.cls-8{fill:#ff5252}.cls-9{fill:#dbdbdb}.cls-11{fill:#ffb9b9}.cls-12{fill:#2f2e41}.cls-13{fill:#575a89}.cls-14{opacity:.1}
        </style>
        <linearGradient id="linear-gradient" x1=".141" x2=".929" y1="1.022" y2="-.012" gradientUnits="objectBoundingBox">
            <stop offset="0" stop-color="gray" stop-opacity=".251"/>
            <stop offset=".535" stop-color="gray" stop-opacity=".122"/>
            <stop offset="1" stop-color="gray" stop-opacity=".102"/>
        </linearGradient>
        <clipPath id="clip-path">
            <path id="Path_1093" d="M473.134 120.348a14.561 14.561 0 0 1-14.32 12.42l-62.036.151a14.561 14.561 0 0 1-14.381-12.35l-32.86.08a6.822 6.822 0 0 0-6.805 6.838l.715 294.292a6.822 6.822 0 0 0 6.838 6.805l156.957-.382a6.822 6.822 0 0 0 6.805-6.838l-.715-294.292a6.822 6.822 0 0 0-6.838-6.805z" class="cls-1" data-name="Path 1093" transform="translate(-342.732 -120.267)"/>
        </clipPath>
        <linearGradient id="linear-gradient-2" x1=".48" x2=".48" y1="1.023" y2=".018" xlink:href="#linear-gradient"/>
    </defs>
    <g id="Group_452" data-name="Group 452" transform="translate(-67.912 -49.442)">
        <g id="Group_446" class="cls-2" data-name="Group 446" transform="translate(67.913 49.442)">
            <path id="Path_1090" d="M506.6 95.908l-170.572.414a7.01 7.01 0 0 0-6.994 7.025l.776 319.03a7.01 7.01 0 0 0 7.028 6.991l170.572-.414a7.01 7.01 0 0 0 6.994-7.025l-.776-319.03a7.01 7.01 0 0 0-7.028-6.991z" class="cls-3" data-name="Path 1090" transform="translate(-329.034 -95.908)"/>
        </g>
        <rect id="Rectangle_577" width="179.606" height="324.191" class="cls-4" data-name="Rectangle 577" rx="13.635" transform="rotate(-.139 22384.666 -28992.57)"/>
        <path id="Path_1091" d="M473.134 120.348a14.561 14.561 0 0 1-14.32 12.42l-62.036.151a14.561 14.561 0 0 1-14.381-12.35l-32.86.08a6.822 6.822 0 0 0-6.805 6.838l.715 294.292a6.822 6.822 0 0 0 6.838 6.805l156.957-.382a6.822 6.822 0 0 0 6.805-6.838l-.715-294.292a6.822 6.822 0 0 0-6.838-6.805z" class="cls-1" data-name="Path 1091" transform="translate(-267.792 -58.329)"/>
        <g id="Group_447" class="cls-5" data-name="Group 447" transform="translate(74.94 61.938)">
            <path id="Path_1092" d="M43 58.123L287.262 258.17l3.209-163.718-275.862-9.776 43.562 41.775 276.29 21.232L46.683 220.21l260.6 84.591-.977 32.052L37.4 320.868l8.141 80.832 118.085-10.536L226.955.32" class="cls-6" data-name="Path 1092" transform="translate(-89.364 -38.016)"/>
        </g>
        <g class="marker1" id="Group_4541" data-name="Group 4541">
            <path id="Path_11111" d="M567.942 263.2c-2.381 17.177-37.715 53.1-37.715 53.1s-26.715-44.522-24.334-61.7a31.321 31.321 0 1 1 62.049 8.6z" class="cls-7" data-name="Path 1111" transform="translate(-341.178 -121.585)"/>
            <path id="Path_11121" d="M567.634 266.351c-2.233 16.112-35.376 49.806-35.376 49.806S507.2 274.4 509.433 258.285a29.379 29.379 0 1 1 58.2 8.066z" class="cls-8" data-name="Path 1112" transform="translate(-342.906 -124.198)"/>
            <ellipse id="Ellipse_1921" cx="14.726" cy="14.689" class="cls-4" data-name="Ellipse 192" rx="14.726" ry="14.689" transform="rotate(-82.109 174.859 -28.8)"/>
        </g>
        <g class="marker2" id="Group_4542" data-name="Group 4542">
            <path id="Path_11112" d="M567.942 263.2c-2.381 17.177-37.715 53.1-37.715 53.1s-26.715-44.522-24.334-61.7a31.321 31.321 0 1 1 62.049 8.6z" class="cls-7" data-name="Path 1111" transform="translate(-341.178 -121.585)"/>
            <path id="Path_11122" d="M567.634 266.351c-2.233 16.112-35.376 49.806-35.376 49.806S507.2 274.4 509.433 258.285a29.379 29.379 0 1 1 58.2 8.066z" class="cls-8" data-name="Path 1112" transform="translate(-342.906 -124.198)"/>
            <ellipse id="Ellipse_1922" cx="14.726" cy="14.689" class="cls-4" data-name="Ellipse 192" rx="14.726" ry="14.689" transform="rotate(-82.109 174.859 -28.8)"/>
        </g>
        <rect id="Rectangle_578" width="40.024" height="2.501" class="cls-9" data-name="Rectangle 578" rx="1.251" transform="translate(138.583 66.323)"/>
        <circle id="Ellipse_186" cx="1.501" cy="1.501" r="1.501" class="cls-9" data-name="Ellipse 186" transform="translate(185.62 65.092)"/>
        <path id="Rectangle_587" d="M0 0h11.41v14.67H0z" class="cls-10" data-name="Rectangle 587" transform="rotate(-2.221 3785.55 -6189.164)"/>
        <path id="Path_1098" d="M576.958 372.166s-15.79-7.544-15.537-1.029 15.916 10.8 15.916 10.8z" class="cls-11" data-name="Path 1098" transform="translate(-374.291 -179.211)"/>
        <path id="Path_1099" d="M594.959 474.842s-7.449 18.233-10.2 31.39-6.944 31.264-1.552 44.1 20.721 50.582 20.879 54.654-1.313 8.207 1.945 8.081 20.985-5.708 21.7-8.182-6.048-8.737-6.048-8.737l-16.712-52.369 17.437-34.117 12.577 50.9 2.463 63.524s12.09-3.731 13.845-.537c0 0 5.417-7.551 6.1-10.84s-2.558-65.967-2.558-65.967 11.1-71.391 2.139-71.044-44.041-21.129-62.015-.856z" class="cls-12" data-name="Path 1099" transform="translate(-383.63 -226.759)"/>
        <path id="Path_1100" d="M617.921 740.893s-8.264 18.265-9.047 19.111-6.168 9.211-2.1 9.053 13.687-4.609 20.764-11.409 16.408-18.58 15.562-19.363-6.642-3.005-6.642-3.005z" class="cls-12" data-name="Path 1100" transform="translate(-395.648 -357.838)"/>
        <path id="Path_1101" d="M691.573 764.582s-.5 8.176-2 11.5-1.313 8.207 2.759 8.049 14.6-2.2 14.6-2.2.625-4.918-.221-5.7-4.451-9.615-2.917-12.122-12.221.473-12.221.473z" class="cls-12" data-name="Path 1101" transform="translate(-436.282 -371.389)"/>
        <path id="Path_1102" d="M694.817 248.8s8.681 13.529 12.065 16.661-6.136 10.026-6.136 10.026l-17.039 2.292s.214-15.505-.663-17.1 11.773-11.879 11.773-11.879z" class="cls-11" data-name="Path 1102" transform="translate(-433.501 -120.924)"/>
        <path id="Path_1103" d="M659.971 279.771s3.51 6.389 6.768 6.263 20.108-7.3 20.827-9.78 5.581 17.728 5.581 17.728l-41.231 72.559-10.056-6.951 4.873-42.6 4-22.993z" class="cls-10" data-name="Path 1103" transform="translate(-413.466 -134.191)"/>
        <path id="Path_1104" d="M669.428 340.055a22.817 22.817 0 0 0-2.529 10.7c.006.163.013.326.027.488.39 7.538 3.167 16.255 4.163 22.595.723 4.548.517 7.867-2.144 8.647-6.452 1.881.941 3.226-24.022 11.535s-29.319 1.137-29.382-.492 3.535-14 2.689-14.786-11.837 10.247-15.158 8.744-.379-9.773-.379-9.773 7.481-17.419 7.323-21.491 11.332-23.277 11.332-23.277l7.815-50.872s3.005-6.642 7.045-7.614a10.009 10.009 0 0 1 7.393 1.345l-6.761 14.944-7.134 26.377 1.193 9.741s8.3-17.45 13.744-24.187S661.708 280 661.708 280s2.712-9.151.665-11.885 8.54-3.153 13.054 8.091c2.393 5.959 6.277 14.846 8.71 23.12 2.168 7.33 3.193 14.182 1.044 18.1-3.281 5.98-11.543 13.844-15.753 22.629z" class="cls-13" data-name="Path 1104" transform="translate(-393.807 -129.538)"/>
        <path id="Path_1105" d="M746.562 346.67c-3.283 5.984-11.543 13.849-15.753 22.633-1.1-3.962-2.441-8.062-2.441-8.062s-5.146-27.532 10.075-34.648a10.187 10.187 0 0 1 7.075 1.977c2.168 7.33 3.192 14.183 1.044 18.1z" class="cls-14" data-name="Path 1105" transform="translate(-455.187 -158.786)"/>
        <path id="Path_1106" d="M615.834 362.391l-12.9 3.763-17.917.695-1.843 15.569 29.445 2.121s7.35-20.677 3.215-22.148z" class="cls-13" data-name="Path 1106" transform="translate(-384.884 -176.242)"/>
        <path id="Path_1107" d="M674.658 464.431s-17.263 2.864-13.323 8.059 19.233-.267 19.233-.267z" class="cls-11" data-name="Path 1107" transform="translate(-422.666 -225.936)"/>
        <path id="Path_1108" d="M704.938 431.7c.39 7.538 3.167 16.255 4.163 22.595-5.5 5.2-10.729 9.8-12.7 9.872-4.072.158-10.619-.4-13.031.505s-3.826-14.533-3.826-14.533 1.439-4.95 7.86-7.646a89.412 89.412 0 0 0 17.534-10.793z" class="cls-14" data-name="Path 1108" transform="translate(-431.819 -209.998)"/>
        <path id="Path_1109" d="M714.7 317.061s13.782-2.166 13.037 20.7 1.453 37.463-4.09 41.756-23.548 23.751-27.62 23.909-10.619-.4-13.031.505-3.826-14.533-3.826-14.533 1.439-4.95 7.86-7.646 21.547-12.255 21.421-15.512-3.826-14.533-3.826-14.533-5.142-27.53 10.075-34.646z" class="cls-13" data-name="Path 1109" transform="translate(-431.638 -154.14)"/>
        <circle id="Ellipse_191" cx="17.931" cy="17.931" r="17.931" class="cls-11" data-name="Ellipse 191" transform="translate(231.232 112.048)"/>
        <path id="Path_1110" d="M649.751 199.364a3.461 3.461 0 0 1-1.508.757 1.076 1.076 0 0 1-1.247-.864 4.471 4.471 0 0 1-1.711 2.194c-.838.437-2.133.07-2.253-.866a3.954 3.954 0 0 1-.91 1.921 1.363 1.363 0 0 1-1.916.064 49.24 49.24 0 0 1 .256 6.1 7.767 7.767 0 0 0 2.195 5.529c2.242 1.951 5.613 1.47 8.562 1.1a2.6 2.6 0 0 1 1.342.073c1.1.47 1.054 2.007 1.069 3.208a8.912 8.912 0 0 0 7.8 8.463 4.468 4.468 0 0 0 3.32-.81c.837-.71 1.265-1.866 2.224-2.4 1.561-.867 3.453.4 4.594 1.771s2.266 3.062 4.033 3.314c2.338.332 4.118-2.05 4.992-4.244a24.739 24.739 0 0 0-.492-19.222c-4.877-10.64-21.551-12.323-30.35-6.088z" class="cls-12" data-name="Path 1110" transform="translate(-412.661 -95.085)"/>
    </g>
</svg>
