<svg xmlns="http://www.w3.org/2000/svg" width="172" height="172" viewBox="0 0 172 172">
    <defs>
        <style>
            .cls-1{fill:#1ab2e8}.cls-2{fill:#fff}.cls-3{filter:url(#Ellipse_144)}
        </style>
        <filter id="Ellipse_144" width="172" height="172" x="0" y="0" filterUnits="userSpaceOnUse">
            <feOffset dy="10"/>
            <feGaussianBlur result="blur" stdDeviation="10"/>
            <feFlood flood-color="#1ab2e8" flood-opacity=".702"/>
            <feComposite in2="blur" operator="in"/>
            <feComposite in="SourceGraphic"/>
        </filter>
    </defs>
    <g id="Group_86" data-name="Group 86" transform="translate(-485 -952)">
        <g class="cls-3" transform="translate(485 952)">
            <circle id="Ellipse_144-2" cx="56" cy="56" r="56" class="cls-1" data-name="Ellipse 144" transform="translate(30 20)"/>
        </g>
        <path id="Path_622" d="M53.622 62.594a21.967 21.967 0 0 1-6.316 1.732 11.045 11.045 0 0 0 4.835-6.082 22.176 22.176 0 0 1-6.99 2.671 11.008 11.008 0 0 0-18.743 10.029A31.229 31.229 0 0 1 3.737 59.451a11.013 11.013 0 0 0 3.4 14.683 11 11 0 0 1-4.982-1.38v.137a11.011 11.011 0 0 0 8.822 10.786 11.142 11.142 0 0 1-2.9.385 10.558 10.558 0 0 1-2.071-.2A11.006 11.006 0 0 0 16.285 91.5a22.069 22.069 0 0 1-13.66 4.7A23.377 23.377 0 0 1 0 96.048 31.093 31.093 0 0 0 16.862 101c20.235 0 31.3-16.76 31.3-31.3l-.037-1.424a21.966 21.966 0 0 0 5.497-5.682z" class="cls-2" data-name="Path 622" transform="translate(543.997 948.559)"/>
    </g>
</svg>
