<?xml version="1.0" standalone="no"?>
<!DOCTYPE svg PUBLIC "-//W3C//DTD SVG 20010904//EN"
 "http://www.w3.org/TR/2001/REC-SVG-20010904/DTD/svg10.dtd">
<svg version="1.0" xmlns="http://www.w3.org/2000/svg"
 width="1509.000000pt" height="1509.000000pt" viewBox="0 0 1509.000000 1509.000000"
 preserveAspectRatio="xMidYMid meet">
<metadata>
Created by potrace 1.11, written by Peter Selinger 2001-2013
</metadata>
<g transform="translate(0.000000,1509.000000) scale(0.100000,-0.100000)"
fill="#000000" stroke="none">
<path d="M7318 11425 c-2 -1 -46 -5 -98 -9 -185 -12 -385 -44 -589 -93 -36 -8
-72 -17 -80 -19 -51 -11 -234 -69 -341 -107 -589 -210 -1145 -584 -1559 -1048
-112 -125 -119 -134 -207 -250 -244 -319 -447 -698 -575 -1072 l-44 -127 -45
0 c-164 -3 -409 -64 -565 -142 -132 -67 -256 -158 -358 -263 -35 -37 -45 -44
-38 -25 13 33 102 309 106 329 2 9 12 41 23 71 19 52 163 494 168 515 1 6 14
45 28 88 14 43 26 79 26 80 0 5 -1279 1 -1285 -4 -3 -4 -8 -17 -10 -29 -6 -32
-33 -145 -61 -260 -12 -52 -25 -106 -28 -120 -7 -33 -5 -24 -81 -350 -37 -157
-74 -314 -82 -350 -8 -36 -16 -72 -18 -80 -32 -130 -67 -279 -68 -292 -1 -10
-4 -18 -8 -18 -4 0 -5 57 -4 128 4 169 17 1015 19 1217 l1 160 -630 1 c-346 0
-635 -2 -642 -4 -6 -2 -10 -11 -8 -20 3 -20 9 -99 30 -432 3 -47 8 -112 10
-145 3 -33 7 -95 10 -137 3 -43 7 -113 10 -155 3 -43 7 -107 10 -143 2 -36 7
-101 10 -145 3 -44 7 -114 10 -155 13 -176 15 -210 20 -295 3 -49 7 -115 10
-145 2 -30 7 -98 10 -151 3 -53 7 -116 10 -140 2 -24 6 -91 10 -149 3 -58 8
-132 10 -165 5 -65 11 -157 20 -305 3 -52 8 -113 10 -135 2 -22 7 -89 10 -150
4 -60 8 -128 10 -150 2 -22 7 -94 11 -160 3 -66 8 -131 9 -145 2 -14 4 -32 4
-40 1 -13 93 -15 767 -15 l767 0 13 30 c11 25 170 508 294 898 18 53 33 97 34
97 2 0 3 -19 3 -42 -1 -66 13 -209 23 -248 5 -19 11 -48 14 -65 9 -50 53 -172
87 -238 129 -256 377 -437 685 -501 224 -46 513 -41 751 14 48 11 93 21 99 23
7 1 33 -38 58 -87 26 -49 72 -131 104 -183 31 -52 62 -102 67 -111 46 -79 252
-356 328 -442 104 -117 290 -302 408 -405 220 -193 508 -385 798 -529 92 -46
150 -73 286 -131 126 -54 449 -156 535 -170 19 -3 49 -10 65 -15 30 -9 109
-25 175 -35 19 -3 42 -7 50 -10 8 -2 42 -6 75 -10 33 -3 67 -8 75 -10 8 -2 49
-6 90 -10 41 -3 100 -8 130 -11 81 -8 391 -8 495 0 143 11 309 31 390 46 28 5
68 12 90 15 145 21 492 121 690 200 111 44 444 200 455 214 3 3 30 19 60 35
127 68 320 198 468 315 430 339 780 762 1037 1251 l60 116 413 -1 c228 0 416
3 418 6 3 6 18 106 38 254 3 22 8 54 11 70 2 17 14 98 25 180 12 83 23 161 26
175 2 14 6 45 9 70 3 25 8 56 10 70 3 14 7 42 10 63 3 20 7 53 10 72 3 19 7
52 10 73 5 37 16 98 21 117 1 6 18 59 38 118 80 242 171 354 279 342 43 -5
107 -17 107 -20 0 -1 -4 -25 -10 -53 -5 -28 -12 -73 -16 -99 -3 -26 -8 -57
-10 -68 -25 -129 -24 -533 1 -625 2 -8 6 -31 9 -50 5 -32 34 -123 68 -210 54
-141 183 -297 328 -396 105 -72 286 -144 413 -163 34 -6 82 -13 107 -17 81
-12 330 -10 428 3 127 17 180 28 282 59 77 24 117 40 230 92 102 47 268 158
380 255 l44 38 -33 62 c-18 34 -66 121 -107 192 -42 72 -88 153 -103 180 -16
28 -60 106 -99 174 l-70 123 67 35 c166 89 314 211 409 338 169 229 224 553
137 810 -116 341 -495 558 -975 558 -439 1 -776 -126 -1037 -389 -34 -34 -60
-55 -58 -46 4 18 32 111 70 236 14 44 24 80 22 81 -1 2 -31 17 -67 35 -101 51
-188 70 -305 66 -165 -5 -301 -64 -430 -184 -50 -48 -47 -52 -47 51 -1 36 -5
47 -17 48 -9 0 -192 1 -407 0 l-392 0 -32 102 c-37 117 -107 309 -140 382
-143 318 -312 605 -484 825 -79 101 -80 102 -96 120 -8 9 -39 45 -69 81 -56
66 -234 246 -332 335 -335 303 -785 575 -1224 737 -121 45 -164 59 -310 101
-74 22 -117 33 -155 41 -8 2 -44 10 -80 18 -36 8 -83 18 -105 21 -22 3 -62 11
-90 16 -48 9 -188 28 -270 36 -46 5 -552 13 -557 9z m6450 -3647 c-12 -55 -36
-106 -66 -143 l-25 -30 7 30 c13 52 77 185 90 185 2 0 0 -19 -6 -42z m407
-868 c-3 -6 -21 -17 -38 -26 -18 -9 -34 -20 -37 -23 -12 -15 -158 -96 -212
-117 -109 -42 -233 -44 -277 -2 -13 11 -19 23 -14 27 4 4 57 15 118 25 131 21
306 65 395 99 36 14 66 25 68 26 2 0 0 -4 -3 -9z m-10438 -165 l6 -38 -57 5
c-54 4 -106 30 -110 53 -1 11 135 34 147 25 4 -4 11 -24 14 -45z"/>
</g>
</svg>
