<svg xmlns="http://www.w3.org/2000/svg" id="baseline-eye-24px" width="48" height="48" viewBox="0 0 48 48">
    <defs>
        <style>
            .cls-1{fill:none}.cls-2{fill:#099cdb}
        </style>
    </defs>
    <path id="Path_469" d="M0 0h48v48H0z" class="cls-1" data-name="Path 469"/>
    <path id="Path_470" d="M23 4.5a23.654 23.654 0 0 0-22 15 23.633 23.633 0 0 0 44 0 23.654 23.654 0 0 0-22-15zm0 25a10 10 0 1 1 10-10 10 10 0 0 1-10 10zm0-16a6 6 0 1 0 6 6 5.992 5.992 0 0 0-6-6z" class="cls-2" data-name="Path 470" transform="translate(1 4.5)"/>
</svg>
