<svg id="svg" xmlns="http://www.w3.org/2000/svg" xmlns:xlink="http://www.w3.org/1999/xlink" width="400" height="266.1016949152542" viewBox="0, 0, 400,266.1016949152542"><g id="svgg"><path id="path0" d="M137.059 133.067 L 137.059 266.134 201.464 266.134 L 265.868 266.134 265.868 133.067 L 265.868 0.000 201.464 0.000 L 137.059 0.000 137.059 133.067 " stroke="none" fill="#fcfbfb" fill-rule="evenodd"></path><path id="path1" d="M0.000 133.067 L 0.000 266.134 66.134 266.134 L 132.269 266.134 132.269 133.067 L 132.269 0.000 66.134 0.000 L 0.000 0.000 0.000 133.067 " stroke="none" fill="#04944c" fill-rule="evenodd"></path><path id="path2" d="M266.933 133.067 L 266.933 266.134 333.466 266.134 L 400.000 266.134 400.000 133.067 L 400.000 0.000 333.466 0.000 L 266.933 0.000 266.933 133.067 " stroke="none" fill="#cb2b34" fill-rule="evenodd"></path><path id="path3" d="M134.132 133.067 L 134.132 266.134 135.595 266.134 L 137.059 266.134 137.059 133.067 L 137.059 0.000 135.595 0.000 L 134.132 0.000 134.132 133.067 M265.868 133.067 C 265.868 221.601,265.957 266.134,266.134 266.134 C 266.311 266.134,266.401 221.601,266.401 133.067 C 266.401 44.533,266.311 0.000,266.134 0.000 C 265.957 0.000,265.868 44.533,265.868 133.067 " stroke="none" fill="#f4fcfc" fill-rule="evenodd"></path><path id="path4" d="M132.269 133.067 L 132.269 266.134 133.200 266.134 L 134.132 266.134 134.132 133.067 L 134.132 0.000 133.200 0.000 L 132.269 0.000 132.269 133.067 M266.401 133.067 C 266.401 221.601,266.490 266.134,266.667 266.134 C 266.844 266.134,266.933 221.601,266.933 133.067 C 266.933 44.533,266.844 0.000,266.667 0.000 C 266.490 0.000,266.401 44.533,266.401 133.067 " stroke="none" fill="#64ac84" fill-rule="evenodd"></path></g></svg>