<svg xmlns="http://www.w3.org/2000/svg" id="hot" width="48" height="48" viewBox="0 0 48 48">
    <defs>
        <style>
            .cls-1{fill:none}.cls-2{fill:#007fff}
        </style>
    </defs>
    <path id="Path_25" d="M0 0h48v48H0z" class="cls-1" data-name="Path 25"/>
    <path id="Path_26" d="M19.14 25.65c-2.72.56-4.34 2.32-4.34 4.82a4.9 4.9 0 0 0 4.98 4.84 7.417 7.417 0 0 0 7.42-7.42 21.042 21.042 0 0 0-.92-6.24c-1.58 2.14-4.4 3.44-7.14 4zM23 .67a42.986 42.986 0 0 1 1.48 9.6c0 4.12-2.7 7.46-6.82 7.46a7.279 7.279 0 0 1-7.26-7.46l.06-.72A27.536 27.536 0 0 0 4 27.33a16 16 0 1 0 32 0A34.229 34.229 0 0 0 23 .67zm-3 38.66a12.01 12.01 0 0 1-12-12 23.769 23.769 0 0 1 1.72-8.86 11.164 11.164 0 0 0 7.94 3.26 10.683 10.683 0 0 0 10.56-8.86A29.542 29.542 0 0 1 32 27.33a12.01 12.01 0 0 1-12 12z" class="cls-2" data-name="Path 26" transform="translate(4 .67)"/>
</svg>
