<svg xmlns="http://www.w3.org/2000/svg" width="48" height="48" viewBox="0 0 48 48">
    <defs>
        <style>
            .cls-1{fill:url(#linear-gradient)}.cls-2{fill:none}
        </style>
        <linearGradient id="linear-gradient" x1="-.236" x2=".5" y2="1" gradientUnits="objectBoundingBox">
            <stop offset="0" stop-color="#5983cb"/>
            <stop offset="1" stop-color="#00c4ff"/>
        </linearGradient>
    </defs>
    <g id="hot_active" data-name="hot active">
        <path id="Path_27" d="M23 .67a42.986 42.986 0 0 1 1.48 9.6c0 4.12-2.7 7.46-6.82 7.46a7.279 7.279 0 0 1-7.26-7.46l.06-.72A27.536 27.536 0 0 0 4 27.33a16 16 0 1 0 32 0A34.229 34.229 0 0 0 23 .67zm-3.58 36.66a6.352 6.352 0 0 1-6.44-6.28c0-3.24 2.1-5.52 5.62-6.24 3.54-.72 7.2-2.42 9.24-5.16a27.906 27.906 0 0 1 1.18 8.08 9.6 9.6 0 0 1-9.6 9.6z" class="cls-1" data-name="Path 27" transform="translate(4 .67)"/>
        <path id="Path_28" d="M0 0h48v48H0z" class="cls-2" data-name="Path 28"/>
    </g>
</svg>
