<svg xmlns="http://www.w3.org/2000/svg" width="250" height="250.001" viewBox="0 0 250 250.001">
    <defs>
        <style>
            .cls-1{fill:#fff}.cls-2{fill:none}.cls-3{fill:url(#radial-gradient)}.cls-4{fill:#fff06c}.cls-5{fill:#83d864}.cls-6{filter:url(#Path_140)}
        </style>
        <filter id="Path_140" width="205.5" height="226.334" x="22.25" y="14.833" filterUnits="userSpaceOnUse">
            <feOffset dy="3"/>
            <feGaussianBlur result="blur" stdDeviation="3"/>
            <feFlood flood-opacity=".161"/>
            <feComposite in2="blur" operator="in"/>
            <feComposite in="SourceGraphic"/>
        </filter>
        <radialGradient id="radial-gradient" cx=".5" cy=".5" r=".5">
            <stop offset="0" stop-color="#ff0"/>
            <stop offset=".375" stop-color="#fff06c"/>
            <stop offset=".468" stop-color="#f9fcff"/>
            <stop offset="1" stop-color="#94c2ff"/>
        </radialGradient>
    </defs>
    <g id="logo_welcome_screens" data-name="logo welcome screens" transform="translate(-235 -145)">
        <g id="Group_4" data-name="Group 4" transform="translate(235 145)">
            <g id="pin">
                <g class="cls-6">
                    <path id="Path_140-2" d="M96.75 2a93.7 93.7 0 0 0-24.062 184.272l24.062 24.062 24.063-24.063A93.7 93.7 0 0 0 96.75 2z" class="cls-1" data-name="Path 140" transform="translate(28.25 18.83)"/>
                </g>
                <path id="Path_141" d="M0 0h250v250H0z" class="cls-2" data-name="Path 141"/>
            </g>
        </g>
        <g id="Group_5" data-name="Group 5" transform="translate(279.952 177.452)">
            <circle id="Ellipse_11" cx="80" cy="80" r="80" class="cls-3" data-name="Ellipse 11"/>
            <path id="Path_181" d="M34.639 0A34.759 34.759 0 1 1 0 34.759 34.7 34.7 0 0 1 34.639 0z" class="cls-4" data-name="Path 181" transform="translate(45.636 42.483)"/>
            <path id="Intersection_6" d="M0 2.759Q0 1.375.047 0c40.3 1.25 80 17.306 80 17.306S120.074 1.6 159.954 0Q160 1.374 160 2.759a80 80 0 0 1-160 0z" class="cls-5" data-name="Intersection 6" transform="translate(0 77.242)"/>
        </g>
    </g>
</svg>
