<svg xmlns="http://www.w3.org/2000/svg" width="48" height="48" viewBox="0 0 48 48">
    <defs>
        <style>
            .cls-1{fill:none}.cls-2{fill:#2280ff}
        </style>
    </defs>
    <g id="map">
        <path id="Path_198" d="M0 0h48v48H0z" class="cls-1" data-name="Path 198"/>
        <path id="Path_199" d="M38 3l-.32.06L27 7.2 15 3 3.72 6.8a1.008 1.008 0 0 0-.72.96V38a.99.99 0 0 0 1 1l.32-.06L15 34.8 27 39l11.28-3.8a1.008 1.008 0 0 0 .72-.96V4a.99.99 0 0 0-1-1zM17 7.94l8 2.8v23.32l-8-2.8zM7 9.92l6-2.02v23.4l-6 2.32zm28 22.16l-6 2.02V10.72l6-2.32z" class="cls-2" data-name="Path 199" transform="translate(3 3)"/>
    </g>
</svg>
