<svg xmlns="http://www.w3.org/2000/svg" id="microphone" width="48" height="48" viewBox="0 0 48 48">
    <defs>
        <style>
            .cls-1{fill:#3c3c3c}.cls-2{fill:none}
        </style>
    </defs>
    <path id="Path_32" d="M19 27a5.975 5.975 0 0 0 5.98-6L25 9a6 6 0 0 0-12 0v12a5.992 5.992 0 0 0 6 6zm10.6-6A10.377 10.377 0 0 1 19 31.2 10.377 10.377 0 0 1 8.4 21H5c0 6.84 5.44 12.46 12 13.44V41h4v-6.56c6.56-.96 12-6.6 12-13.44z" class="cls-1" data-name="Path 32" transform="translate(5 3)"/>
    <path id="Path_33" d="M0 0h48v48H0z" class="cls-2" data-name="Path 33"/>
</svg>
