<svg xmlns="http://www.w3.org/2000/svg" width="35" height="35" viewBox="0 0 35 35">
    <defs>
        <style>
            .cls-1{fill:#3c3c3c}
        </style>
    </defs>
    <g id="baseline-my_location-24px" transform="translate(-1.357 -1.357)">
        <path id="Path_73" d="M18.167 12.109a5.9 5.9 0 0 0-6.058 6.058 5.9 5.9 0 0 0 6.058 6.058 5.9 5.9 0 0 0 6.058-6.058 5.9 5.9 0 0 0-6.058-6.058zM32.3 16.821A14.777 14.777 0 0 0 19.513 4.032V.667h-2.692v3.365A14.777 14.777 0 0 0 4.032 16.821H.667v2.692h3.365A14.777 14.777 0 0 0 16.821 32.3v3.365h2.692V32.3A14.777 14.777 0 0 0 32.3 19.513h3.365v-2.692zM18.167 28.936A10.607 10.607 0 0 1 7.4 18.167 10.607 10.607 0 0 1 18.167 7.4a10.607 10.607 0 0 1 10.769 10.767 10.607 10.607 0 0 1-10.769 10.769z" class="cls-1" data-name="Path 73" transform="translate(.69 .69)"/>
    </g>
</svg>
