<svg xmlns="http://www.w3.org/2000/svg" width="30" height="30" viewBox="0 0 30 30">
    <defs>
        <style>
            .cls-1{fill:none}.cls-2,.cls-3{stroke:none}.cls-3{fill:#ffbc06}
        </style>
    </defs>
    <g id="star_simple" class="cls-1" data-name="star simple">
        <path d="M29.348 14.642a2.3 2.3 0 0 0 .544-2.3 2.166 2.166 0 0 0-1.737-1.529l-7.264-1.1a.953.953 0 0 1-.715-.542L16.929 2.3a2.113 2.113 0 0 0-3.858 0L9.823 9.169a.954.954 0 0 1-.715.542l-7.264 1.1a2.166 2.166 0 0 0-1.738 1.53 2.3 2.3 0 0 0 .544 2.3l5.256 5.349a1.02 1.02 0 0 1 .274.878l-1.24 7.55a2.268 2.268 0 0 0 .469 1.821 2.112 2.112 0 0 0 2.652.546l6.5-3.565a.936.936 0 0 1 .884 0l6.5 3.565a2.058 2.058 0 0 0 1 .261 2.122 2.122 0 0 0 1.651-.808 2.267 2.267 0 0 0 .469-1.821l-1.24-7.55a1.019 1.019 0 0 1 .274-.878z" class="cls-2" transform="translate(0 -1.047)"/>
        <path d="M15 5.237l-2.464 5.212a3.95 3.95 0 0 1-2.979 2.228l-5.772.876 4.262 4.336a4.029 4.029 0 0 1 1.093 3.465l-.977 5.954 4.954-2.72a3.93 3.93 0 0 1 3.758-.003l.005.003.005.002 4.951 2.718-.978-5.953a4.03 4.03 0 0 1 1.095-3.468l4.26-4.335-5.773-.876a3.947 3.947 0 0 1-2.976-2.226L15 5.237m0-4.19c.824 0 1.564.48 1.929 1.252l3.247 6.87a.953.953 0 0 0 .715.541l7.264 1.102c.817.124 1.482.71 1.737 1.529a2.3 2.3 0 0 1-.544 2.301l-5.255 5.348a1.02 1.02 0 0 0-.274.878l1.24 7.55a2.267 2.267 0 0 1-.47 1.821 2.122 2.122 0 0 1-1.65.808c-.348 0-.685-.088-1-.261l-6.497-3.566a.929.929 0 0 0-.885 0l-6.496 3.566a2.053 2.053 0 0 1-.99.253 2.14 2.14 0 0 1-1.662-.8 2.268 2.268 0 0 1-.469-1.82l1.24-7.55a1.02 1.02 0 0 0-.274-.879L.65 14.643a2.3 2.3 0 0 1-.544-2.302c.255-.82.92-1.405 1.737-1.528L9.107 9.71a.954.954 0 0 0 .716-.542l3.248-6.87c.364-.772 1.104-1.252 1.929-1.252z" class="cls-3" transform="translate(0 -1.047)"/>
    </g>
</svg>
